{"glyphs":{"0":{"ha":835,"x_min":69,"x_max":765,"o":"m 418 -14 q 226 51 303 -14 q 109 231 149 117 q 69 486 69 344 q 109 743 69 631 q 226 921 149 856 q 418 986 303 986 q 610 921 533 986 q 726 743 688 856 q 765 486 765 631 q 726 231 765 344 q 610 51 688 117 q 418 -14 533 -14 m 418 99 q 542 146 492 99 q 619 280 593 193 q 646 486 646 367 q 619 694 646 607 q 542 827 593 781 q 418 874 492 874 q 294 827 344 874 q 216 694 243 781 q 189 486 189 607 q 216 280 189 367 q 294 146 243 193 q 418 99 344 99 z "},"1":{"ha":522,"x_min":32,"x_max":381,"o":"m 319 0 q 278 17 294 0 q 261 57 261 33 l 261 847 l 278 828 l 121 719 q 89 710 107 710 q 49 727 65 710 q 32 767 32 744 q 61 815 32 797 l 282 961 q 304 971 293 968 q 326 972 315 974 q 366 956 351 972 q 381 917 381 940 l 381 57 q 363 17 381 33 q 319 0 346 0 z "},"2":{"ha":776,"x_min":81,"x_max":704,"o":"m 651 104 q 689 89 674 104 q 704 51 704 74 q 689 15 704 29 q 651 0 674 0 l 147 0 q 106 15 122 0 q 90 54 90 29 q 107 94 90 76 l 421 438 q 526 578 490 513 q 561 696 561 644 q 510 831 561 781 q 375 882 460 882 q 300 866 338 882 q 232 823 263 850 q 182 763 201 796 q 159 740 171 744 q 135 735 147 735 q 97 749 114 735 q 81 783 81 764 q 89 812 81 799 q 111 842 97 825 q 184 915 140 882 q 280 967 228 947 q 382 986 332 986 q 537 951 471 986 q 639 853 603 917 q 675 703 675 789 q 631 540 675 629 q 500 360 586 451 l 257 90 l 243 104 l 651 104 z "},"3":{"ha":733,"x_min":63,"x_max":663,"o":"m 135 161 q 153 158 143 161 q 176 143 164 154 q 242 103 204 118 q 328 88 279 88 q 438 115 388 88 q 519 192 488 142 q 550 307 550 242 q 519 423 550 378 q 440 490 488 468 q 339 511 392 511 q 303 508 319 511 q 272 501 286 506 q 244 497 257 497 q 210 513 222 497 q 197 550 197 528 q 202 573 197 563 q 218 596 207 583 l 488 888 l 510 861 l 115 861 q 78 876 93 861 q 63 914 63 892 q 78 951 63 936 q 115 965 93 965 l 568 965 q 613 948 599 965 q 626 910 626 931 q 620 886 626 897 q 604 865 614 875 l 335 572 l 303 600 q 335 610 310 606 q 376 615 360 615 q 519 578 454 615 q 624 472 585 540 q 663 314 663 404 q 617 140 663 214 q 491 26 571 67 q 311 -14 411 -14 q 202 3 256 -14 q 110 54 149 21 q 85 76 92 64 q 79 101 79 89 q 95 142 79 122 q 135 161 111 161 z "},"4":{"ha":760,"x_min":18,"x_max":722,"o":"m 521 0 q 481 17 497 0 q 465 57 465 33 l 465 817 l 488 808 l 156 375 l 150 392 l 669 392 q 707 376 692 392 q 722 339 722 361 q 707 303 722 318 q 669 289 692 289 l 74 289 q 35 306 53 289 q 18 344 18 322 q 32 381 18 365 l 475 950 q 497 967 485 963 q 522 972 510 972 q 561 956 546 972 q 576 917 576 940 l 576 57 q 560 17 576 33 q 521 0 544 0 z "},"5":{"ha":772,"x_min":90,"x_max":692,"o":"m 329 -6 q 216 12 274 -6 q 115 64 158 29 q 97 89 104 74 q 90 118 90 104 q 105 151 90 135 q 143 167 119 167 q 185 149 161 167 q 253 111 215 125 q 328 97 290 97 q 463 126 406 97 q 550 208 519 156 q 581 332 581 261 q 552 444 581 396 q 473 518 524 492 q 357 544 422 544 q 270 530 308 544 q 203 500 232 515 q 154 485 175 485 q 114 497 128 485 q 96 526 100 508 q 93 560 92 544 l 147 919 q 167 951 151 938 q 204 965 182 965 l 617 965 q 654 950 639 965 q 669 911 669 935 q 654 874 669 889 q 617 860 639 860 l 232 860 l 246 872 l 194 558 l 172 588 q 219 615 188 601 q 291 639 250 629 q 375 649 332 649 q 537 608 465 649 q 650 496 608 567 q 692 333 692 425 q 647 156 692 232 q 522 37 603 79 q 329 -6 440 -6 z "},"6":{"ha":754,"x_min":76,"x_max":710,"o":"m 399 -14 q 259 16 319 -14 q 158 97 199 46 q 97 213 118 149 q 76 344 76 276 q 92 478 76 404 q 138 628 107 551 q 219 776 169 706 q 339 903 269 847 q 499 990 408 960 q 521 993 511 993 q 560 981 543 993 q 578 939 578 969 q 565 905 578 919 q 532 883 553 890 q 423 823 476 863 q 324 730 369 783 q 247 615 279 676 q 201 486 214 553 l 168 475 q 228 546 192 513 q 312 600 264 579 q 417 621 360 621 q 531 594 478 621 q 624 524 583 568 q 687 422 664 479 q 710 301 710 364 q 669 145 710 217 q 558 30 628 74 q 399 -14 488 -14 m 397 90 q 499 117 454 90 q 571 192 544 144 q 597 301 597 240 q 574 407 597 358 q 506 485 550 456 q 401 515 463 515 q 289 486 336 515 q 216 408 242 457 q 190 299 190 358 q 215 196 190 243 q 287 119 240 149 q 397 90 333 90 z "},"7":{"ha":729,"x_min":81,"x_max":692,"o":"m 257 -4 q 217 10 235 -4 q 200 49 200 25 q 206 74 200 61 l 564 886 l 581 861 l 133 861 q 96 876 111 861 q 81 914 81 890 q 96 951 81 936 q 133 965 111 965 l 635 965 q 676 950 660 965 q 692 911 692 935 q 686 886 692 899 l 310 31 q 288 5 303 14 q 257 -4 274 -4 z "},"8":{"ha":754,"x_min":69,"x_max":685,"o":"m 515 490 l 513 510 q 600 453 561 489 q 662 370 639 417 q 685 269 685 324 q 644 131 685 194 q 533 31 603 68 q 376 -7 463 -7 q 221 31 290 -7 q 110 131 151 68 q 69 269 69 194 q 95 379 69 332 q 160 460 121 426 q 243 513 200 493 l 236 490 q 167 535 200 506 q 114 608 135 565 q 93 704 93 650 q 131 840 93 779 q 233 937 168 901 q 376 972 299 972 q 519 937 456 972 q 622 840 583 901 q 660 704 660 779 q 638 605 660 647 q 583 534 615 563 q 515 490 550 506 m 206 703 q 228 615 206 653 q 291 556 251 578 q 376 535 331 535 q 462 556 424 535 q 524 615 500 578 q 547 703 547 653 q 499 822 547 775 q 376 868 451 868 q 253 822 301 868 q 206 703 206 775 m 376 97 q 517 147 463 97 q 572 271 572 197 q 546 362 572 322 q 475 424 519 401 q 376 447 431 447 q 279 424 324 447 q 208 362 235 401 q 182 271 182 322 q 237 147 182 197 q 376 97 292 97 z "},"9":{"ha":781,"x_min":76,"x_max":710,"o":"m 388 989 q 527 959 467 989 q 628 878 588 929 q 689 763 668 826 q 710 631 710 699 q 694 497 710 571 q 648 347 679 424 q 567 201 617 271 q 447 75 517 131 q 288 -11 378 19 q 265 -15 275 -15 q 226 -1 243 -15 q 208 40 208 13 q 221 74 208 60 q 254 96 233 89 q 398 183 329 124 q 517 322 467 242 q 585 489 568 401 l 618 500 q 560 430 596 463 q 476 376 524 397 q 369 356 428 356 q 214 399 279 356 q 113 514 149 442 q 76 674 76 586 q 117 830 76 758 q 229 945 158 901 q 388 989 300 989 m 389 885 q 287 858 332 885 q 215 783 242 831 q 189 674 189 735 q 212 567 189 615 q 278 490 235 518 q 385 461 322 461 q 497 490 450 461 q 570 569 544 519 q 596 676 596 618 q 571 780 596 733 q 499 856 546 826 q 389 885 453 885 z "},"A":{"ha":894,"x_min":31,"x_max":864,"o":"m 458 828 l 132 33 q 113 7 126 17 q 83 -3 99 -3 q 44 11 57 -3 q 32 44 32 25 q 35 65 31 54 l 394 940 q 416 969 401 960 q 449 976 431 978 q 481 967 467 976 q 501 940 496 957 l 860 74 q 864 51 864 63 q 847 12 864 26 q 810 -3 831 -3 q 779 7 793 -3 q 758 35 765 17 l 428 829 l 458 828 m 201 260 l 249 368 l 661 368 l 682 260 l 201 260 z "},"Á":{"ha":894,"x_min":31,"x_max":864,"o":"m 458 828 l 132 33 q 113 7 126 17 q 83 -3 99 -3 q 44 11 57 -3 q 32 44 32 25 q 35 65 31 54 l 394 940 q 416 969 401 960 q 449 976 431 978 q 481 967 467 976 q 501 940 496 957 l 860 74 q 864 51 864 63 q 847 12 864 26 q 810 -3 831 -3 q 779 7 793 -3 q 758 35 765 17 l 428 829 l 458 828 m 201 260 l 249 368 l 661 368 l 682 260 l 201 260 m 454 1032 q 426 1042 436 1032 q 417 1065 417 1051 q 421 1081 417 1074 q 432 1094 425 1088 l 554 1194 q 578 1209 565 1203 q 604 1215 590 1215 q 640 1201 624 1215 q 657 1164 657 1186 q 648 1133 657 1147 q 621 1111 639 1119 l 485 1042 q 469 1035 478 1038 q 454 1032 461 1032 z "},"Ă":{"ha":894,"x_min":31,"x_max":864,"o":"m 458 828 l 132 33 q 113 7 126 17 q 83 -3 99 -3 q 44 11 57 -3 q 32 44 32 25 q 35 65 31 54 l 394 940 q 416 969 401 960 q 449 976 431 978 q 481 967 467 976 q 501 940 496 957 l 860 74 q 864 51 864 63 q 847 12 864 26 q 810 -3 831 -3 q 779 7 793 -3 q 758 35 765 17 l 428 829 l 458 828 m 201 260 l 249 368 l 661 368 l 682 260 l 201 260 m 450 1069 q 324 1105 376 1069 q 250 1206 272 1140 q 251 1244 242 1229 q 281 1258 261 1258 q 313 1249 303 1258 q 336 1222 324 1240 q 382 1172 354 1189 q 450 1156 410 1156 q 564 1222 531 1156 q 587 1249 575 1239 q 619 1258 599 1258 q 650 1244 640 1258 q 651 1207 660 1231 q 577 1105 629 1140 q 450 1069 525 1069 z "},"Ắ":{"ha":894,"x_min":31,"x_max":864,"o":"m 458 828 l 132 33 q 113 7 126 17 q 83 -3 99 -3 q 44 11 57 -3 q 32 44 32 25 q 35 65 31 54 l 394 940 q 416 969 401 960 q 449 976 431 978 q 481 967 467 976 q 501 940 496 957 l 860 74 q 864 51 864 63 q 847 12 864 26 q 810 -3 831 -3 q 779 7 793 -3 q 758 35 765 17 l 428 829 l 458 828 m 201 260 l 249 368 l 661 368 l 682 260 l 201 260 m 450 1069 q 324 1105 376 1069 q 250 1206 272 1140 q 251 1244 242 1229 q 281 1258 261 1258 q 313 1249 303 1258 q 336 1222 324 1240 q 382 1172 354 1189 q 450 1156 410 1156 q 564 1222 531 1156 q 587 1249 575 1239 q 619 1258 599 1258 q 650 1244 640 1258 q 651 1207 660 1231 q 577 1105 629 1140 q 450 1069 525 1069 m 454 1303 q 426 1313 436 1303 q 417 1336 417 1322 q 421 1351 417 1344 q 432 1365 425 1358 l 554 1465 q 578 1480 565 1474 q 604 1486 590 1486 q 640 1472 624 1486 q 657 1435 657 1457 q 648 1404 657 1418 q 621 1382 639 1390 l 485 1313 q 469 1306 478 1308 q 454 1303 461 1303 z "},"Ặ":{"ha":894,"x_min":31,"x_max":864,"o":"m 458 828 l 132 33 q 113 7 126 17 q 83 -3 99 -3 q 44 11 57 -3 q 32 44 32 25 q 35 65 31 54 l 394 940 q 416 969 401 960 q 449 976 431 978 q 481 967 467 976 q 501 940 496 957 l 860 74 q 864 51 864 63 q 847 12 864 26 q 810 -3 831 -3 q 779 7 793 -3 q 758 35 765 17 l 428 829 l 458 828 m 201 260 l 249 368 l 661 368 l 682 260 l 201 260 m 449 -197 q 399 -183 415 -197 q 382 -137 382 -168 l 382 -118 q 400 -73 382 -87 q 450 -58 418 -58 q 501 -73 485 -58 q 518 -118 518 -87 l 518 -137 q 501 -183 518 -168 q 449 -197 483 -197 m 450 1069 q 324 1105 376 1069 q 250 1206 272 1140 q 251 1244 242 1229 q 281 1258 261 1258 q 313 1249 303 1258 q 336 1222 324 1240 q 382 1172 354 1189 q 450 1156 410 1156 q 564 1222 531 1156 q 587 1249 575 1239 q 619 1258 599 1258 q 650 1244 640 1258 q 651 1207 660 1231 q 577 1105 629 1140 q 450 1069 525 1069 z "},"Ằ":{"ha":894,"x_min":31,"x_max":864,"o":"m 458 828 l 132 33 q 113 7 126 17 q 83 -3 99 -3 q 44 11 57 -3 q 32 44 32 25 q 35 65 31 54 l 394 940 q 416 969 401 960 q 449 976 431 978 q 481 967 467 976 q 501 940 496 957 l 860 74 q 864 51 864 63 q 847 12 864 26 q 810 -3 831 -3 q 779 7 793 -3 q 758 35 765 17 l 428 829 l 458 828 m 201 260 l 249 368 l 661 368 l 682 260 l 201 260 m 450 1069 q 324 1105 376 1069 q 250 1206 272 1140 q 251 1244 242 1229 q 281 1258 261 1258 q 313 1249 303 1258 q 336 1222 324 1240 q 382 1172 354 1189 q 450 1156 410 1156 q 564 1222 531 1156 q 587 1249 575 1239 q 619 1258 599 1258 q 650 1244 640 1258 q 651 1207 660 1231 q 577 1105 629 1140 q 450 1069 525 1069 m 449 1306 q 433 1308 440 1306 q 418 1315 425 1311 l 281 1385 q 246 1438 246 1404 q 262 1474 246 1460 q 299 1489 278 1489 q 325 1483 313 1489 q 347 1468 338 1476 l 469 1368 q 482 1354 478 1361 q 486 1339 486 1347 q 476 1315 486 1325 q 449 1306 467 1306 z "},"Ẳ":{"ha":894,"x_min":31,"x_max":864,"o":"m 458 828 l 132 33 q 113 7 126 17 q 83 -3 99 -3 q 44 11 57 -3 q 32 44 32 25 q 35 65 31 54 l 394 940 q 416 969 401 960 q 449 976 431 978 q 481 967 467 976 q 501 940 496 957 l 860 74 q 864 51 864 63 q 847 12 864 26 q 810 -3 831 -3 q 779 7 793 -3 q 758 35 765 17 l 428 829 l 458 828 m 201 260 l 249 368 l 661 368 l 682 260 l 201 260 m 450 1069 q 324 1105 376 1069 q 250 1206 272 1140 q 251 1244 242 1229 q 281 1258 261 1258 q 313 1249 303 1258 q 336 1222 324 1240 q 382 1172 354 1189 q 450 1156 410 1156 q 564 1222 531 1156 q 587 1249 575 1239 q 619 1258 599 1258 q 650 1244 640 1258 q 651 1207 660 1231 q 577 1105 629 1140 q 450 1069 525 1069 m 335 1536 q 381 1567 356 1556 q 440 1579 407 1579 q 515 1561 489 1579 q 552 1518 542 1543 q 563 1471 563 1493 q 552 1428 563 1447 q 524 1389 542 1410 q 508 1368 514 1378 q 500 1347 501 1358 q 489 1327 500 1333 q 461 1321 478 1321 q 440 1328 449 1321 q 431 1349 431 1335 q 435 1375 431 1361 q 451 1403 439 1389 q 478 1435 467 1421 q 489 1464 489 1450 q 474 1494 489 1483 q 439 1506 460 1506 q 406 1497 421 1506 q 378 1481 390 1489 q 353 1471 367 1472 q 328 1483 340 1469 q 319 1512 315 1497 q 335 1536 322 1526 z "},"Ẵ":{"ha":894,"x_min":31,"x_max":864,"o":"m 458 828 l 132 33 q 113 7 126 17 q 83 -3 99 -3 q 44 11 57 -3 q 32 44 32 25 q 35 65 31 54 l 394 940 q 416 969 401 960 q 449 976 431 978 q 481 967 467 976 q 501 940 496 957 l 860 74 q 864 51 864 63 q 847 12 864 26 q 810 -3 831 -3 q 779 7 793 -3 q 758 35 765 17 l 428 829 l 458 828 m 201 260 l 249 368 l 661 368 l 682 260 l 201 260 m 450 1069 q 324 1105 376 1069 q 250 1206 272 1140 q 251 1244 242 1229 q 281 1258 261 1258 q 313 1249 303 1258 q 336 1222 324 1240 q 382 1172 354 1189 q 450 1156 410 1156 q 564 1222 531 1156 q 587 1249 575 1239 q 619 1258 599 1258 q 650 1244 640 1258 q 651 1207 660 1231 q 577 1105 629 1140 q 450 1069 525 1069 m 268 1325 q 233 1345 246 1325 q 222 1399 219 1365 q 264 1474 228 1444 q 354 1503 300 1503 q 428 1482 392 1503 q 499 1440 465 1461 q 556 1419 532 1419 q 585 1432 574 1419 q 596 1465 596 1444 q 603 1500 592 1488 q 632 1513 614 1513 q 669 1492 657 1513 q 681 1440 682 1472 q 662 1388 676 1413 q 622 1348 647 1363 q 561 1333 596 1333 q 483 1353 522 1333 q 409 1394 443 1374 q 350 1414 375 1414 q 321 1403 333 1414 q 306 1369 308 1392 q 297 1337 308 1349 q 268 1325 285 1325 z "},"Ǎ":{"ha":894,"x_min":31,"x_max":864,"o":"m 458 828 l 132 33 q 113 7 126 17 q 83 -3 99 -3 q 44 11 57 -3 q 32 44 32 25 q 35 65 31 54 l 394 940 q 416 969 401 960 q 449 976 431 978 q 481 967 467 976 q 501 940 496 957 l 860 74 q 864 51 864 63 q 847 12 864 26 q 810 -3 831 -3 q 779 7 793 -3 q 758 35 765 17 l 428 829 l 458 828 m 201 260 l 249 368 l 661 368 l 682 260 l 201 260 m 433 1124 l 554 1214 q 581 1230 569 1225 q 603 1235 593 1235 q 624 1226 615 1235 q 632 1208 632 1218 q 629 1195 632 1201 q 618 1179 626 1189 l 518 1069 q 492 1049 506 1056 q 458 1042 478 1042 l 440 1042 q 408 1049 421 1042 q 382 1069 394 1056 l 282 1179 q 270 1195 274 1189 q 267 1208 267 1201 q 276 1226 267 1218 q 297 1233 285 1233 q 346 1213 315 1233 l 467 1126 l 433 1124 z "},"Â":{"ha":894,"x_min":31,"x_max":864,"o":"m 458 828 l 132 33 q 113 7 126 17 q 83 -3 99 -3 q 44 11 57 -3 q 32 44 32 25 q 35 65 31 54 l 394 940 q 416 969 401 960 q 449 976 431 978 q 481 967 467 976 q 501 940 496 957 l 860 74 q 864 51 864 63 q 847 12 864 26 q 810 -3 831 -3 q 779 7 793 -3 q 758 35 765 17 l 428 829 l 458 828 m 201 260 l 249 368 l 661 368 l 682 260 l 201 260 m 465 1157 l 344 1069 q 318 1053 329 1060 q 296 1047 307 1047 q 275 1056 283 1047 q 267 1074 267 1064 q 269 1087 267 1081 q 281 1103 272 1093 l 381 1213 q 408 1233 394 1226 q 440 1240 421 1240 l 458 1240 q 491 1233 478 1240 q 517 1213 504 1226 l 617 1103 q 628 1088 625 1094 q 632 1074 632 1082 q 624 1057 632 1065 q 601 1049 615 1049 q 580 1055 592 1049 q 553 1071 568 1061 l 432 1154 l 465 1157 z "},"Ấ":{"ha":894,"x_min":31,"x_max":864,"o":"m 458 828 l 132 33 q 113 7 126 17 q 83 -3 99 -3 q 44 11 57 -3 q 32 44 32 25 q 35 65 31 54 l 394 940 q 416 969 401 960 q 449 976 431 978 q 481 967 467 976 q 501 940 496 957 l 860 74 q 864 51 864 63 q 847 12 864 26 q 810 -3 831 -3 q 779 7 793 -3 q 758 35 765 17 l 428 829 l 458 828 m 201 260 l 249 368 l 661 368 l 682 260 l 201 260 m 465 1157 l 344 1069 q 318 1053 329 1060 q 296 1047 307 1047 q 275 1056 283 1047 q 267 1074 267 1064 q 269 1087 267 1081 q 281 1103 272 1093 l 381 1213 q 408 1233 394 1226 q 440 1240 421 1240 l 458 1240 q 491 1233 478 1240 q 517 1213 504 1226 l 617 1103 q 628 1088 625 1094 q 632 1074 632 1082 q 624 1057 632 1065 q 601 1049 615 1049 q 580 1055 592 1049 q 553 1071 568 1061 l 432 1154 l 465 1157 m 650 1144 q 622 1154 632 1144 q 613 1178 613 1164 q 617 1193 613 1186 q 628 1207 621 1200 l 750 1307 q 774 1322 761 1315 q 800 1328 786 1328 q 836 1313 819 1328 q 853 1276 853 1299 q 844 1246 853 1260 q 817 1224 835 1232 l 681 1154 q 665 1147 674 1150 q 650 1144 657 1144 z "},"Ậ":{"ha":894,"x_min":31,"x_max":864,"o":"m 458 828 l 132 33 q 113 7 126 17 q 83 -3 99 -3 q 44 11 57 -3 q 32 44 32 25 q 35 65 31 54 l 394 940 q 416 969 401 960 q 449 976 431 978 q 481 967 467 976 q 501 940 496 957 l 860 74 q 864 51 864 63 q 847 12 864 26 q 810 -3 831 -3 q 779 7 793 -3 q 758 35 765 17 l 428 829 l 458 828 m 201 260 l 249 368 l 661 368 l 682 260 l 201 260 m 449 -197 q 399 -183 415 -197 q 382 -137 382 -168 l 382 -118 q 400 -73 382 -87 q 450 -58 418 -58 q 501 -73 485 -58 q 518 -118 518 -87 l 518 -137 q 501 -183 518 -168 q 449 -197 483 -197 m 465 1157 l 344 1069 q 318 1053 329 1060 q 296 1047 307 1047 q 275 1056 283 1047 q 267 1074 267 1064 q 269 1087 267 1081 q 281 1103 272 1093 l 381 1213 q 408 1233 394 1226 q 440 1240 421 1240 l 458 1240 q 491 1233 478 1240 q 517 1213 504 1226 l 617 1103 q 628 1088 625 1094 q 632 1074 632 1082 q 624 1057 632 1065 q 601 1049 615 1049 q 580 1055 592 1049 q 553 1071 568 1061 l 432 1154 l 465 1157 z "},"Ầ":{"ha":894,"x_min":31,"x_max":864,"o":"m 458 828 l 132 33 q 113 7 126 17 q 83 -3 99 -3 q 44 11 57 -3 q 32 44 32 25 q 35 65 31 54 l 394 940 q 416 969 401 960 q 449 976 431 978 q 481 967 467 976 q 501 940 496 957 l 860 74 q 864 51 864 63 q 847 12 864 26 q 810 -3 831 -3 q 779 7 793 -3 q 758 35 765 17 l 428 829 l 458 828 m 201 260 l 249 368 l 661 368 l 682 260 l 201 260 m 465 1157 l 344 1069 q 318 1053 329 1060 q 296 1047 307 1047 q 275 1056 283 1047 q 267 1074 267 1064 q 269 1087 267 1081 q 281 1103 272 1093 l 381 1213 q 408 1233 394 1226 q 440 1240 421 1240 l 458 1240 q 491 1233 478 1240 q 517 1213 504 1226 l 617 1103 q 628 1088 625 1094 q 632 1074 632 1082 q 624 1057 632 1065 q 601 1049 615 1049 q 580 1055 592 1049 q 553 1071 568 1061 l 432 1154 l 465 1157 m 629 1215 q 613 1218 621 1215 q 599 1225 606 1221 l 461 1294 q 426 1347 426 1314 q 442 1384 426 1369 q 479 1399 458 1399 q 506 1392 493 1399 q 528 1378 518 1386 l 650 1278 q 663 1264 658 1271 q 667 1249 667 1257 q 657 1225 667 1235 q 629 1215 647 1215 z "},"Ẩ":{"ha":894,"x_min":31,"x_max":864,"o":"m 458 828 l 132 33 q 113 7 126 17 q 83 -3 99 -3 q 44 11 57 -3 q 32 44 32 25 q 35 65 31 54 l 394 940 q 416 969 401 960 q 449 976 431 978 q 481 967 467 976 q 501 940 496 957 l 860 74 q 864 51 864 63 q 847 12 864 26 q 810 -3 831 -3 q 779 7 793 -3 q 758 35 765 17 l 428 829 l 458 828 m 201 260 l 249 368 l 661 368 l 682 260 l 201 260 m 465 1157 l 344 1069 q 318 1053 329 1060 q 296 1047 307 1047 q 275 1056 283 1047 q 267 1074 267 1064 q 269 1087 267 1081 q 281 1103 272 1093 l 381 1213 q 408 1233 394 1226 q 440 1240 421 1240 l 458 1240 q 491 1233 478 1240 q 517 1213 504 1226 l 617 1103 q 628 1088 625 1094 q 632 1074 632 1082 q 624 1057 632 1065 q 601 1049 615 1049 q 580 1055 592 1049 q 553 1071 568 1061 l 432 1154 l 465 1157 m 558 1339 q 605 1370 579 1358 q 664 1382 631 1382 q 739 1364 713 1382 q 776 1321 765 1346 q 786 1274 786 1296 q 776 1231 786 1250 q 747 1192 765 1213 q 731 1171 738 1181 q 724 1150 725 1161 q 713 1130 724 1136 q 685 1124 701 1124 q 663 1131 672 1124 q 654 1151 654 1138 q 658 1178 654 1164 q 675 1206 663 1192 q 701 1238 690 1224 q 713 1267 713 1253 q 698 1297 713 1286 q 663 1308 683 1308 q 629 1300 644 1308 q 601 1283 614 1292 q 577 1274 590 1275 q 551 1286 564 1272 q 542 1315 539 1300 q 558 1339 546 1329 z "},"Ẫ":{"ha":894,"x_min":31,"x_max":864,"o":"m 458 828 l 132 33 q 113 7 126 17 q 83 -3 99 -3 q 44 11 57 -3 q 32 44 32 25 q 35 65 31 54 l 394 940 q 416 969 401 960 q 449 976 431 978 q 481 967 467 976 q 501 940 496 957 l 860 74 q 864 51 864 63 q 847 12 864 26 q 810 -3 831 -3 q 779 7 793 -3 q 758 35 765 17 l 428 829 l 458 828 m 201 260 l 249 368 l 661 368 l 682 260 l 201 260 m 465 1131 l 344 1043 q 318 1027 329 1033 q 296 1021 307 1021 q 275 1029 283 1021 q 267 1047 267 1038 q 269 1060 267 1054 q 281 1076 272 1067 l 381 1186 q 408 1207 394 1200 q 440 1214 421 1214 l 458 1214 q 491 1207 478 1214 q 517 1186 504 1200 l 617 1076 q 628 1062 625 1068 q 632 1047 632 1056 q 624 1031 632 1039 q 601 1022 615 1022 q 580 1028 592 1022 q 553 1044 568 1035 l 432 1128 l 465 1131 m 268 1219 q 233 1240 246 1219 q 222 1293 219 1260 q 264 1368 228 1339 q 354 1397 300 1397 q 428 1376 392 1397 q 499 1335 465 1356 q 556 1314 532 1314 q 585 1326 574 1314 q 596 1360 596 1339 q 603 1394 592 1382 q 632 1407 614 1407 q 669 1387 657 1407 q 681 1335 682 1367 q 662 1282 676 1307 q 622 1242 647 1257 q 561 1228 596 1228 q 483 1248 522 1228 q 409 1288 443 1268 q 350 1308 375 1308 q 321 1297 333 1308 q 306 1264 308 1286 q 297 1231 308 1243 q 268 1219 285 1219 z "},"Ȁ":{"ha":894,"x_min":31,"x_max":864,"o":"m 458 828 l 132 33 q 113 7 126 17 q 83 -3 99 -3 q 44 11 57 -3 q 32 44 32 25 q 35 65 31 54 l 394 940 q 416 969 401 960 q 449 976 431 978 q 481 967 467 976 q 501 940 496 957 l 860 74 q 864 51 864 63 q 847 12 864 26 q 810 -3 831 -3 q 779 7 793 -3 q 758 35 765 17 l 428 829 l 458 828 m 201 260 l 249 368 l 661 368 l 682 260 l 201 260 m 358 1047 q 342 1050 350 1047 q 328 1057 335 1053 l 190 1126 q 156 1179 156 1146 q 172 1216 156 1201 q 208 1231 188 1231 q 235 1224 222 1231 q 257 1210 247 1218 l 379 1110 q 392 1096 388 1103 q 396 1081 396 1089 q 386 1057 396 1067 q 358 1047 376 1047 m 608 1051 q 594 1054 601 1051 q 578 1061 586 1057 l 442 1131 q 406 1183 406 1150 q 422 1220 406 1206 q 458 1235 439 1235 q 486 1228 474 1235 q 508 1214 499 1222 l 631 1114 q 642 1100 639 1107 q 646 1085 646 1093 q 636 1061 646 1071 q 608 1051 626 1051 z "},"Ä":{"ha":894,"x_min":31,"x_max":864,"o":"m 458 828 l 132 33 q 113 7 126 17 q 83 -3 99 -3 q 44 11 57 -3 q 32 44 32 25 q 35 65 31 54 l 394 940 q 416 969 401 960 q 449 976 431 978 q 481 967 467 976 q 501 940 496 957 l 860 74 q 864 51 864 63 q 847 12 864 26 q 810 -3 831 -3 q 779 7 793 -3 q 758 35 765 17 l 428 829 l 458 828 m 201 260 l 249 368 l 661 368 l 682 260 l 201 260 m 575 1069 q 525 1084 542 1069 q 508 1129 508 1099 l 508 1147 q 526 1193 508 1179 q 575 1207 543 1207 q 625 1192 608 1207 q 642 1147 642 1178 l 642 1129 q 625 1084 642 1099 q 575 1069 608 1069 m 324 1069 q 274 1084 290 1069 q 257 1129 257 1099 l 257 1147 q 275 1193 257 1179 q 325 1207 293 1207 q 374 1192 357 1207 q 390 1147 390 1178 l 390 1129 q 374 1084 390 1099 q 324 1069 357 1069 z "},"Ạ":{"ha":894,"x_min":31,"x_max":864,"o":"m 458 828 l 132 33 q 113 7 126 17 q 83 -3 99 -3 q 44 11 57 -3 q 32 44 32 25 q 35 65 31 54 l 394 940 q 416 969 401 960 q 449 976 431 978 q 481 967 467 976 q 501 940 496 957 l 860 74 q 864 51 864 63 q 847 12 864 26 q 810 -3 831 -3 q 779 7 793 -3 q 758 35 765 17 l 428 829 l 458 828 m 201 260 l 249 368 l 661 368 l 682 260 l 201 260 m 449 -197 q 399 -183 415 -197 q 382 -137 382 -168 l 382 -118 q 400 -73 382 -87 q 450 -58 418 -58 q 501 -73 485 -58 q 518 -118 518 -87 l 518 -137 q 501 -183 518 -168 q 449 -197 483 -197 z "},"À":{"ha":894,"x_min":31,"x_max":864,"o":"m 458 828 l 132 33 q 113 7 126 17 q 83 -3 99 -3 q 44 11 57 -3 q 32 44 32 25 q 35 65 31 54 l 394 940 q 416 969 401 960 q 449 976 431 978 q 481 967 467 976 q 501 940 496 957 l 860 74 q 864 51 864 63 q 847 12 864 26 q 810 -3 831 -3 q 779 7 793 -3 q 758 35 765 17 l 428 829 l 458 828 m 201 260 l 249 368 l 661 368 l 682 260 l 201 260 m 449 1035 q 433 1038 440 1035 q 418 1044 425 1040 l 281 1114 q 246 1167 246 1133 q 262 1203 246 1189 q 299 1218 278 1218 q 325 1212 313 1218 q 347 1197 338 1206 l 469 1097 q 482 1083 478 1090 q 486 1068 486 1076 q 476 1044 486 1054 q 449 1035 467 1035 z "},"Ả":{"ha":894,"x_min":31,"x_max":864,"o":"m 458 828 l 132 33 q 113 7 126 17 q 83 -3 99 -3 q 44 11 57 -3 q 32 44 32 25 q 35 65 31 54 l 394 940 q 416 969 401 960 q 449 976 431 978 q 481 967 467 976 q 501 940 496 957 l 860 74 q 864 51 864 63 q 847 12 864 26 q 810 -3 831 -3 q 779 7 793 -3 q 758 35 765 17 l 428 829 l 458 828 m 201 260 l 249 368 l 661 368 l 682 260 l 201 260 m 335 1265 q 381 1297 356 1285 q 440 1308 407 1308 q 515 1290 489 1308 q 552 1247 542 1272 q 563 1200 563 1222 q 552 1158 563 1176 q 524 1118 542 1139 q 508 1097 514 1107 q 500 1076 501 1088 q 489 1056 500 1063 q 461 1050 478 1050 q 440 1057 449 1050 q 431 1078 431 1064 q 435 1104 431 1090 q 451 1132 439 1118 q 478 1165 467 1150 q 489 1193 489 1179 q 474 1224 489 1213 q 439 1235 460 1235 q 406 1226 421 1235 q 378 1210 390 1218 q 353 1200 367 1201 q 328 1213 340 1199 q 319 1241 315 1226 q 335 1265 322 1256 z "},"Ȃ":{"ha":894,"x_min":31,"x_max":864,"o":"m 458 828 l 132 33 q 113 7 126 17 q 83 -3 99 -3 q 44 11 57 -3 q 32 44 32 25 q 35 65 31 54 l 394 940 q 416 969 401 960 q 449 976 431 978 q 481 967 467 976 q 501 940 496 957 l 860 74 q 864 51 864 63 q 847 12 864 26 q 810 -3 831 -3 q 779 7 793 -3 q 758 35 765 17 l 428 829 l 458 828 m 201 260 l 249 368 l 661 368 l 682 260 l 201 260 m 449 1231 q 539 1214 499 1231 q 607 1167 579 1197 q 643 1097 635 1136 q 640 1060 650 1075 q 610 1046 629 1046 q 576 1056 588 1046 q 553 1085 564 1067 q 515 1130 542 1114 q 449 1146 488 1146 q 383 1130 411 1146 q 344 1085 356 1114 q 322 1056 335 1067 q 289 1046 310 1046 q 258 1060 269 1046 q 254 1096 247 1074 q 291 1165 264 1135 q 359 1213 318 1196 q 449 1231 400 1231 z "},"Ā":{"ha":894,"x_min":31,"x_max":864,"o":"m 458 828 l 132 33 q 113 7 126 17 q 83 -3 99 -3 q 44 11 57 -3 q 32 44 32 25 q 35 65 31 54 l 394 940 q 416 969 401 960 q 449 976 431 978 q 481 967 467 976 q 501 940 496 957 l 860 74 q 864 51 864 63 q 847 12 864 26 q 810 -3 831 -3 q 779 7 793 -3 q 758 35 765 17 l 428 829 l 458 828 m 201 260 l 249 368 l 661 368 l 682 260 l 201 260 m 278 1078 q 228 1121 228 1078 q 278 1165 228 1165 l 626 1165 q 676 1121 676 1165 q 626 1078 676 1078 l 278 1078 z "},"Ą":{"ha":897,"x_min":32,"x_max":894,"o":"m 764 -272 q 663 -237 707 -272 q 619 -133 619 -201 q 638 -57 619 -89 q 683 -2 656 -25 q 744 36 711 21 q 807 60 776 51 l 810 29 l 767 15 l 428 829 l 458 828 l 132 33 q 113 7 126 17 q 83 -3 99 -3 q 44 9 56 -3 q 32 43 33 21 q 36 67 32 56 l 394 940 q 416 969 401 960 q 449 976 431 978 q 481 967 467 976 q 501 940 496 957 l 867 56 q 871 38 871 46 q 863 14 871 24 q 838 -1 856 4 q 752 -45 788 -14 q 717 -114 717 -76 q 735 -165 717 -147 q 775 -182 753 -182 q 811 -165 800 -182 q 832 -148 821 -153 q 853 -143 843 -143 q 883 -155 871 -143 q 894 -186 894 -167 q 876 -226 894 -206 q 827 -259 857 -246 q 764 -272 797 -272 m 214 260 l 249 368 l 661 368 l 682 260 l 214 260 z "},"Å":{"ha":897,"x_min":31,"x_max":864,"o":"m 450 907 q 377 926 411 907 q 323 978 343 946 q 303 1049 303 1010 q 323 1120 303 1088 q 377 1172 343 1153 q 450 1190 411 1190 q 522 1172 489 1190 q 576 1120 556 1153 q 597 1049 597 1088 q 576 978 597 1010 q 522 926 556 946 q 450 907 489 907 m 450 978 q 502 999 481 978 q 524 1049 524 1019 q 501 1100 524 1081 q 450 1119 479 1119 q 398 1100 419 1119 q 376 1049 376 1081 q 398 999 376 1019 q 450 978 419 978 m 458 828 l 132 33 q 113 7 126 17 q 83 -3 99 -3 q 44 11 57 -3 q 32 44 32 25 q 35 65 31 54 l 394 940 q 416 969 401 960 q 449 976 431 978 q 481 967 467 976 q 501 940 496 957 l 860 74 q 864 51 864 63 q 847 12 864 26 q 810 -3 831 -3 q 779 7 793 -3 q 758 35 765 17 l 428 829 l 458 828 m 201 260 l 249 368 l 661 368 l 682 260 l 201 260 z "},"Ǻ":{"ha":897,"x_min":31,"x_max":864,"o":"m 450 907 q 377 926 411 907 q 323 978 343 946 q 303 1049 303 1010 q 323 1120 303 1088 q 377 1172 343 1153 q 450 1190 411 1190 q 522 1172 489 1190 q 576 1120 556 1153 q 597 1049 597 1088 q 576 978 597 1010 q 522 926 556 946 q 450 907 489 907 m 450 978 q 502 999 481 978 q 524 1049 524 1019 q 501 1100 524 1081 q 450 1119 479 1119 q 398 1100 419 1119 q 376 1049 376 1081 q 398 999 376 1019 q 450 978 419 978 m 458 828 l 132 33 q 113 7 126 17 q 83 -3 99 -3 q 44 11 57 -3 q 32 44 32 25 q 35 65 31 54 l 394 940 q 416 969 401 960 q 449 976 431 978 q 481 967 467 976 q 501 940 496 957 l 860 74 q 864 51 864 63 q 847 12 864 26 q 810 -3 831 -3 q 779 7 793 -3 q 758 35 765 17 l 428 829 l 458 828 m 201 260 l 249 368 l 661 368 l 682 260 l 201 260 m 454 1247 q 426 1257 436 1247 q 417 1281 417 1267 q 421 1296 417 1289 q 432 1310 425 1303 l 554 1410 q 578 1424 565 1418 q 604 1431 590 1431 q 640 1416 624 1431 q 657 1379 657 1401 q 648 1349 657 1363 q 621 1326 639 1335 l 485 1257 q 469 1250 478 1253 q 454 1247 461 1247 z "},"Ã":{"ha":894,"x_min":31,"x_max":864,"o":"m 458 828 l 132 33 q 113 7 126 17 q 83 -3 99 -3 q 44 11 57 -3 q 32 44 32 25 q 35 65 31 54 l 394 940 q 416 969 401 960 q 449 976 431 978 q 481 967 467 976 q 501 940 496 957 l 860 74 q 864 51 864 63 q 847 12 864 26 q 810 -3 831 -3 q 779 7 793 -3 q 758 35 765 17 l 428 829 l 458 828 m 201 260 l 249 368 l 661 368 l 682 260 l 201 260 m 268 1054 q 233 1074 246 1054 q 222 1128 219 1094 q 264 1203 228 1174 q 354 1232 300 1232 q 428 1211 392 1232 q 499 1169 465 1190 q 556 1149 532 1149 q 585 1161 574 1149 q 596 1194 596 1174 q 603 1229 592 1217 q 632 1242 614 1242 q 669 1222 657 1242 q 681 1169 682 1201 q 662 1117 676 1142 q 622 1077 647 1092 q 561 1063 596 1063 q 483 1083 522 1063 q 409 1123 443 1103 q 350 1143 375 1143 q 321 1132 333 1143 q 306 1099 308 1121 q 297 1066 308 1078 q 268 1054 285 1054 z "},"Æ":{"ha":1261,"x_min":8,"x_max":1199,"o":"m 254 329 l 636 329 l 613 292 l 613 813 l 636 793 l 103 19 q 61 -4 86 -4 q 27 10 43 -4 q 10 47 11 24 q 21 83 8 67 l 625 949 q 648 967 635 963 q 676 972 661 972 l 1142 972 q 1182 957 1165 972 q 1199 918 1199 942 q 1182 880 1199 894 q 1142 865 1165 865 l 715 865 l 726 878 l 726 529 l 717 550 l 1079 550 q 1119 534 1103 550 q 1136 494 1136 518 q 1119 456 1136 471 q 1079 442 1103 442 l 714 442 l 726 458 l 726 83 l 715 108 l 1142 108 q 1182 92 1165 108 q 1199 54 1199 75 q 1182 15 1199 31 q 1142 0 1165 0 l 668 0 q 628 17 644 0 q 613 57 613 33 l 613 242 l 642 222 l 186 222 l 254 329 z "},"Ǽ":{"ha":1261,"x_min":8,"x_max":1199,"o":"m 254 329 l 636 329 l 613 292 l 613 813 l 636 793 l 103 19 q 61 -4 86 -4 q 27 10 43 -4 q 10 47 11 24 q 21 83 8 67 l 625 949 q 648 967 635 963 q 676 972 661 972 l 1142 972 q 1182 957 1165 972 q 1199 918 1199 942 q 1182 880 1199 894 q 1142 865 1165 865 l 715 865 l 726 878 l 726 529 l 717 550 l 1079 550 q 1119 534 1103 550 q 1136 494 1136 518 q 1119 456 1136 471 q 1079 442 1103 442 l 714 442 l 726 458 l 726 83 l 715 108 l 1142 108 q 1182 92 1165 108 q 1199 54 1199 75 q 1182 15 1199 31 q 1142 0 1165 0 l 668 0 q 628 17 644 0 q 613 57 613 33 l 613 242 l 642 222 l 186 222 l 254 329 m 858 1032 q 831 1042 840 1032 q 821 1065 821 1051 q 825 1081 821 1074 q 836 1094 829 1088 l 958 1194 q 982 1209 969 1203 q 1008 1215 994 1215 q 1044 1201 1028 1215 q 1061 1164 1061 1186 q 1052 1133 1061 1147 q 1025 1111 1043 1119 l 889 1042 q 874 1035 882 1038 q 858 1032 865 1032 z "},"B":{"ha":907,"x_min":122,"x_max":844,"o":"m 540 972 q 728 909 663 972 q 794 731 794 846 q 767 618 794 669 q 685 536 739 567 q 554 503 632 506 l 551 542 q 651 528 600 542 q 747 483 703 514 q 817 403 790 453 q 844 279 844 353 q 818 147 844 200 q 748 60 792 93 q 651 14 704 28 q 543 0 597 0 l 178 0 q 138 17 154 0 q 122 57 122 33 l 122 917 q 138 956 122 940 q 178 972 154 972 l 540 972 m 524 863 l 225 863 l 242 888 l 242 542 l 226 560 l 526 560 q 631 599 588 560 q 675 717 675 639 q 635 824 675 786 q 524 863 594 863 m 535 449 l 232 449 l 242 458 l 242 96 l 231 108 l 539 108 q 673 150 621 108 q 725 279 725 192 q 697 384 725 347 q 626 435 669 421 q 535 449 582 449 z "},"C":{"ha":896,"x_min":63,"x_max":854,"o":"m 822 908 q 849 871 846 896 q 836 825 853 846 q 804 806 824 807 q 765 814 785 804 q 667 858 719 842 q 556 874 614 874 q 406 845 474 874 q 288 765 338 817 q 210 643 238 714 q 182 486 182 572 q 211 322 182 394 q 291 199 240 250 q 409 122 342 149 q 556 96 476 96 q 665 111 613 96 q 765 156 718 126 q 804 163 785 165 q 838 143 824 160 q 850 97 854 121 q 824 61 846 72 q 744 23 789 40 q 652 -4 700 6 q 556 -14 604 -14 q 367 21 456 -14 q 210 121 278 56 q 102 278 142 186 q 63 486 63 371 q 100 685 63 594 q 205 842 138 775 q 362 946 272 908 q 556 983 451 983 q 697 964 628 983 q 822 908 765 944 z "},"Ć":{"ha":896,"x_min":63,"x_max":854,"o":"m 822 908 q 849 871 846 896 q 836 825 853 846 q 804 806 824 807 q 765 814 785 804 q 667 858 719 842 q 556 874 614 874 q 406 845 474 874 q 288 765 338 817 q 210 643 238 714 q 182 486 182 572 q 211 322 182 394 q 291 199 240 250 q 409 122 342 149 q 556 96 476 96 q 665 111 613 96 q 765 156 718 126 q 804 163 785 165 q 838 143 824 160 q 850 97 854 121 q 824 61 846 72 q 744 23 789 40 q 652 -4 700 6 q 556 -14 604 -14 q 367 21 456 -14 q 210 121 278 56 q 102 278 142 186 q 63 486 63 371 q 100 685 63 594 q 205 842 138 775 q 362 946 272 908 q 556 983 451 983 q 697 964 628 983 q 822 908 765 944 m 535 1032 q 507 1042 517 1032 q 497 1065 497 1051 q 501 1081 497 1074 q 513 1094 506 1088 l 635 1194 q 658 1209 646 1203 q 685 1215 671 1215 q 721 1201 704 1215 q 738 1164 738 1186 q 728 1133 738 1147 q 701 1111 719 1119 l 565 1042 q 550 1035 558 1038 q 535 1032 542 1032 z "},"Č":{"ha":896,"x_min":63,"x_max":854,"o":"m 822 908 q 849 871 846 896 q 836 825 853 846 q 804 806 824 807 q 765 814 785 804 q 667 858 719 842 q 556 874 614 874 q 406 845 474 874 q 288 765 338 817 q 210 643 238 714 q 182 486 182 572 q 211 322 182 394 q 291 199 240 250 q 409 122 342 149 q 556 96 476 96 q 665 111 613 96 q 765 156 718 126 q 804 163 785 165 q 838 143 824 160 q 850 97 854 121 q 824 61 846 72 q 744 23 789 40 q 652 -4 700 6 q 556 -14 604 -14 q 367 21 456 -14 q 210 121 278 56 q 102 278 142 186 q 63 486 63 371 q 100 685 63 594 q 205 842 138 775 q 362 946 272 908 q 556 983 451 983 q 697 964 628 983 q 822 908 765 944 m 514 1124 l 635 1214 q 662 1230 650 1225 q 683 1235 674 1235 q 704 1226 696 1235 q 713 1208 713 1218 q 710 1195 713 1201 q 699 1179 707 1189 l 599 1069 q 572 1049 586 1056 q 539 1042 558 1042 l 521 1042 q 488 1049 501 1042 q 463 1069 475 1056 l 363 1179 q 351 1195 354 1189 q 347 1208 347 1201 q 356 1226 347 1218 q 378 1233 365 1233 q 426 1213 396 1233 l 547 1126 l 514 1124 z "},"Ç":{"ha":896,"x_min":63,"x_max":854,"o":"m 822 908 q 849 871 846 896 q 836 825 853 846 q 804 806 824 807 q 765 814 785 804 q 667 858 719 842 q 556 874 614 874 q 406 845 474 874 q 288 765 338 817 q 210 643 238 714 q 182 486 182 572 q 211 322 182 394 q 291 199 240 250 q 409 122 342 149 q 556 96 476 96 q 665 111 613 96 q 765 156 718 126 q 804 163 785 165 q 838 143 824 160 q 850 97 854 121 q 824 61 846 72 q 744 23 789 40 q 652 -4 700 6 q 556 -14 604 -14 q 367 21 456 -14 q 210 121 278 56 q 102 278 142 186 q 63 486 63 371 q 100 685 63 594 q 205 842 138 775 q 362 946 272 908 q 556 983 451 983 q 697 964 628 983 q 822 908 765 944 m 467 -203 q 439 -197 456 -203 q 410 -178 422 -190 q 397 -151 397 -167 q 408 -121 397 -135 l 525 28 l 594 28 l 510 -169 q 467 -203 496 -203 z "},"Ḉ":{"ha":896,"x_min":63,"x_max":854,"o":"m 822 908 q 849 871 846 896 q 836 825 853 846 q 804 806 824 807 q 765 814 785 804 q 667 858 719 842 q 556 874 614 874 q 406 845 474 874 q 288 765 338 817 q 210 643 238 714 q 182 486 182 572 q 211 322 182 394 q 291 199 240 250 q 409 122 342 149 q 556 96 476 96 q 665 111 613 96 q 765 156 718 126 q 804 163 785 165 q 838 143 824 160 q 850 97 854 121 q 824 61 846 72 q 744 23 789 40 q 652 -4 700 6 q 556 -14 604 -14 q 367 21 456 -14 q 210 121 278 56 q 102 278 142 186 q 63 486 63 371 q 100 685 63 594 q 205 842 138 775 q 362 946 272 908 q 556 983 451 983 q 697 964 628 983 q 822 908 765 944 m 467 -203 q 439 -197 456 -203 q 410 -178 422 -190 q 397 -151 397 -167 q 408 -121 397 -135 l 525 28 l 594 28 l 510 -169 q 467 -203 496 -203 m 535 1032 q 507 1042 517 1032 q 497 1065 497 1051 q 501 1081 497 1074 q 513 1094 506 1088 l 635 1194 q 658 1209 646 1203 q 685 1215 671 1215 q 721 1201 704 1215 q 738 1164 738 1186 q 728 1133 738 1147 q 701 1111 719 1119 l 565 1042 q 550 1035 558 1038 q 535 1032 542 1032 z "},"Ĉ":{"ha":896,"x_min":63,"x_max":854,"o":"m 822 908 q 849 871 846 896 q 836 825 853 846 q 804 806 824 807 q 765 814 785 804 q 667 858 719 842 q 556 874 614 874 q 406 845 474 874 q 288 765 338 817 q 210 643 238 714 q 182 486 182 572 q 211 322 182 394 q 291 199 240 250 q 409 122 342 149 q 556 96 476 96 q 665 111 613 96 q 765 156 718 126 q 804 163 785 165 q 838 143 824 160 q 850 97 854 121 q 824 61 846 72 q 744 23 789 40 q 652 -4 700 6 q 556 -14 604 -14 q 367 21 456 -14 q 210 121 278 56 q 102 278 142 186 q 63 486 63 371 q 100 685 63 594 q 205 842 138 775 q 362 946 272 908 q 556 983 451 983 q 697 964 628 983 q 822 908 765 944 m 546 1157 l 425 1069 q 399 1053 410 1060 q 376 1047 388 1047 q 356 1056 364 1047 q 347 1074 347 1064 q 350 1087 347 1081 q 361 1103 353 1093 l 461 1213 q 488 1233 475 1226 q 521 1240 501 1240 l 539 1240 q 572 1233 558 1240 q 597 1213 585 1226 l 697 1103 q 709 1088 706 1094 q 713 1074 713 1082 q 704 1057 713 1065 q 682 1049 696 1049 q 660 1055 672 1049 q 633 1071 649 1061 l 513 1154 l 546 1157 z "},"Ċ":{"ha":896,"x_min":63,"x_max":854,"o":"m 822 908 q 849 871 846 896 q 836 825 853 846 q 804 806 824 807 q 765 814 785 804 q 667 858 719 842 q 556 874 614 874 q 406 845 474 874 q 288 765 338 817 q 210 643 238 714 q 182 486 182 572 q 211 322 182 394 q 291 199 240 250 q 409 122 342 149 q 556 96 476 96 q 665 111 613 96 q 765 156 718 126 q 804 163 785 165 q 838 143 824 160 q 850 97 854 121 q 824 61 846 72 q 744 23 789 40 q 652 -4 700 6 q 556 -14 604 -14 q 367 21 456 -14 q 210 121 278 56 q 102 278 142 186 q 63 486 63 371 q 100 685 63 594 q 205 842 138 775 q 362 946 272 908 q 556 983 451 983 q 697 964 628 983 q 822 908 765 944 m 515 1056 q 465 1070 482 1056 q 449 1115 449 1085 l 449 1135 q 467 1180 449 1165 q 517 1194 485 1194 q 568 1180 551 1194 q 585 1135 585 1165 l 585 1115 q 567 1070 585 1085 q 515 1056 550 1056 z "},"D":{"ha":997,"x_min":122,"x_max":935,"o":"m 525 972 q 703 934 626 972 q 832 828 781 896 q 909 672 883 760 q 935 486 935 583 q 889 242 935 353 q 753 66 843 132 q 525 0 663 0 l 178 0 q 138 17 154 0 q 122 57 122 33 l 122 917 q 138 956 122 940 q 178 972 154 972 l 525 972 m 511 108 q 685 160 618 108 q 784 297 753 211 q 815 486 815 383 q 798 630 815 561 q 744 751 781 699 q 649 835 707 804 q 511 865 592 865 l 226 865 l 238 876 l 238 94 l 229 108 l 511 108 z "},"Ǆ":{"ha":1893,"x_min":122,"x_max":1835,"o":"m 525 972 q 703 934 626 972 q 832 828 781 896 q 909 672 883 760 q 935 486 935 583 q 889 242 935 353 q 753 66 843 132 q 525 0 663 0 l 178 0 q 138 17 154 0 q 122 57 122 33 l 122 917 q 138 956 122 940 q 178 972 154 972 l 525 972 m 511 108 q 685 160 618 108 q 784 297 753 211 q 815 486 815 383 q 798 630 815 561 q 744 751 781 699 q 649 835 707 804 q 511 865 592 865 l 226 865 l 238 876 l 238 94 l 229 108 l 511 108 m 1774 972 q 1817 957 1799 972 q 1835 918 1835 942 q 1822 883 1835 900 l 1225 97 l 1217 107 l 1768 107 q 1808 92 1792 107 q 1825 54 1825 76 q 1808 15 1825 31 q 1768 0 1792 0 l 1122 0 q 1081 18 1097 0 q 1064 56 1064 36 q 1076 90 1064 74 l 1672 874 l 1683 867 l 1164 867 q 1124 882 1140 867 q 1107 919 1107 897 q 1124 958 1107 943 q 1164 972 1140 972 l 1774 972 m 1429 1124 l 1550 1214 q 1577 1230 1565 1225 q 1599 1235 1589 1235 q 1619 1226 1611 1235 q 1628 1208 1628 1218 q 1625 1195 1628 1201 q 1614 1179 1622 1189 l 1514 1069 q 1488 1049 1501 1056 q 1454 1042 1474 1042 l 1436 1042 q 1403 1049 1417 1042 q 1378 1069 1390 1056 l 1278 1179 q 1266 1195 1269 1189 q 1263 1208 1263 1201 q 1272 1226 1263 1218 q 1293 1233 1281 1233 q 1342 1213 1311 1233 l 1463 1126 l 1429 1124 z "},"Ð":{"ha":997,"x_min":14,"x_max":935,"o":"m 525 972 q 703 934 626 972 q 832 828 781 896 q 909 672 883 760 q 935 486 935 583 q 889 242 935 353 q 753 66 843 132 q 525 0 663 0 l 178 0 q 138 17 154 0 q 122 57 122 33 l 122 917 q 138 956 122 940 q 178 972 154 972 l 525 972 m 511 108 q 685 160 618 108 q 784 297 753 211 q 815 486 815 383 q 798 630 815 561 q 744 751 781 699 q 649 835 707 804 q 511 865 592 865 l 226 865 l 238 876 l 238 94 l 229 108 l 511 108 m 71 438 q 30 451 46 438 q 14 489 14 465 q 30 526 14 511 q 71 540 46 540 l 303 540 q 343 526 328 540 q 358 489 358 511 q 343 451 358 465 q 303 438 328 438 l 71 438 z "},"Ď":{"ha":997,"x_min":122,"x_max":935,"o":"m 525 972 q 703 934 626 972 q 832 828 781 896 q 909 672 883 760 q 935 486 935 583 q 889 242 935 353 q 753 66 843 132 q 525 0 663 0 l 178 0 q 138 17 154 0 q 122 57 122 33 l 122 917 q 138 956 122 940 q 178 972 154 972 l 525 972 m 511 108 q 685 160 618 108 q 784 297 753 211 q 815 486 815 383 q 798 630 815 561 q 744 751 781 699 q 649 835 707 804 q 511 865 592 865 l 226 865 l 238 876 l 238 94 l 229 108 l 511 108 m 415 1124 l 536 1214 q 563 1230 551 1225 q 585 1235 575 1235 q 606 1226 597 1235 q 614 1208 614 1218 q 611 1195 614 1201 q 600 1179 608 1189 l 500 1069 q 474 1049 488 1056 q 440 1042 460 1042 l 422 1042 q 390 1049 403 1042 q 364 1069 376 1056 l 264 1179 q 252 1195 256 1189 q 249 1208 249 1201 q 258 1226 249 1218 q 279 1233 267 1233 q 328 1213 297 1233 l 449 1126 l 415 1124 z "},"Ḓ":{"ha":997,"x_min":122,"x_max":935,"o":"m 525 972 q 703 934 626 972 q 832 828 781 896 q 909 672 883 760 q 935 486 935 583 q 889 242 935 353 q 753 66 843 132 q 525 0 663 0 l 178 0 q 138 17 154 0 q 122 57 122 33 l 122 917 q 138 956 122 940 q 178 972 154 972 l 525 972 m 511 108 q 685 160 618 108 q 784 297 753 211 q 815 486 815 383 q 798 630 815 561 q 744 751 781 699 q 649 835 707 804 q 511 865 592 865 l 226 865 l 238 876 l 238 94 l 229 108 l 511 108 m 451 -157 l 335 -254 q 313 -271 322 -264 q 288 -278 304 -278 q 267 -269 275 -278 q 258 -251 258 -261 q 261 -237 258 -244 q 271 -222 264 -231 l 361 -119 q 421 -90 383 -90 l 453 -90 q 484 -97 472 -90 q 507 -119 496 -103 l 593 -221 q 603 -237 601 -231 q 606 -251 606 -243 q 598 -269 606 -261 q 576 -276 590 -276 q 552 -270 561 -276 q 529 -253 543 -264 l 408 -153 l 451 -157 z "},"Đ":{"ha":997,"x_min":14,"x_max":935,"o":"m 525 972 q 703 934 626 972 q 832 828 781 896 q 909 672 883 760 q 935 486 935 583 q 889 242 935 353 q 753 66 843 132 q 525 0 663 0 l 178 0 q 138 17 154 0 q 122 57 122 33 l 122 917 q 138 956 122 940 q 178 972 154 972 l 525 972 m 511 108 q 685 160 618 108 q 784 297 753 211 q 815 486 815 383 q 798 630 815 561 q 744 751 781 699 q 649 835 707 804 q 511 865 592 865 l 226 865 l 238 876 l 238 94 l 229 108 l 511 108 m 71 438 q 30 451 46 438 q 14 489 14 465 q 30 526 14 511 q 71 540 46 540 l 303 540 q 343 526 328 540 q 358 489 358 511 q 343 451 358 465 q 303 438 328 438 l 71 438 z "},"Ḍ":{"ha":997,"x_min":122,"x_max":935,"o":"m 525 972 q 703 934 626 972 q 832 828 781 896 q 909 672 883 760 q 935 486 935 583 q 889 242 935 353 q 753 66 843 132 q 525 0 663 0 l 178 0 q 138 17 154 0 q 122 57 122 33 l 122 917 q 138 956 122 940 q 178 972 154 972 l 525 972 m 511 108 q 685 160 618 108 q 784 297 753 211 q 815 486 815 383 q 798 630 815 561 q 744 751 781 699 q 649 835 707 804 q 511 865 592 865 l 226 865 l 238 876 l 238 94 l 229 108 l 511 108 m 432 -197 q 382 -183 399 -197 q 365 -137 365 -168 l 365 -118 q 383 -73 365 -87 q 433 -58 401 -58 q 485 -73 468 -58 q 501 -118 501 -87 l 501 -137 q 484 -183 501 -168 q 432 -197 467 -197 z "},"Ḏ":{"ha":997,"x_min":122,"x_max":935,"o":"m 525 972 q 703 934 626 972 q 832 828 781 896 q 909 672 883 760 q 935 486 935 583 q 889 242 935 353 q 753 66 843 132 q 525 0 663 0 l 178 0 q 138 17 154 0 q 122 57 122 33 l 122 917 q 138 956 122 940 q 178 972 154 972 l 525 972 m 511 108 q 685 160 618 108 q 784 297 753 211 q 815 486 815 383 q 798 630 815 561 q 744 751 781 699 q 649 835 707 804 q 511 865 592 865 l 226 865 l 238 876 l 238 94 l 229 108 l 511 108 m 290 -186 q 242 -143 242 -186 q 290 -99 242 -99 l 597 -99 q 646 -143 646 -99 q 597 -186 646 -186 l 290 -186 z "},"ǲ":{"ha":1663,"x_min":122,"x_max":1608,"o":"m 525 972 q 703 934 626 972 q 832 828 781 896 q 909 672 883 760 q 935 486 935 583 q 889 242 935 353 q 753 66 843 132 q 525 0 663 0 l 178 0 q 138 17 154 0 q 122 57 122 33 l 122 917 q 138 956 122 940 q 178 972 154 972 l 525 972 m 511 108 q 685 160 618 108 q 784 297 753 211 q 815 486 815 383 q 798 630 815 561 q 744 751 781 699 q 649 835 707 804 q 511 865 592 865 l 226 865 l 238 876 l 238 94 l 229 108 l 511 108 m 1554 103 q 1592 88 1576 103 q 1607 51 1607 74 q 1592 15 1607 31 q 1554 0 1576 0 l 1104 0 q 1065 18 1079 0 q 1051 51 1051 36 q 1056 75 1053 65 q 1068 97 1058 85 l 1465 635 l 1467 619 l 1131 619 q 1093 635 1108 619 q 1078 672 1078 650 q 1093 708 1078 693 q 1131 722 1108 722 l 1557 722 q 1594 706 1579 722 q 1608 667 1608 690 q 1604 648 1607 657 q 1593 626 1601 639 l 1200 96 l 1190 103 l 1554 103 z "},"ǅ":{"ha":1664,"x_min":122,"x_max":1610,"o":"m 525 972 q 703 934 626 972 q 832 828 781 896 q 909 672 883 760 q 935 486 935 583 q 889 242 935 353 q 753 66 843 132 q 525 0 663 0 l 178 0 q 138 17 154 0 q 122 57 122 33 l 122 917 q 138 956 122 940 q 178 972 154 972 l 525 972 m 511 108 q 685 160 618 108 q 784 297 753 211 q 815 486 815 383 q 798 630 815 561 q 744 751 781 699 q 649 835 707 804 q 511 865 592 865 l 226 865 l 238 876 l 238 94 l 229 108 l 511 108 m 1556 103 q 1593 88 1578 103 q 1608 51 1608 74 q 1593 15 1608 31 q 1556 0 1578 0 l 1106 0 q 1067 18 1081 0 q 1053 51 1053 36 q 1057 75 1054 65 q 1069 97 1060 85 l 1467 635 l 1468 619 l 1132 619 q 1094 635 1110 619 q 1079 672 1079 650 q 1094 708 1079 693 q 1132 722 1110 722 l 1558 722 q 1595 706 1581 722 q 1610 667 1610 690 q 1606 648 1608 657 q 1594 626 1603 639 l 1201 96 l 1192 103 l 1556 103 m 1329 804 q 1271 833 1292 804 l 1183 931 q 1171 961 1171 946 q 1181 982 1171 974 q 1208 990 1190 990 q 1253 967 1225 990 l 1361 879 l 1335 878 l 1440 968 q 1464 985 1453 979 q 1492 990 1475 990 q 1513 983 1504 990 q 1522 964 1522 975 q 1519 949 1522 957 q 1507 932 1515 942 l 1421 833 q 1361 804 1399 804 l 1329 804 z "},"E":{"ha":792,"x_min":122,"x_max":729,"o":"m 178 972 l 672 972 q 713 957 696 972 q 729 918 729 942 q 713 880 729 894 q 672 865 696 865 l 225 865 l 238 889 l 238 538 l 224 553 l 610 553 q 650 538 633 553 q 667 499 667 522 q 650 460 667 475 q 610 446 633 446 l 228 446 l 238 458 l 238 99 l 229 108 l 672 108 q 713 92 696 108 q 729 54 729 75 q 713 15 729 31 q 672 0 696 0 l 178 0 q 138 17 154 0 q 122 57 122 33 l 122 917 q 138 956 122 940 q 178 972 154 972 z "},"É":{"ha":792,"x_min":122,"x_max":729,"o":"m 178 972 l 672 972 q 713 957 696 972 q 729 918 729 942 q 713 880 729 894 q 672 865 696 865 l 225 865 l 238 889 l 238 538 l 224 553 l 610 553 q 650 538 633 553 q 667 499 667 522 q 650 460 667 475 q 610 446 633 446 l 228 446 l 238 458 l 238 99 l 229 108 l 672 108 q 713 92 696 108 q 729 54 729 75 q 713 15 729 31 q 672 0 696 0 l 178 0 q 138 17 154 0 q 122 57 122 33 l 122 917 q 138 956 122 940 q 178 972 154 972 m 440 1032 q 413 1042 422 1032 q 403 1065 403 1051 q 407 1081 403 1074 q 418 1094 411 1088 l 540 1194 q 564 1209 551 1203 q 590 1215 576 1215 q 626 1201 610 1215 q 643 1164 643 1186 q 634 1133 643 1147 q 607 1111 625 1119 l 471 1042 q 456 1035 464 1038 q 440 1032 447 1032 z "},"Ĕ":{"ha":792,"x_min":122,"x_max":729,"o":"m 178 972 l 672 972 q 713 957 696 972 q 729 918 729 942 q 713 880 729 894 q 672 865 696 865 l 225 865 l 238 889 l 238 538 l 224 553 l 610 553 q 650 538 633 553 q 667 499 667 522 q 650 460 667 475 q 610 446 633 446 l 228 446 l 238 458 l 238 99 l 229 108 l 672 108 q 713 92 696 108 q 729 54 729 75 q 713 15 729 31 q 672 0 696 0 l 178 0 q 138 17 154 0 q 122 57 122 33 l 122 917 q 138 956 122 940 q 178 972 154 972 m 436 1069 q 310 1105 363 1069 q 236 1206 258 1140 q 238 1244 228 1229 q 267 1258 247 1258 q 299 1249 289 1258 q 322 1222 310 1240 q 368 1172 340 1189 q 436 1156 396 1156 q 550 1222 517 1156 q 573 1249 561 1239 q 606 1258 585 1258 q 636 1244 626 1258 q 638 1207 646 1231 q 563 1105 615 1140 q 436 1069 511 1069 z "},"Ě":{"ha":792,"x_min":122,"x_max":729,"o":"m 178 972 l 672 972 q 713 957 696 972 q 729 918 729 942 q 713 880 729 894 q 672 865 696 865 l 225 865 l 238 889 l 238 538 l 224 553 l 610 553 q 650 538 633 553 q 667 499 667 522 q 650 460 667 475 q 610 446 633 446 l 228 446 l 238 458 l 238 99 l 229 108 l 672 108 q 713 92 696 108 q 729 54 729 75 q 713 15 729 31 q 672 0 696 0 l 178 0 q 138 17 154 0 q 122 57 122 33 l 122 917 q 138 956 122 940 q 178 972 154 972 m 421 1124 l 542 1214 q 569 1230 557 1225 q 590 1235 581 1235 q 611 1226 603 1235 q 619 1208 619 1218 q 617 1195 619 1201 q 606 1179 614 1189 l 506 1069 q 479 1049 493 1056 q 446 1042 465 1042 l 428 1042 q 395 1049 408 1042 q 369 1069 382 1056 l 269 1179 q 258 1195 261 1189 q 254 1208 254 1201 q 263 1226 254 1218 q 285 1233 272 1233 q 333 1213 303 1233 l 454 1126 l 421 1124 z "},"Ḝ":{"ha":792,"x_min":122,"x_max":729,"o":"m 178 972 l 672 972 q 713 957 696 972 q 729 918 729 942 q 713 880 729 894 q 672 865 696 865 l 225 865 l 238 889 l 238 538 l 224 553 l 610 553 q 650 538 633 553 q 667 499 667 522 q 650 460 667 475 q 610 446 633 446 l 228 446 l 238 458 l 238 99 l 229 108 l 672 108 q 713 92 696 108 q 729 54 729 75 q 713 15 729 31 q 672 0 696 0 l 178 0 q 138 17 154 0 q 122 57 122 33 l 122 917 q 138 956 122 940 q 178 972 154 972 m 335 -203 q 307 -197 324 -203 q 278 -178 290 -190 q 265 -151 265 -167 q 276 -121 265 -135 l 393 28 l 463 28 l 378 -169 q 335 -203 364 -203 m 436 1069 q 310 1105 363 1069 q 236 1206 258 1140 q 238 1244 228 1229 q 267 1258 247 1258 q 299 1249 289 1258 q 322 1222 310 1240 q 368 1172 340 1189 q 436 1156 396 1156 q 550 1222 517 1156 q 573 1249 561 1239 q 606 1258 585 1258 q 636 1244 626 1258 q 638 1207 646 1231 q 563 1105 615 1140 q 436 1069 511 1069 z "},"Ê":{"ha":792,"x_min":122,"x_max":729,"o":"m 178 972 l 672 972 q 713 957 696 972 q 729 918 729 942 q 713 880 729 894 q 672 865 696 865 l 225 865 l 238 889 l 238 538 l 224 553 l 610 553 q 650 538 633 553 q 667 499 667 522 q 650 460 667 475 q 610 446 633 446 l 228 446 l 238 458 l 238 99 l 229 108 l 672 108 q 713 92 696 108 q 729 54 729 75 q 713 15 729 31 q 672 0 696 0 l 178 0 q 138 17 154 0 q 122 57 122 33 l 122 917 q 138 956 122 940 q 178 972 154 972 m 451 1157 l 331 1069 q 304 1053 315 1060 q 282 1047 293 1047 q 261 1056 269 1047 q 253 1074 253 1064 q 256 1087 253 1081 q 267 1103 258 1093 l 367 1213 q 394 1233 381 1226 q 426 1240 407 1240 l 444 1240 q 477 1233 464 1240 q 503 1213 490 1226 l 603 1103 q 615 1088 611 1094 q 618 1074 618 1082 q 610 1057 618 1065 q 588 1049 601 1049 q 566 1055 578 1049 q 539 1071 554 1061 l 418 1154 l 451 1157 z "},"Ế":{"ha":792,"x_min":122,"x_max":858,"o":"m 178 972 l 672 972 q 713 957 696 972 q 729 918 729 942 q 713 880 729 894 q 672 865 696 865 l 225 865 l 238 889 l 238 538 l 224 553 l 610 553 q 650 538 633 553 q 667 499 667 522 q 650 460 667 475 q 610 446 633 446 l 228 446 l 238 458 l 238 99 l 229 108 l 672 108 q 713 92 696 108 q 729 54 729 75 q 713 15 729 31 q 672 0 696 0 l 178 0 q 138 17 154 0 q 122 57 122 33 l 122 917 q 138 956 122 940 q 178 972 154 972 m 451 1157 l 331 1069 q 304 1053 315 1060 q 282 1047 293 1047 q 261 1056 269 1047 q 253 1074 253 1064 q 256 1087 253 1081 q 267 1103 258 1093 l 367 1213 q 394 1233 381 1226 q 426 1240 407 1240 l 444 1240 q 477 1233 464 1240 q 503 1213 490 1226 l 603 1103 q 615 1088 611 1094 q 618 1074 618 1082 q 610 1057 618 1065 q 588 1049 601 1049 q 566 1055 578 1049 q 539 1071 554 1061 l 418 1154 l 451 1157 m 657 1138 q 629 1147 639 1138 q 619 1171 619 1157 q 624 1186 619 1179 q 635 1200 628 1193 l 757 1300 q 781 1315 768 1308 q 807 1321 793 1321 q 843 1306 826 1321 q 860 1269 860 1292 q 851 1239 860 1253 q 824 1217 842 1225 l 688 1147 q 672 1140 681 1143 q 657 1138 664 1138 z "},"Ệ":{"ha":792,"x_min":122,"x_max":729,"o":"m 178 972 l 672 972 q 713 957 696 972 q 729 918 729 942 q 713 880 729 894 q 672 865 696 865 l 225 865 l 238 889 l 238 538 l 224 553 l 610 553 q 650 538 633 553 q 667 499 667 522 q 650 460 667 475 q 610 446 633 446 l 228 446 l 238 458 l 238 99 l 229 108 l 672 108 q 713 92 696 108 q 729 54 729 75 q 713 15 729 31 q 672 0 696 0 l 178 0 q 138 17 154 0 q 122 57 122 33 l 122 917 q 138 956 122 940 q 178 972 154 972 m 419 -197 q 369 -183 386 -197 q 353 -137 353 -168 l 353 -118 q 371 -73 353 -87 q 421 -58 389 -58 q 472 -73 456 -58 q 489 -118 489 -87 l 489 -137 q 472 -183 489 -168 q 419 -197 454 -197 m 451 1157 l 331 1069 q 304 1053 315 1060 q 282 1047 293 1047 q 261 1056 269 1047 q 253 1074 253 1064 q 256 1087 253 1081 q 267 1103 258 1093 l 367 1213 q 394 1233 381 1226 q 426 1240 407 1240 l 444 1240 q 477 1233 464 1240 q 503 1213 490 1226 l 603 1103 q 615 1088 611 1094 q 618 1074 618 1082 q 610 1057 618 1065 q 588 1049 601 1049 q 566 1055 578 1049 q 539 1071 554 1061 l 418 1154 l 451 1157 z "},"Ề":{"ha":792,"x_min":122,"x_max":729,"o":"m 178 972 l 672 972 q 713 957 696 972 q 729 918 729 942 q 713 880 729 894 q 672 865 696 865 l 225 865 l 238 889 l 238 538 l 224 553 l 610 553 q 650 538 633 553 q 667 499 667 522 q 650 460 667 475 q 610 446 633 446 l 228 446 l 238 458 l 238 99 l 229 108 l 672 108 q 713 92 696 108 q 729 54 729 75 q 713 15 729 31 q 672 0 696 0 l 178 0 q 138 17 154 0 q 122 57 122 33 l 122 917 q 138 956 122 940 q 178 972 154 972 m 451 1157 l 331 1069 q 304 1053 315 1060 q 282 1047 293 1047 q 261 1056 269 1047 q 253 1074 253 1064 q 256 1087 253 1081 q 267 1103 258 1093 l 367 1213 q 394 1233 381 1226 q 426 1240 407 1240 l 444 1240 q 477 1233 464 1240 q 503 1213 490 1226 l 603 1103 q 615 1088 611 1094 q 618 1074 618 1082 q 610 1057 618 1065 q 588 1049 601 1049 q 566 1055 578 1049 q 539 1071 554 1061 l 418 1154 l 451 1157 m 618 1224 q 602 1226 610 1224 q 588 1233 594 1229 l 450 1303 q 415 1356 415 1322 q 431 1392 415 1378 q 468 1407 447 1407 q 494 1401 482 1407 q 517 1386 507 1394 l 639 1286 q 651 1272 647 1279 q 656 1257 656 1265 q 646 1233 656 1243 q 618 1224 636 1224 z "},"Ể":{"ha":792,"x_min":122,"x_max":729,"o":"m 178 972 l 672 972 q 713 957 696 972 q 729 918 729 942 q 713 880 729 894 q 672 865 696 865 l 225 865 l 238 889 l 238 538 l 224 553 l 610 553 q 650 538 633 553 q 667 499 667 522 q 650 460 667 475 q 610 446 633 446 l 228 446 l 238 458 l 238 99 l 229 108 l 672 108 q 713 92 696 108 q 729 54 729 75 q 713 15 729 31 q 672 0 696 0 l 178 0 q 138 17 154 0 q 122 57 122 33 l 122 917 q 138 956 122 940 q 178 972 154 972 m 451 1157 l 331 1069 q 304 1053 315 1060 q 282 1047 293 1047 q 261 1056 269 1047 q 253 1074 253 1064 q 256 1087 253 1081 q 267 1103 258 1093 l 367 1213 q 394 1233 381 1226 q 426 1240 407 1240 l 444 1240 q 477 1233 464 1240 q 503 1213 490 1226 l 603 1103 q 615 1088 611 1094 q 618 1074 618 1082 q 610 1057 618 1065 q 588 1049 601 1049 q 566 1055 578 1049 q 539 1071 554 1061 l 418 1154 l 451 1157 m 321 1554 q 367 1585 342 1574 q 426 1597 393 1597 q 501 1579 475 1597 q 538 1536 528 1561 q 549 1489 549 1511 q 538 1447 549 1465 q 510 1407 528 1428 q 494 1386 500 1396 q 486 1365 488 1376 q 475 1345 486 1351 q 447 1339 464 1339 q 426 1346 435 1339 q 417 1367 417 1353 q 421 1393 417 1379 q 438 1421 425 1407 q 464 1453 453 1439 q 475 1482 475 1468 q 460 1513 475 1501 q 425 1524 446 1524 q 392 1515 407 1524 q 364 1499 376 1507 q 340 1489 353 1490 q 314 1501 326 1488 q 305 1530 301 1515 q 321 1554 308 1544 z "},"Ễ":{"ha":792,"x_min":122,"x_max":729,"o":"m 178 972 l 672 972 q 713 957 696 972 q 729 918 729 942 q 713 880 729 894 q 672 865 696 865 l 225 865 l 238 889 l 238 538 l 224 553 l 610 553 q 650 538 633 553 q 667 499 667 522 q 650 460 667 475 q 610 446 633 446 l 228 446 l 238 458 l 238 99 l 229 108 l 672 108 q 713 92 696 108 q 729 54 729 75 q 713 15 729 31 q 672 0 696 0 l 178 0 q 138 17 154 0 q 122 57 122 33 l 122 917 q 138 956 122 940 q 178 972 154 972 m 451 1157 l 331 1069 q 304 1053 315 1060 q 282 1047 293 1047 q 261 1056 269 1047 q 253 1074 253 1064 q 256 1087 253 1081 q 267 1103 258 1093 l 367 1213 q 394 1233 381 1226 q 426 1240 407 1240 l 444 1240 q 477 1233 464 1240 q 503 1213 490 1226 l 603 1103 q 615 1088 611 1094 q 618 1074 618 1082 q 610 1057 618 1065 q 588 1049 601 1049 q 566 1055 578 1049 q 539 1071 554 1061 l 418 1154 l 451 1157 m 254 1246 q 219 1266 232 1246 q 208 1319 206 1286 q 250 1394 214 1365 q 340 1424 286 1424 q 415 1403 378 1424 q 485 1361 451 1382 q 542 1340 518 1340 q 571 1353 560 1340 q 582 1386 582 1365 q 589 1421 578 1408 q 618 1433 600 1433 q 656 1413 643 1433 q 667 1361 668 1393 q 648 1308 663 1333 q 608 1269 633 1283 q 547 1254 582 1254 q 469 1274 508 1254 q 395 1315 429 1294 q 336 1335 361 1335 q 307 1324 319 1335 q 292 1290 294 1313 q 283 1258 294 1269 q 254 1246 271 1246 z "},"Ȅ":{"ha":792,"x_min":122,"x_max":729,"o":"m 178 972 l 672 972 q 713 957 696 972 q 729 918 729 942 q 713 880 729 894 q 672 865 696 865 l 225 865 l 238 889 l 238 538 l 224 553 l 610 553 q 650 538 633 553 q 667 499 667 522 q 650 460 667 475 q 610 446 633 446 l 228 446 l 238 458 l 238 99 l 229 108 l 672 108 q 713 92 696 108 q 729 54 729 75 q 713 15 729 31 q 672 0 696 0 l 178 0 q 138 17 154 0 q 122 57 122 33 l 122 917 q 138 956 122 940 q 178 972 154 972 m 346 1047 q 330 1050 338 1047 q 315 1057 322 1053 l 178 1126 q 143 1179 143 1146 q 159 1216 143 1201 q 196 1231 175 1231 q 222 1224 210 1231 q 244 1210 235 1218 l 367 1110 q 379 1096 375 1103 q 383 1081 383 1089 q 374 1057 383 1067 q 346 1047 364 1047 m 596 1051 q 581 1054 589 1051 q 565 1061 574 1057 l 429 1131 q 393 1183 393 1150 q 410 1220 393 1206 q 446 1235 426 1235 q 474 1228 461 1235 q 496 1214 486 1222 l 618 1114 q 630 1100 626 1107 q 633 1085 633 1093 q 624 1061 633 1071 q 596 1051 614 1051 z "},"Ë":{"ha":792,"x_min":122,"x_max":729,"o":"m 178 972 l 672 972 q 713 957 696 972 q 729 918 729 942 q 713 880 729 894 q 672 865 696 865 l 225 865 l 238 889 l 238 538 l 224 553 l 610 553 q 650 538 633 553 q 667 499 667 522 q 650 460 667 475 q 610 446 633 446 l 228 446 l 238 458 l 238 99 l 229 108 l 672 108 q 713 92 696 108 q 729 54 729 75 q 713 15 729 31 q 672 0 696 0 l 178 0 q 138 17 154 0 q 122 57 122 33 l 122 917 q 138 956 122 940 q 178 972 154 972 m 563 1069 q 513 1084 529 1069 q 496 1129 496 1099 l 496 1147 q 513 1193 496 1179 q 563 1207 531 1207 q 613 1192 596 1207 q 629 1147 629 1178 l 629 1129 q 613 1084 629 1099 q 563 1069 596 1069 m 311 1069 q 261 1084 278 1069 q 244 1129 244 1099 l 244 1147 q 263 1193 244 1179 q 313 1207 281 1207 q 361 1192 344 1207 q 378 1147 378 1178 l 378 1129 q 361 1084 378 1099 q 311 1069 344 1069 z "},"Ė":{"ha":792,"x_min":122,"x_max":729,"o":"m 178 972 l 672 972 q 713 957 696 972 q 729 918 729 942 q 713 880 729 894 q 672 865 696 865 l 225 865 l 238 889 l 238 538 l 224 553 l 610 553 q 650 538 633 553 q 667 499 667 522 q 650 460 667 475 q 610 446 633 446 l 228 446 l 238 458 l 238 99 l 229 108 l 672 108 q 713 92 696 108 q 729 54 729 75 q 713 15 729 31 q 672 0 696 0 l 178 0 q 138 17 154 0 q 122 57 122 33 l 122 917 q 138 956 122 940 q 178 972 154 972 m 435 1056 q 385 1070 401 1056 q 368 1115 368 1085 l 368 1135 q 386 1180 368 1165 q 436 1194 404 1194 q 488 1180 471 1194 q 504 1135 504 1165 l 504 1115 q 487 1070 504 1085 q 435 1056 469 1056 z "},"Ẹ":{"ha":792,"x_min":122,"x_max":729,"o":"m 178 972 l 672 972 q 713 957 696 972 q 729 918 729 942 q 713 880 729 894 q 672 865 696 865 l 225 865 l 238 889 l 238 538 l 224 553 l 610 553 q 650 538 633 553 q 667 499 667 522 q 650 460 667 475 q 610 446 633 446 l 228 446 l 238 458 l 238 99 l 229 108 l 672 108 q 713 92 696 108 q 729 54 729 75 q 713 15 729 31 q 672 0 696 0 l 178 0 q 138 17 154 0 q 122 57 122 33 l 122 917 q 138 956 122 940 q 178 972 154 972 m 419 -197 q 369 -183 386 -197 q 353 -137 353 -168 l 353 -118 q 371 -73 353 -87 q 421 -58 389 -58 q 472 -73 456 -58 q 489 -118 489 -87 l 489 -137 q 472 -183 489 -168 q 419 -197 454 -197 z "},"È":{"ha":792,"x_min":122,"x_max":729,"o":"m 178 972 l 672 972 q 713 957 696 972 q 729 918 729 942 q 713 880 729 894 q 672 865 696 865 l 225 865 l 238 889 l 238 538 l 224 553 l 610 553 q 650 538 633 553 q 667 499 667 522 q 650 460 667 475 q 610 446 633 446 l 228 446 l 238 458 l 238 99 l 229 108 l 672 108 q 713 92 696 108 q 729 54 729 75 q 713 15 729 31 q 672 0 696 0 l 178 0 q 138 17 154 0 q 122 57 122 33 l 122 917 q 138 956 122 940 q 178 972 154 972 m 436 1035 q 420 1038 428 1035 q 406 1044 413 1040 l 268 1114 q 233 1167 233 1133 q 249 1203 233 1189 q 286 1218 265 1218 q 313 1212 300 1218 q 335 1197 325 1206 l 457 1097 q 469 1083 465 1090 q 474 1068 474 1076 q 464 1044 474 1054 q 436 1035 454 1035 z "},"Ẻ":{"ha":792,"x_min":122,"x_max":729,"o":"m 178 972 l 672 972 q 713 957 696 972 q 729 918 729 942 q 713 880 729 894 q 672 865 696 865 l 225 865 l 238 889 l 238 538 l 224 553 l 610 553 q 650 538 633 553 q 667 499 667 522 q 650 460 667 475 q 610 446 633 446 l 228 446 l 238 458 l 238 99 l 229 108 l 672 108 q 713 92 696 108 q 729 54 729 75 q 713 15 729 31 q 672 0 696 0 l 178 0 q 138 17 154 0 q 122 57 122 33 l 122 917 q 138 956 122 940 q 178 972 154 972 m 321 1265 q 367 1297 342 1285 q 426 1308 393 1308 q 501 1290 475 1308 q 538 1247 528 1272 q 549 1200 549 1222 q 538 1158 549 1176 q 510 1118 528 1139 q 494 1097 500 1107 q 486 1076 488 1088 q 475 1056 486 1063 q 447 1050 464 1050 q 426 1057 435 1050 q 417 1078 417 1064 q 421 1104 417 1090 q 438 1132 425 1118 q 464 1165 453 1150 q 475 1193 475 1179 q 460 1224 475 1213 q 425 1235 446 1235 q 392 1226 407 1235 q 364 1210 376 1218 q 340 1200 353 1201 q 314 1213 326 1199 q 305 1241 301 1226 q 321 1265 308 1256 z "},"Ȇ":{"ha":792,"x_min":122,"x_max":729,"o":"m 178 972 l 672 972 q 713 957 696 972 q 729 918 729 942 q 713 880 729 894 q 672 865 696 865 l 225 865 l 238 889 l 238 538 l 224 553 l 610 553 q 650 538 633 553 q 667 499 667 522 q 650 460 667 475 q 610 446 633 446 l 228 446 l 238 458 l 238 99 l 229 108 l 672 108 q 713 92 696 108 q 729 54 729 75 q 713 15 729 31 q 672 0 696 0 l 178 0 q 138 17 154 0 q 122 57 122 33 l 122 917 q 138 956 122 940 q 178 972 154 972 m 435 1231 q 525 1214 485 1231 q 593 1167 565 1197 q 629 1097 621 1136 q 626 1060 636 1075 q 596 1046 615 1046 q 562 1056 574 1046 q 539 1085 550 1067 q 501 1130 528 1114 q 435 1146 474 1146 q 369 1130 397 1146 q 331 1085 342 1114 q 308 1056 321 1067 q 275 1046 296 1046 q 244 1060 256 1046 q 240 1096 233 1074 q 277 1165 250 1135 q 345 1213 304 1196 q 435 1231 386 1231 z "},"Ē":{"ha":792,"x_min":122,"x_max":729,"o":"m 178 972 l 672 972 q 713 957 696 972 q 729 918 729 942 q 713 880 729 894 q 672 865 696 865 l 225 865 l 238 889 l 238 538 l 224 553 l 610 553 q 650 538 633 553 q 667 499 667 522 q 650 460 667 475 q 610 446 633 446 l 228 446 l 238 458 l 238 99 l 229 108 l 672 108 q 713 92 696 108 q 729 54 729 75 q 713 15 729 31 q 672 0 696 0 l 178 0 q 138 17 154 0 q 122 57 122 33 l 122 917 q 138 956 122 940 q 178 972 154 972 m 265 1078 q 215 1121 215 1078 q 265 1165 215 1165 l 614 1165 q 664 1121 664 1165 q 614 1078 664 1078 l 265 1078 z "},"Ḗ":{"ha":792,"x_min":122,"x_max":729,"o":"m 178 972 l 672 972 q 713 957 696 972 q 729 918 729 942 q 713 880 729 894 q 672 865 696 865 l 225 865 l 238 889 l 238 538 l 224 553 l 610 553 q 650 538 633 553 q 667 499 667 522 q 650 460 667 475 q 610 446 633 446 l 228 446 l 238 458 l 238 99 l 229 108 l 672 108 q 713 92 696 108 q 729 54 729 75 q 713 15 729 31 q 672 0 696 0 l 178 0 q 138 17 154 0 q 122 57 122 33 l 122 917 q 138 956 122 940 q 178 972 154 972 m 265 1078 q 215 1121 215 1078 q 265 1165 215 1165 l 614 1165 q 664 1121 664 1165 q 614 1078 664 1078 l 265 1078 m 440 1253 q 413 1263 422 1253 q 403 1286 403 1272 q 407 1301 403 1294 q 418 1315 411 1308 l 540 1415 q 564 1430 551 1424 q 590 1436 576 1436 q 626 1422 610 1436 q 643 1385 643 1407 q 634 1354 643 1368 q 607 1332 625 1340 l 471 1263 q 456 1256 464 1258 q 440 1253 447 1253 z "},"Ḕ":{"ha":792,"x_min":122,"x_max":729,"o":"m 178 972 l 672 972 q 713 957 696 972 q 729 918 729 942 q 713 880 729 894 q 672 865 696 865 l 225 865 l 238 889 l 238 538 l 224 553 l 610 553 q 650 538 633 553 q 667 499 667 522 q 650 460 667 475 q 610 446 633 446 l 228 446 l 238 458 l 238 99 l 229 108 l 672 108 q 713 92 696 108 q 729 54 729 75 q 713 15 729 31 q 672 0 696 0 l 178 0 q 138 17 154 0 q 122 57 122 33 l 122 917 q 138 956 122 940 q 178 972 154 972 m 265 1078 q 215 1121 215 1078 q 265 1165 215 1165 l 614 1165 q 664 1121 664 1165 q 614 1078 664 1078 l 265 1078 m 436 1256 q 420 1258 428 1256 q 406 1265 413 1261 l 268 1335 q 233 1388 233 1354 q 249 1424 233 1410 q 286 1439 265 1439 q 313 1433 300 1439 q 335 1418 325 1426 l 457 1318 q 469 1304 465 1311 q 474 1289 474 1297 q 464 1265 474 1275 q 436 1256 454 1256 z "},"Ę":{"ha":801,"x_min":122,"x_max":729,"o":"m 592 -272 q 491 -237 535 -272 q 447 -133 447 -201 q 465 -64 447 -94 q 513 -11 483 -33 q 575 26 542 11 q 640 51 608 42 l 640 0 l 178 0 q 138 17 154 0 q 122 57 122 33 l 122 917 q 138 956 122 940 q 178 972 154 972 l 672 972 q 713 957 696 972 q 729 918 729 942 q 713 881 729 897 q 672 865 696 865 l 225 865 l 238 889 l 238 538 l 224 553 l 610 553 q 650 538 633 553 q 667 499 667 522 q 650 462 667 478 q 610 446 633 446 l 228 446 l 238 458 l 238 99 l 229 108 l 672 108 q 713 93 696 108 q 729 54 729 78 q 713 17 729 31 q 671 0 697 4 q 608 -22 638 -6 q 560 -62 579 -39 q 542 -112 542 -85 q 560 -164 542 -146 q 601 -182 579 -182 q 639 -165 629 -182 q 660 -148 647 -153 q 682 -143 672 -143 q 710 -155 699 -143 q 722 -186 722 -167 q 704 -226 722 -206 q 656 -259 686 -246 q 592 -272 626 -272 z "},"Ẽ":{"ha":792,"x_min":122,"x_max":729,"o":"m 178 972 l 672 972 q 713 957 696 972 q 729 918 729 942 q 713 880 729 894 q 672 865 696 865 l 225 865 l 238 889 l 238 538 l 224 553 l 610 553 q 650 538 633 553 q 667 499 667 522 q 650 460 667 475 q 610 446 633 446 l 228 446 l 238 458 l 238 99 l 229 108 l 672 108 q 713 92 696 108 q 729 54 729 75 q 713 15 729 31 q 672 0 696 0 l 178 0 q 138 17 154 0 q 122 57 122 33 l 122 917 q 138 956 122 940 q 178 972 154 972 m 254 1054 q 219 1074 232 1054 q 208 1128 206 1094 q 250 1203 214 1174 q 340 1232 286 1232 q 415 1211 378 1232 q 485 1169 451 1190 q 542 1149 518 1149 q 571 1161 560 1149 q 582 1194 582 1174 q 589 1229 578 1217 q 618 1242 600 1242 q 656 1222 643 1242 q 667 1169 668 1201 q 648 1117 663 1142 q 608 1077 633 1092 q 547 1063 582 1063 q 469 1083 508 1063 q 395 1123 429 1103 q 336 1143 361 1143 q 307 1132 319 1143 q 292 1099 294 1121 q 283 1066 294 1078 q 254 1054 271 1054 z "},"F":{"ha":785,"x_min":122,"x_max":722,"o":"m 179 0 q 138 17 154 0 q 122 57 122 33 l 122 917 q 138 956 122 940 q 178 972 154 972 l 665 972 q 706 957 689 972 q 722 918 722 942 q 706 881 722 896 q 665 865 689 865 l 228 865 l 236 876 l 236 536 l 229 551 l 603 551 q 643 535 626 551 q 660 496 660 519 q 643 459 660 475 q 603 443 626 443 l 226 443 l 236 456 l 236 57 q 219 17 236 33 q 179 0 203 0 z "},"G":{"ha":965,"x_min":63,"x_max":889,"o":"m 565 -14 q 367 24 458 -14 q 208 131 276 63 q 101 290 139 199 q 63 486 63 381 q 101 684 63 593 q 208 843 139 775 q 367 949 276 911 q 565 986 458 986 q 702 970 636 986 q 822 921 768 954 q 842 901 836 914 q 849 875 849 889 q 833 835 849 851 q 796 818 817 818 q 780 821 788 818 q 764 826 772 824 q 671 862 721 849 q 565 875 621 875 q 369 824 456 875 q 232 685 282 772 q 182 486 182 597 q 232 288 182 376 q 369 149 282 200 q 565 97 456 97 q 680 113 621 97 q 781 151 739 128 l 771 118 l 771 411 l 793 392 l 581 392 q 541 408 557 392 q 525 447 525 424 q 541 487 525 471 q 581 503 557 503 l 833 503 q 874 486 858 503 q 889 446 889 469 l 889 125 q 881 96 889 108 q 861 75 874 83 q 723 10 799 35 q 565 -14 647 -14 z "},"Ğ":{"ha":965,"x_min":63,"x_max":889,"o":"m 565 -14 q 367 24 458 -14 q 208 131 276 63 q 101 290 139 199 q 63 486 63 381 q 101 684 63 593 q 208 843 139 775 q 367 949 276 911 q 565 986 458 986 q 702 970 636 986 q 822 921 768 954 q 842 901 836 914 q 849 875 849 889 q 833 835 849 851 q 796 818 817 818 q 780 821 788 818 q 764 826 772 824 q 671 862 721 849 q 565 875 621 875 q 369 824 456 875 q 232 685 282 772 q 182 486 182 597 q 232 288 182 376 q 369 149 282 200 q 565 97 456 97 q 680 113 621 97 q 781 151 739 128 l 771 118 l 771 411 l 793 392 l 581 392 q 541 408 557 392 q 525 447 525 424 q 541 487 525 471 q 581 503 557 503 l 833 503 q 874 486 858 503 q 889 446 889 469 l 889 125 q 881 96 889 108 q 861 75 874 83 q 723 10 799 35 q 565 -14 647 -14 m 532 1069 q 406 1105 458 1069 q 332 1206 354 1140 q 333 1244 324 1229 q 363 1258 343 1258 q 395 1249 385 1258 q 418 1222 406 1240 q 464 1172 436 1189 q 532 1156 492 1156 q 646 1222 613 1156 q 669 1249 657 1239 q 701 1258 681 1258 q 732 1244 722 1258 q 733 1207 742 1231 q 659 1105 711 1140 q 532 1069 607 1069 z "},"Ǧ":{"ha":965,"x_min":63,"x_max":889,"o":"m 565 -14 q 367 24 458 -14 q 208 131 276 63 q 101 290 139 199 q 63 486 63 381 q 101 684 63 593 q 208 843 139 775 q 367 949 276 911 q 565 986 458 986 q 702 970 636 986 q 822 921 768 954 q 842 901 836 914 q 849 875 849 889 q 833 835 849 851 q 796 818 817 818 q 780 821 788 818 q 764 826 772 824 q 671 862 721 849 q 565 875 621 875 q 369 824 456 875 q 232 685 282 772 q 182 486 182 597 q 232 288 182 376 q 369 149 282 200 q 565 97 456 97 q 680 113 621 97 q 781 151 739 128 l 771 118 l 771 411 l 793 392 l 581 392 q 541 408 557 392 q 525 447 525 424 q 541 487 525 471 q 581 503 557 503 l 833 503 q 874 486 858 503 q 889 446 889 469 l 889 125 q 881 96 889 108 q 861 75 874 83 q 723 10 799 35 q 565 -14 647 -14 m 515 1124 l 636 1214 q 663 1230 651 1225 q 685 1235 675 1235 q 706 1226 697 1235 q 714 1208 714 1218 q 711 1195 714 1201 q 700 1179 708 1189 l 600 1069 q 574 1049 588 1056 q 540 1042 560 1042 l 522 1042 q 490 1049 503 1042 q 464 1069 476 1056 l 364 1179 q 352 1195 356 1189 q 349 1208 349 1201 q 358 1226 349 1218 q 379 1233 367 1233 q 428 1213 397 1233 l 549 1126 l 515 1124 z "},"Ĝ":{"ha":965,"x_min":63,"x_max":889,"o":"m 565 -14 q 367 24 458 -14 q 208 131 276 63 q 101 290 139 199 q 63 486 63 381 q 101 684 63 593 q 208 843 139 775 q 367 949 276 911 q 565 986 458 986 q 702 970 636 986 q 822 921 768 954 q 842 901 836 914 q 849 875 849 889 q 833 835 849 851 q 796 818 817 818 q 780 821 788 818 q 764 826 772 824 q 671 862 721 849 q 565 875 621 875 q 369 824 456 875 q 232 685 282 772 q 182 486 182 597 q 232 288 182 376 q 369 149 282 200 q 565 97 456 97 q 680 113 621 97 q 781 151 739 128 l 771 118 l 771 411 l 793 392 l 581 392 q 541 408 557 392 q 525 447 525 424 q 541 487 525 471 q 581 503 557 503 l 833 503 q 874 486 858 503 q 889 446 889 469 l 889 125 q 881 96 889 108 q 861 75 874 83 q 723 10 799 35 q 565 -14 647 -14 m 547 1157 l 426 1069 q 400 1053 411 1060 q 378 1047 389 1047 q 357 1056 365 1047 q 349 1074 349 1064 q 351 1087 349 1081 q 363 1103 354 1093 l 463 1213 q 490 1233 476 1226 q 522 1240 503 1240 l 540 1240 q 573 1233 560 1240 q 599 1213 586 1226 l 699 1103 q 710 1088 707 1094 q 714 1074 714 1082 q 706 1057 714 1065 q 683 1049 697 1049 q 662 1055 674 1049 q 635 1071 650 1061 l 514 1154 l 547 1157 z "},"Ģ":{"ha":965,"x_min":63,"x_max":889,"o":"m 565 -14 q 367 24 458 -14 q 208 131 276 63 q 101 290 139 199 q 63 486 63 381 q 101 684 63 593 q 208 843 139 775 q 367 949 276 911 q 565 986 458 986 q 702 970 636 986 q 822 921 768 954 q 842 901 836 914 q 849 875 849 889 q 833 835 849 851 q 796 818 817 818 q 780 821 788 818 q 764 826 772 824 q 671 862 721 849 q 565 875 621 875 q 369 824 456 875 q 232 685 282 772 q 182 486 182 597 q 232 288 182 376 q 369 149 282 200 q 565 97 456 97 q 680 113 621 97 q 781 151 739 128 l 771 118 l 771 411 l 793 392 l 581 392 q 541 408 557 392 q 525 447 525 424 q 541 487 525 471 q 581 503 557 503 l 833 503 q 874 486 858 503 q 889 446 889 469 l 889 125 q 881 96 889 108 q 861 75 874 83 q 723 10 799 35 q 565 -14 647 -14 m 643 -147 q 626 -202 643 -176 q 583 -244 610 -228 q 524 -261 557 -261 q 483 -251 496 -261 q 469 -228 469 -240 q 477 -206 469 -212 q 493 -200 485 -200 q 510 -203 500 -200 q 535 -204 519 -206 q 556 -192 547 -203 q 564 -162 564 -182 q 550 -144 564 -144 q 536 -151 540 -144 q 517 -157 532 -157 q 486 -144 497 -157 q 475 -112 475 -131 q 497 -71 475 -86 q 556 -56 519 -56 q 618 -79 593 -56 q 643 -147 643 -103 z "},"Ġ":{"ha":965,"x_min":63,"x_max":889,"o":"m 565 -14 q 367 24 458 -14 q 208 131 276 63 q 101 290 139 199 q 63 486 63 381 q 101 684 63 593 q 208 843 139 775 q 367 949 276 911 q 565 986 458 986 q 702 970 636 986 q 822 921 768 954 q 842 901 836 914 q 849 875 849 889 q 833 835 849 851 q 796 818 817 818 q 780 821 788 818 q 764 826 772 824 q 671 862 721 849 q 565 875 621 875 q 369 824 456 875 q 232 685 282 772 q 182 486 182 597 q 232 288 182 376 q 369 149 282 200 q 565 97 456 97 q 680 113 621 97 q 781 151 739 128 l 771 118 l 771 411 l 793 392 l 581 392 q 541 408 557 392 q 525 447 525 424 q 541 487 525 471 q 581 503 557 503 l 833 503 q 874 486 858 503 q 889 446 889 469 l 889 125 q 881 96 889 108 q 861 75 874 83 q 723 10 799 35 q 565 -14 647 -14 m 531 1056 q 481 1070 497 1056 q 464 1115 464 1085 l 464 1135 q 482 1180 464 1165 q 532 1194 500 1194 q 583 1180 567 1194 q 600 1135 600 1165 l 600 1115 q 583 1070 600 1085 q 531 1056 565 1056 z "},"Ḡ":{"ha":965,"x_min":63,"x_max":889,"o":"m 565 -14 q 367 24 458 -14 q 208 131 276 63 q 101 290 139 199 q 63 486 63 381 q 101 684 63 593 q 208 843 139 775 q 367 949 276 911 q 565 986 458 986 q 702 970 636 986 q 822 921 768 954 q 842 901 836 914 q 849 875 849 889 q 833 835 849 851 q 796 818 817 818 q 780 821 788 818 q 764 826 772 824 q 671 862 721 849 q 565 875 621 875 q 369 824 456 875 q 232 685 282 772 q 182 486 182 597 q 232 288 182 376 q 369 149 282 200 q 565 97 456 97 q 680 113 621 97 q 781 151 739 128 l 771 118 l 771 411 l 793 392 l 581 392 q 541 408 557 392 q 525 447 525 424 q 541 487 525 471 q 581 503 557 503 l 833 503 q 874 486 858 503 q 889 446 889 469 l 889 125 q 881 96 889 108 q 861 75 874 83 q 723 10 799 35 q 565 -14 647 -14 m 360 1078 q 310 1121 310 1078 q 360 1165 310 1165 l 708 1165 q 758 1121 758 1165 q 708 1078 758 1078 l 360 1078 z "},"H":{"ha":1000,"x_min":122,"x_max":878,"o":"m 181 972 q 221 956 204 972 q 238 915 238 940 l 238 57 q 220 17 238 33 q 179 0 203 0 q 138 17 153 0 q 122 57 122 33 l 122 915 q 139 956 122 940 q 181 972 156 972 m 821 972 q 862 956 846 972 q 878 915 878 940 l 878 57 q 861 17 878 33 q 819 0 844 0 q 779 17 796 0 q 763 57 763 33 l 763 915 q 780 956 763 940 q 821 972 797 972 m 175 549 l 822 549 l 821 440 l 171 440 l 175 549 z "},"Ħ":{"ha":1143,"x_min":97,"x_max":1046,"o":"m 147 681 q 112 694 126 681 q 97 729 97 708 q 112 764 97 750 q 147 778 126 778 l 997 778 q 1032 764 1018 778 q 1046 728 1046 750 q 1032 694 1046 707 q 997 681 1018 681 l 147 681 m 253 972 q 292 956 275 972 q 310 915 310 940 l 310 57 q 291 17 308 33 q 251 0 274 0 q 209 17 225 0 q 193 57 193 33 l 193 915 q 210 956 193 940 q 253 972 226 972 m 892 972 q 934 956 918 972 q 950 915 950 940 l 950 57 q 933 17 949 33 q 890 0 917 0 q 850 17 867 0 q 833 57 833 33 l 833 915 q 851 956 833 940 q 892 972 868 972 m 247 549 l 893 549 l 892 440 l 243 440 l 247 549 z "},"Ḫ":{"ha":1000,"x_min":122,"x_max":878,"o":"m 181 972 q 221 956 204 972 q 238 915 238 940 l 238 57 q 220 17 238 33 q 179 0 203 0 q 138 17 153 0 q 122 57 122 33 l 122 915 q 139 956 122 940 q 181 972 156 972 m 821 972 q 862 956 846 972 q 878 915 878 940 l 878 57 q 861 17 878 33 q 819 0 844 0 q 779 17 796 0 q 763 57 763 33 l 763 915 q 780 956 763 940 q 821 972 797 972 m 175 549 l 822 549 l 821 440 l 171 440 l 175 549 m 501 -226 q 412 -206 453 -226 q 344 -150 371 -185 q 308 -71 317 -115 q 312 -35 301 -49 q 342 -21 322 -21 q 375 -31 363 -21 q 397 -60 388 -42 q 436 -119 408 -99 q 501 -140 464 -140 q 567 -119 540 -140 q 606 -60 594 -97 q 628 -31 617 -42 q 663 -21 640 -21 q 692 -35 682 -21 q 696 -69 703 -49 q 660 -149 688 -114 q 592 -206 633 -185 q 501 -226 551 -226 z "},"Ĥ":{"ha":1000,"x_min":122,"x_max":878,"o":"m 181 972 q 221 956 204 972 q 238 915 238 940 l 238 57 q 220 17 238 33 q 179 0 203 0 q 138 17 153 0 q 122 57 122 33 l 122 915 q 139 956 122 940 q 181 972 156 972 m 821 972 q 862 956 846 972 q 878 915 878 940 l 878 57 q 861 17 878 33 q 819 0 844 0 q 779 17 796 0 q 763 57 763 33 l 763 915 q 780 956 763 940 q 821 972 797 972 m 175 549 l 822 549 l 821 440 l 171 440 l 175 549 m 515 1157 l 394 1069 q 368 1053 379 1060 q 346 1047 357 1047 q 325 1056 333 1047 q 317 1074 317 1064 q 319 1087 317 1081 q 331 1103 322 1093 l 431 1213 q 458 1233 444 1226 q 490 1240 471 1240 l 508 1240 q 541 1233 528 1240 q 567 1213 554 1226 l 667 1103 q 678 1088 675 1094 q 682 1074 682 1082 q 674 1057 682 1065 q 651 1049 665 1049 q 630 1055 642 1049 q 603 1071 618 1061 l 482 1154 l 515 1157 z "},"Ḥ":{"ha":1000,"x_min":122,"x_max":878,"o":"m 181 972 q 221 956 204 972 q 238 915 238 940 l 238 57 q 220 17 238 33 q 179 0 203 0 q 138 17 153 0 q 122 57 122 33 l 122 915 q 139 956 122 940 q 181 972 156 972 m 821 972 q 862 956 846 972 q 878 915 878 940 l 878 57 q 861 17 878 33 q 819 0 844 0 q 779 17 796 0 q 763 57 763 33 l 763 915 q 780 956 763 940 q 821 972 797 972 m 175 549 l 822 549 l 821 440 l 171 440 l 175 549 m 499 -197 q 449 -183 465 -197 q 432 -137 432 -168 l 432 -118 q 450 -73 432 -87 q 500 -58 468 -58 q 551 -73 535 -58 q 568 -118 568 -87 l 568 -137 q 551 -183 568 -168 q 499 -197 533 -197 z "},"I":{"ha":360,"x_min":122,"x_max":238,"o":"m 238 57 q 220 17 238 33 q 179 0 203 0 q 138 17 153 0 q 122 57 122 33 l 122 915 q 139 956 122 940 q 181 972 156 972 q 221 956 204 972 q 238 915 238 940 l 238 57 z "},"Ĳ":{"ha":826,"x_min":122,"x_max":706,"o":"m 253 393 q 235 353 253 369 q 194 336 218 336 q 153 353 168 336 q 138 393 138 369 l 138 915 q 154 956 138 940 q 196 972 171 972 q 236 956 219 972 q 253 915 253 940 l 253 393 m 393 -14 q 240 29 308 -14 q 132 144 171 72 q 122 176 122 161 q 140 215 122 200 q 176 229 158 229 q 205 221 192 229 q 228 200 218 213 q 297 125 256 153 q 393 97 339 97 q 494 122 450 97 q 563 191 538 147 q 589 290 589 235 l 589 917 q 606 956 589 940 q 649 972 624 972 q 690 956 674 972 q 706 917 706 940 l 706 290 q 665 136 706 206 q 553 26 624 67 q 393 -14 483 -14 z "},"Í":{"ha":360,"x_min":122,"x_max":388,"o":"m 238 57 q 220 17 238 33 q 179 0 203 0 q 138 17 153 0 q 122 57 122 33 l 122 915 q 139 956 122 940 q 181 972 156 972 q 221 956 204 972 q 238 915 238 940 l 238 57 m 186 1032 q 158 1042 168 1032 q 149 1065 149 1051 q 153 1081 149 1074 q 164 1094 157 1088 l 286 1194 q 310 1209 297 1203 q 336 1215 322 1215 q 372 1201 356 1215 q 389 1164 389 1186 q 380 1133 389 1147 q 353 1111 371 1119 l 217 1042 q 201 1035 210 1038 q 186 1032 193 1032 z "},"Ĭ":{"ha":360,"x_min":-26,"x_max":390,"o":"m 238 57 q 220 17 238 33 q 179 0 203 0 q 138 17 153 0 q 122 57 122 33 l 122 915 q 139 956 122 940 q 181 972 156 972 q 221 956 204 972 q 238 915 238 940 l 238 57 m 182 1069 q 56 1105 108 1069 q -18 1206 4 1140 q -17 1244 -26 1229 q 13 1258 -7 1258 q 45 1249 35 1258 q 68 1222 56 1240 q 114 1172 86 1189 q 182 1156 142 1156 q 296 1222 263 1156 q 319 1249 307 1239 q 351 1258 331 1258 q 382 1244 372 1258 q 383 1207 392 1231 q 309 1105 361 1140 q 182 1069 257 1069 z "},"Ǐ":{"ha":360,"x_min":-1,"x_max":364,"o":"m 238 57 q 220 17 238 33 q 179 0 203 0 q 138 17 153 0 q 122 57 122 33 l 122 915 q 139 956 122 940 q 181 972 156 972 q 221 956 204 972 q 238 915 238 940 l 238 57 m 165 1124 l 286 1214 q 313 1230 301 1225 q 335 1235 325 1235 q 356 1226 347 1235 q 364 1208 364 1218 q 361 1195 364 1201 q 350 1179 358 1189 l 250 1069 q 224 1049 238 1056 q 190 1042 210 1042 l 172 1042 q 140 1049 153 1042 q 114 1069 126 1056 l 14 1179 q 2 1195 6 1189 q -1 1208 -1 1201 q 8 1226 -1 1218 q 29 1233 17 1233 q 78 1213 47 1233 l 199 1126 l 165 1124 z "},"Î":{"ha":360,"x_min":-3,"x_max":363,"o":"m 238 57 q 220 17 238 33 q 179 0 203 0 q 138 17 153 0 q 122 57 122 33 l 122 915 q 139 956 122 940 q 181 972 156 972 q 221 956 204 972 q 238 915 238 940 l 238 57 m 197 1157 l 76 1069 q 50 1053 61 1060 q 28 1047 39 1047 q 7 1056 15 1047 q -1 1074 -1 1064 q 1 1087 -1 1081 q 13 1103 4 1093 l 113 1213 q 140 1233 126 1226 q 172 1240 153 1240 l 190 1240 q 223 1233 210 1240 q 249 1213 236 1226 l 349 1103 q 360 1088 357 1094 q 364 1074 364 1082 q 356 1057 364 1065 q 333 1049 347 1049 q 312 1055 324 1049 q 285 1071 300 1061 l 164 1154 l 197 1157 z "},"Ȉ":{"ha":360,"x_min":-112,"x_max":378,"o":"m 238 57 q 220 17 238 33 q 179 0 203 0 q 138 17 153 0 q 122 57 122 33 l 122 915 q 139 956 122 940 q 181 972 156 972 q 221 956 204 972 q 238 915 238 940 l 238 57 m 90 1047 q 74 1050 82 1047 q 60 1057 67 1053 l -78 1126 q -112 1179 -112 1146 q -97 1216 -112 1201 q -60 1231 -81 1231 q -33 1224 -46 1231 q -11 1210 -21 1218 l 111 1110 q 124 1096 119 1103 q 128 1081 128 1089 q 118 1057 128 1067 q 90 1047 108 1047 m 340 1051 q 326 1054 333 1051 q 310 1061 318 1057 l 174 1131 q 138 1183 138 1150 q 154 1220 138 1206 q 190 1235 171 1235 q 218 1228 206 1235 q 240 1214 231 1222 l 363 1114 q 374 1100 371 1107 q 378 1085 378 1093 q 368 1061 378 1071 q 340 1051 358 1051 z "},"Ï":{"ha":360,"x_min":-11,"x_max":374,"o":"m 238 57 q 220 17 238 33 q 179 0 203 0 q 138 17 153 0 q 122 57 122 33 l 122 915 q 139 956 122 940 q 181 972 156 972 q 221 956 204 972 q 238 915 238 940 l 238 57 m 307 1069 q 257 1084 274 1069 q 240 1129 240 1099 l 240 1147 q 258 1193 240 1179 q 307 1207 275 1207 q 357 1192 340 1207 q 374 1147 374 1178 l 374 1129 q 357 1084 374 1099 q 307 1069 340 1069 m 56 1069 q 6 1084 22 1069 q -11 1129 -11 1099 l -11 1147 q 7 1193 -11 1179 q 57 1207 25 1207 q 106 1192 89 1207 q 122 1147 122 1178 l 122 1129 q 106 1084 122 1099 q 56 1069 89 1069 z "},"Ḯ":{"ha":360,"x_min":-11,"x_max":388,"o":"m 238 57 q 220 17 238 33 q 179 0 203 0 q 138 17 153 0 q 122 57 122 33 l 122 915 q 139 956 122 940 q 181 972 156 972 q 221 956 204 972 q 238 915 238 940 l 238 57 m 307 1069 q 257 1084 274 1069 q 240 1129 240 1099 l 240 1147 q 258 1193 240 1179 q 307 1207 275 1207 q 357 1192 340 1207 q 374 1147 374 1178 l 374 1129 q 357 1084 374 1099 q 307 1069 340 1069 m 56 1069 q 6 1084 22 1069 q -11 1129 -11 1099 l -11 1147 q 7 1193 -11 1179 q 57 1207 25 1207 q 106 1192 89 1207 q 122 1147 122 1178 l 122 1129 q 106 1084 122 1099 q 56 1069 89 1069 m 186 1281 q 158 1290 168 1281 q 149 1314 149 1300 q 153 1329 149 1322 q 164 1343 157 1336 l 286 1443 q 310 1458 297 1451 q 336 1464 322 1464 q 372 1449 356 1464 q 389 1413 389 1435 q 380 1382 389 1396 q 353 1360 371 1368 l 217 1290 q 201 1283 210 1286 q 186 1281 193 1281 z "},"İ":{"ha":360,"x_min":114,"x_max":249,"o":"m 238 57 q 220 17 238 33 q 179 0 203 0 q 138 17 153 0 q 122 57 122 33 l 122 915 q 139 956 122 940 q 181 972 156 972 q 221 956 204 972 q 238 915 238 940 l 238 57 m 181 1056 q 131 1070 147 1056 q 114 1115 114 1085 l 114 1135 q 132 1180 114 1165 q 182 1194 150 1194 q 233 1180 217 1194 q 250 1135 250 1165 l 250 1115 q 233 1070 250 1085 q 181 1056 215 1056 z "},"Ị":{"ha":360,"x_min":114,"x_max":249,"o":"m 238 57 q 220 17 238 33 q 179 0 203 0 q 138 17 153 0 q 122 57 122 33 l 122 915 q 139 956 122 940 q 181 972 156 972 q 221 956 204 972 q 238 915 238 940 l 238 57 m 181 -197 q 131 -183 147 -197 q 114 -137 114 -168 l 114 -118 q 132 -73 114 -87 q 182 -58 150 -58 q 233 -73 217 -58 q 250 -118 250 -87 l 250 -137 q 233 -183 250 -168 q 181 -197 215 -197 z "},"Ì":{"ha":360,"x_min":-22,"x_max":238,"o":"m 238 57 q 220 17 238 33 q 179 0 203 0 q 138 17 153 0 q 122 57 122 33 l 122 915 q 139 956 122 940 q 181 972 156 972 q 221 956 204 972 q 238 915 238 940 l 238 57 m 181 1035 q 165 1038 172 1035 q 150 1044 157 1040 l 13 1114 q -22 1167 -22 1133 q -6 1203 -22 1189 q 31 1218 10 1218 q 57 1212 44 1218 q 79 1197 69 1206 l 201 1097 q 214 1083 210 1090 q 218 1068 218 1076 q 208 1044 218 1054 q 181 1035 199 1035 z "},"Ỉ":{"ha":360,"x_min":47,"x_max":294,"o":"m 238 57 q 220 17 238 33 q 179 0 203 0 q 138 17 153 0 q 122 57 122 33 l 122 915 q 139 956 122 940 q 181 972 156 972 q 221 956 204 972 q 238 915 238 940 l 238 57 m 67 1265 q 113 1297 88 1285 q 172 1308 139 1308 q 247 1290 221 1308 q 284 1247 274 1272 q 294 1200 294 1222 q 284 1158 294 1176 q 256 1118 274 1139 q 240 1097 246 1107 q 232 1076 233 1088 q 221 1056 232 1063 q 193 1050 210 1050 q 172 1057 181 1050 q 163 1078 163 1064 q 167 1104 163 1090 q 183 1132 171 1118 q 210 1165 199 1150 q 221 1193 221 1179 q 206 1224 221 1213 q 171 1235 192 1235 q 138 1226 153 1235 q 110 1210 122 1218 q 85 1200 99 1201 q 60 1213 72 1199 q 51 1241 47 1226 q 67 1265 54 1256 z "},"Ȋ":{"ha":360,"x_min":-21,"x_max":382,"o":"m 238 57 q 220 17 238 33 q 179 0 203 0 q 138 17 153 0 q 122 57 122 33 l 122 915 q 139 956 122 940 q 181 972 156 972 q 221 956 204 972 q 238 915 238 940 l 238 57 m 181 1231 q 271 1214 231 1231 q 339 1167 311 1197 q 375 1097 367 1136 q 372 1060 382 1075 q 342 1046 361 1046 q 308 1056 319 1046 q 285 1085 296 1067 q 247 1130 274 1114 q 181 1146 219 1146 q 115 1130 143 1146 q 76 1085 88 1114 q 54 1056 67 1067 q 21 1046 42 1046 q -10 1060 1 1046 q -14 1096 -21 1074 q 23 1165 -4 1135 q 91 1213 50 1196 q 181 1231 132 1231 z "},"Ī":{"ha":360,"x_min":-40,"x_max":408,"o":"m 238 57 q 220 17 238 33 q 179 0 203 0 q 138 17 153 0 q 122 57 122 33 l 122 915 q 139 956 122 940 q 181 972 156 972 q 221 956 204 972 q 238 915 238 940 l 238 57 m 10 1078 q -40 1121 -40 1078 q 10 1165 -40 1165 l 358 1165 q 408 1121 408 1165 q 358 1078 408 1078 l 10 1078 z "},"Į":{"ha":347,"x_min":-7,"x_max":268,"o":"m 138 -272 q 37 -237 81 -272 q -7 -133 -7 -201 q 10 -57 -7 -89 q 53 -2 26 -25 q 113 36 81 21 q 178 60 146 51 l 169 14 l 121 39 l 121 915 q 138 956 121 940 q 181 972 156 972 q 224 956 207 972 q 240 915 240 940 l 240 46 q 233 21 240 32 q 208 3 226 10 q 124 -42 161 -12 q 88 -112 88 -71 q 106 -164 88 -146 q 147 -182 125 -182 q 179 -172 168 -182 q 201 -153 190 -162 q 228 -143 211 -143 q 256 -155 244 -143 q 268 -186 268 -167 q 250 -226 268 -206 q 202 -259 232 -246 q 138 -272 172 -272 z "},"Ĩ":{"ha":360,"x_min":-50,"x_max":414,"o":"m 238 57 q 220 17 238 33 q 179 0 203 0 q 138 17 153 0 q 122 57 122 33 l 122 915 q 139 956 122 940 q 181 972 156 972 q 221 956 204 972 q 238 915 238 940 l 238 57 m 0 1054 q -35 1074 -22 1054 q -46 1128 -49 1094 q -4 1203 -40 1174 q 86 1232 32 1232 q 160 1211 124 1232 q 231 1169 197 1190 q 288 1149 264 1149 q 317 1161 306 1149 q 328 1194 328 1174 q 335 1229 324 1217 q 364 1242 346 1242 q 401 1222 389 1242 q 413 1169 414 1201 q 394 1117 408 1142 q 353 1077 379 1092 q 293 1063 328 1063 q 215 1083 254 1063 q 141 1123 175 1103 q 82 1143 107 1143 q 53 1132 65 1143 q 38 1099 40 1121 q 28 1066 40 1078 q 0 1054 17 1054 z "},"J":{"ha":785,"x_min":81,"x_max":664,"o":"m 351 -14 q 198 29 267 -14 q 90 144 129 72 q 81 176 81 161 q 99 215 81 200 q 135 229 117 229 q 163 221 150 229 q 186 200 176 213 q 256 125 214 153 q 351 97 297 97 q 452 122 408 97 q 522 191 496 147 q 547 290 547 235 l 547 917 q 565 956 547 940 q 607 972 582 972 q 648 956 632 972 q 664 917 664 940 l 664 290 q 623 136 664 206 q 512 26 582 67 q 351 -14 442 -14 z "},"Ĵ":{"ha":785,"x_min":81,"x_max":788,"o":"m 351 -14 q 198 29 267 -14 q 90 144 129 72 q 81 176 81 161 q 99 215 81 200 q 135 229 117 229 q 163 221 150 229 q 186 200 176 213 q 256 125 214 153 q 351 97 297 97 q 452 122 408 97 q 522 191 496 147 q 547 290 547 235 l 547 917 q 565 956 547 940 q 607 972 582 972 q 648 956 632 972 q 664 917 664 940 l 664 290 q 623 136 664 206 q 512 26 582 67 q 351 -14 442 -14 m 622 1157 l 501 1069 q 475 1053 486 1060 q 453 1047 464 1047 q 432 1056 440 1047 q 424 1074 424 1064 q 426 1087 424 1081 q 438 1103 429 1093 l 538 1213 q 565 1233 551 1226 q 597 1240 578 1240 l 615 1240 q 648 1233 635 1240 q 674 1213 661 1226 l 774 1103 q 785 1088 782 1094 q 789 1074 789 1082 q 781 1057 789 1065 q 758 1049 772 1049 q 737 1055 749 1049 q 710 1071 725 1061 l 589 1154 l 622 1157 z "},"K":{"ha":929,"x_min":122,"x_max":871,"o":"m 808 -3 q 767 18 783 -3 l 397 489 l 482 575 l 858 93 q 871 56 871 75 q 851 13 871 28 q 808 -3 831 -3 m 804 974 q 841 956 826 974 q 856 918 856 938 q 839 882 856 899 l 225 301 l 215 431 l 760 953 q 804 974 781 974 m 179 0 q 138 17 153 0 q 122 57 122 33 l 122 915 q 139 956 122 940 q 181 972 156 972 q 222 956 207 972 q 238 915 238 940 l 238 57 q 222 17 238 33 q 179 0 206 0 z "},"Ķ":{"ha":929,"x_min":122,"x_max":871,"o":"m 808 -3 q 767 18 783 -3 l 397 489 l 482 575 l 858 93 q 871 56 871 75 q 851 13 871 28 q 808 -3 831 -3 m 804 974 q 841 956 826 974 q 856 918 856 938 q 839 882 856 899 l 225 301 l 215 431 l 760 953 q 804 974 781 974 m 179 0 q 138 17 153 0 q 122 57 122 33 l 122 915 q 139 956 122 940 q 181 972 156 972 q 222 956 207 972 q 238 915 238 940 l 238 57 q 222 17 238 33 q 179 0 206 0 m 531 -147 q 514 -202 531 -176 q 471 -244 497 -228 q 411 -261 444 -261 q 370 -251 383 -261 q 357 -228 357 -240 q 365 -206 357 -212 q 381 -200 372 -200 q 397 -203 388 -200 q 422 -204 407 -206 q 443 -192 435 -203 q 451 -162 451 -182 q 438 -144 451 -144 q 424 -151 428 -144 q 404 -157 419 -157 q 374 -144 385 -157 q 363 -112 363 -131 q 385 -71 363 -86 q 443 -56 407 -56 q 506 -79 481 -56 q 531 -147 531 -103 z "},"L":{"ha":753,"x_min":122,"x_max":715,"o":"m 658 110 q 699 94 682 110 q 715 54 715 78 q 699 15 715 31 q 658 0 682 0 l 178 0 q 138 17 154 0 q 122 57 122 33 l 122 917 q 139 956 122 940 q 181 972 156 972 q 221 956 204 972 q 238 917 238 940 l 238 85 l 210 110 l 658 110 z "},"Ǉ":{"ha":1538,"x_min":122,"x_max":1417,"o":"m 658 110 q 699 94 682 110 q 715 54 715 78 q 699 15 715 31 q 658 0 682 0 l 178 0 q 138 17 154 0 q 122 57 122 33 l 122 917 q 139 956 122 940 q 181 972 156 972 q 221 956 204 972 q 238 917 238 940 l 238 85 l 210 110 l 658 110 m 1104 -14 q 951 29 1019 -14 q 843 144 882 72 q 833 176 833 161 q 851 215 833 200 q 888 229 869 229 q 916 221 903 229 q 939 200 929 213 q 1008 125 967 153 q 1104 97 1050 97 q 1205 122 1161 97 q 1274 191 1249 147 q 1300 290 1300 235 l 1300 917 q 1317 956 1300 940 q 1360 972 1335 972 q 1401 956 1385 972 q 1417 917 1417 940 l 1417 290 q 1376 136 1417 206 q 1265 26 1335 67 q 1104 -14 1194 -14 z "},"Ĺ":{"ha":753,"x_min":122,"x_max":715,"o":"m 658 110 q 699 94 682 110 q 715 54 715 78 q 699 15 715 31 q 658 0 682 0 l 178 0 q 138 17 154 0 q 122 57 122 33 l 122 917 q 139 956 122 940 q 181 972 156 972 q 221 956 204 972 q 238 917 238 940 l 238 85 l 210 110 l 658 110 m 172 1032 q 144 1042 154 1032 q 135 1065 135 1051 q 139 1081 135 1074 q 150 1094 143 1088 l 272 1194 q 296 1209 283 1203 q 322 1215 308 1215 q 358 1201 342 1215 q 375 1164 375 1186 q 366 1133 375 1147 q 339 1111 357 1119 l 203 1042 q 188 1035 196 1038 q 172 1032 179 1032 z "},"Ľ":{"ha":753,"x_min":122,"x_max":715,"o":"m 658 110 q 699 94 682 110 q 715 54 715 78 q 699 15 715 31 q 658 0 682 0 l 178 0 q 138 17 154 0 q 122 57 122 33 l 122 917 q 139 956 122 940 q 181 972 156 972 q 221 956 204 972 q 238 917 238 940 l 238 85 l 210 110 l 658 110 m 593 925 q 570 845 593 885 q 513 780 547 806 q 442 754 478 754 q 417 763 429 754 q 404 794 404 772 q 419 822 404 818 q 453 835 435 826 q 485 862 474 846 q 497 899 497 878 q 485 926 497 915 q 457 936 474 936 q 437 933 447 936 q 419 925 426 931 q 403 942 410 932 q 396 967 396 951 q 426 1019 397 997 q 493 1040 456 1040 q 565 1007 538 1040 q 593 925 593 974 z "},"Ḽ":{"ha":753,"x_min":122,"x_max":715,"o":"m 658 110 q 699 94 682 110 q 715 54 715 78 q 699 15 715 31 q 658 0 682 0 l 178 0 q 138 17 154 0 q 122 57 122 33 l 122 917 q 139 956 122 940 q 181 972 156 972 q 221 956 204 972 q 238 917 238 940 l 238 85 l 210 110 l 658 110 m 413 -157 l 296 -254 q 274 -271 283 -264 q 249 -278 265 -278 q 228 -269 236 -278 q 219 -251 219 -261 q 222 -237 219 -244 q 232 -222 225 -231 l 322 -119 q 382 -90 344 -90 l 414 -90 q 445 -97 433 -90 q 468 -119 457 -103 l 554 -221 q 565 -237 563 -231 q 567 -251 567 -243 q 559 -269 567 -261 q 538 -276 551 -276 q 513 -270 522 -276 q 490 -253 504 -264 l 369 -153 l 413 -157 z "},"Ļ":{"ha":753,"x_min":122,"x_max":715,"o":"m 658 110 q 699 94 682 110 q 715 54 715 78 q 699 15 715 31 q 658 0 682 0 l 178 0 q 138 17 154 0 q 122 57 122 33 l 122 917 q 139 956 122 940 q 181 972 156 972 q 221 956 204 972 q 238 917 238 940 l 238 85 l 210 110 l 658 110 m 489 -147 q 472 -202 489 -176 q 429 -244 456 -228 q 369 -261 403 -261 q 328 -251 342 -261 q 315 -228 315 -240 q 323 -206 315 -212 q 339 -200 331 -200 q 356 -203 346 -200 q 381 -204 365 -206 q 401 -192 393 -203 q 410 -162 410 -182 q 396 -144 410 -144 q 382 -151 386 -144 q 363 -157 378 -157 q 332 -144 343 -157 q 321 -112 321 -131 q 343 -71 321 -86 q 401 -56 365 -56 q 464 -79 439 -56 q 489 -147 489 -103 z "},"Ŀ":{"ha":750,"x_min":122,"x_max":715,"o":"m 658 110 q 699 94 682 110 q 715 54 715 78 q 699 15 715 31 q 658 0 682 0 l 178 0 q 138 17 154 0 q 122 57 122 33 l 122 917 q 139 956 122 940 q 181 972 156 972 q 221 956 204 972 q 238 917 238 940 l 238 85 l 210 110 l 658 110 m 560 454 q 513 471 531 454 q 496 517 496 488 l 496 544 q 513 592 496 575 q 560 608 531 608 l 571 608 q 618 592 601 608 q 635 544 635 575 l 635 517 q 618 471 635 488 q 571 454 601 454 l 560 454 z "},"Ḷ":{"ha":753,"x_min":122,"x_max":715,"o":"m 658 110 q 699 94 682 110 q 715 54 715 78 q 699 15 715 31 q 658 0 682 0 l 178 0 q 138 17 154 0 q 122 57 122 33 l 122 917 q 139 956 122 940 q 181 972 156 972 q 221 956 204 972 q 238 917 238 940 l 238 85 l 210 110 l 658 110 m 393 -197 q 343 -183 360 -197 q 326 -137 326 -168 l 326 -118 q 344 -73 326 -87 q 394 -58 363 -58 q 446 -73 429 -58 q 463 -118 463 -87 l 463 -137 q 445 -183 463 -168 q 393 -197 428 -197 z "},"ǈ":{"ha":1131,"x_min":122,"x_max":997,"o":"m 658 110 q 699 94 682 110 q 715 54 715 78 q 699 15 715 31 q 658 0 682 0 l 178 0 q 138 17 154 0 q 122 57 122 33 l 122 917 q 139 956 122 940 q 181 972 156 972 q 221 956 204 972 q 238 917 238 940 l 238 85 l 210 110 l 658 110 m 986 -47 q 955 -168 986 -118 q 876 -246 924 -218 q 778 -274 829 -274 q 740 -258 754 -274 q 725 -222 725 -243 l 725 -212 q 739 -179 725 -192 q 774 -161 753 -167 q 828 -135 806 -153 q 863 -90 850 -118 q 875 -22 875 -61 l 875 663 q 891 703 875 686 q 931 719 907 719 q 971 703 956 719 q 986 663 986 686 l 986 -47 m 931 822 q 879 836 896 822 q 863 879 863 850 l 863 899 q 881 942 863 928 q 932 956 899 956 q 982 942 965 956 q 999 899 999 928 l 999 879 q 981 836 999 850 q 931 822 964 822 z "},"Ḻ":{"ha":753,"x_min":122,"x_max":715,"o":"m 658 110 q 699 94 682 110 q 715 54 715 78 q 699 15 715 31 q 658 0 682 0 l 178 0 q 138 17 154 0 q 122 57 122 33 l 122 917 q 139 956 122 940 q 181 972 156 972 q 221 956 204 972 q 238 917 238 940 l 238 85 l 210 110 l 658 110 m 251 -186 q 203 -143 203 -186 q 251 -99 203 -99 l 558 -99 q 607 -143 607 -99 q 558 -186 607 -186 l 251 -186 z "},"Ł":{"ha":829,"x_min":60,"x_max":792,"o":"m 107 429 q 72 446 83 429 q 60 479 60 463 q 90 524 60 510 l 433 675 q 456 681 446 681 q 492 663 481 681 q 503 631 503 644 q 472 586 503 600 l 129 435 q 118 431 124 432 q 107 429 113 429 m 310 99 l 300 111 l 735 111 q 775 95 758 111 q 792 56 792 79 q 775 16 792 32 q 735 0 758 0 l 254 0 q 215 17 231 0 q 199 57 199 33 l 199 917 q 215 956 199 940 q 254 972 231 972 q 294 956 279 972 q 310 917 310 940 l 310 99 z "},"M":{"ha":1144,"x_min":122,"x_max":1024,"o":"m 179 974 q 206 967 192 974 q 229 949 221 960 l 597 392 l 549 393 l 921 949 q 968 974 939 975 q 1007 957 990 972 q 1024 917 1024 942 l 1024 57 q 1007 17 1024 33 q 965 0 990 0 q 924 17 940 0 q 907 57 907 33 l 907 811 l 942 804 l 614 306 q 594 289 606 296 q 569 282 582 282 q 544 289 557 282 q 524 306 532 296 l 200 804 l 229 840 l 229 57 q 214 17 229 33 q 175 0 199 0 q 137 17 151 0 q 122 57 122 33 l 122 917 q 138 956 122 939 q 179 974 154 974 z "},"Ṃ":{"ha":1144,"x_min":122,"x_max":1024,"o":"m 179 974 q 206 967 192 974 q 229 949 221 960 l 597 392 l 549 393 l 921 949 q 968 974 939 975 q 1007 957 990 972 q 1024 917 1024 942 l 1024 57 q 1007 17 1024 33 q 965 0 990 0 q 924 17 940 0 q 907 57 907 33 l 907 811 l 942 804 l 614 306 q 594 289 606 296 q 569 282 582 282 q 544 289 557 282 q 524 306 532 296 l 200 804 l 229 840 l 229 57 q 214 17 229 33 q 175 0 199 0 q 137 17 151 0 q 122 57 122 33 l 122 917 q 138 956 122 939 q 179 974 154 974 m 572 -197 q 522 -183 539 -197 q 506 -137 506 -168 l 506 -118 q 524 -73 506 -87 q 574 -58 542 -58 q 625 -73 608 -58 q 642 -118 642 -87 l 642 -137 q 624 -183 642 -168 q 572 -197 607 -197 z "},"N":{"ha":1014,"x_min":122,"x_max":893,"o":"m 842 972 q 879 958 865 972 q 893 921 893 943 l 893 58 q 876 16 893 32 q 836 0 860 0 q 811 5 824 0 q 792 18 799 10 l 197 804 l 225 821 l 225 51 q 210 15 225 29 q 172 0 196 0 q 136 15 150 0 q 122 51 122 29 l 122 917 q 138 957 122 942 q 176 972 154 972 q 202 967 189 972 q 222 953 215 963 l 808 178 l 790 156 l 790 921 q 805 958 790 943 q 842 972 819 972 z "},"Ǌ":{"ha":1799,"x_min":122,"x_max":1678,"o":"m 842 972 q 879 958 865 972 q 893 921 893 943 l 893 58 q 876 16 893 32 q 836 0 860 0 q 811 5 824 0 q 792 18 799 10 l 197 804 l 225 821 l 225 51 q 210 15 225 29 q 172 0 196 0 q 136 15 150 0 q 122 51 122 29 l 122 917 q 138 957 122 942 q 176 972 154 972 q 202 967 189 972 q 222 953 215 963 l 808 178 l 790 156 l 790 921 q 805 958 790 943 q 842 972 819 972 m 1365 -14 q 1212 29 1281 -14 q 1104 144 1143 72 q 1094 176 1094 161 q 1113 215 1094 200 q 1149 229 1131 229 q 1177 221 1164 229 q 1200 200 1190 213 q 1269 125 1228 153 q 1365 97 1311 97 q 1466 122 1422 97 q 1535 191 1510 147 q 1561 290 1561 235 l 1561 917 q 1578 956 1561 940 q 1621 972 1596 972 q 1662 956 1646 972 q 1678 917 1678 940 l 1678 290 q 1637 136 1678 206 q 1526 26 1596 67 q 1365 -14 1456 -14 z "},"Ń":{"ha":1014,"x_min":122,"x_max":893,"o":"m 842 972 q 879 958 865 972 q 893 921 893 943 l 893 58 q 876 16 893 32 q 836 0 860 0 q 811 5 824 0 q 792 18 799 10 l 197 804 l 225 821 l 225 51 q 210 15 225 29 q 172 0 196 0 q 136 15 150 0 q 122 51 122 29 l 122 917 q 138 957 122 942 q 176 972 154 972 q 202 967 189 972 q 222 953 215 963 l 808 178 l 790 156 l 790 921 q 805 958 790 943 q 842 972 819 972 m 513 1032 q 485 1042 494 1032 q 475 1065 475 1051 q 479 1081 475 1074 q 490 1094 483 1088 l 613 1194 q 636 1209 624 1203 q 663 1215 649 1215 q 699 1201 682 1215 q 715 1164 715 1186 q 706 1133 715 1147 q 679 1111 697 1119 l 543 1042 q 528 1035 536 1038 q 513 1032 519 1032 z "},"Ň":{"ha":1014,"x_min":122,"x_max":893,"o":"m 842 972 q 879 958 865 972 q 893 921 893 943 l 893 58 q 876 16 893 32 q 836 0 860 0 q 811 5 824 0 q 792 18 799 10 l 197 804 l 225 821 l 225 51 q 210 15 225 29 q 172 0 196 0 q 136 15 150 0 q 122 51 122 29 l 122 917 q 138 957 122 942 q 176 972 154 972 q 202 967 189 972 q 222 953 215 963 l 808 178 l 790 156 l 790 921 q 805 958 790 943 q 842 972 819 972 m 492 1124 l 613 1214 q 640 1230 628 1225 q 661 1235 651 1235 q 682 1226 674 1235 q 690 1208 690 1218 q 688 1195 690 1201 q 676 1179 685 1189 l 576 1069 q 550 1049 564 1056 q 517 1042 536 1042 l 499 1042 q 466 1049 479 1042 q 440 1069 453 1056 l 340 1179 q 328 1195 332 1189 q 325 1208 325 1201 q 334 1226 325 1218 q 356 1233 343 1233 q 404 1213 374 1233 l 525 1126 l 492 1124 z "},"Ṋ":{"ha":1014,"x_min":122,"x_max":893,"o":"m 842 972 q 879 958 865 972 q 893 921 893 943 l 893 58 q 876 16 893 32 q 836 0 860 0 q 811 5 824 0 q 792 18 799 10 l 197 804 l 225 821 l 225 51 q 210 15 225 29 q 172 0 196 0 q 136 15 150 0 q 122 51 122 29 l 122 917 q 138 957 122 942 q 176 972 154 972 q 202 967 189 972 q 222 953 215 963 l 808 178 l 790 156 l 790 921 q 805 958 790 943 q 842 972 819 972 m 526 -157 l 410 -254 q 388 -271 397 -264 q 363 -278 379 -278 q 342 -269 350 -278 q 333 -251 333 -261 q 336 -237 333 -244 q 346 -222 339 -231 l 436 -119 q 496 -90 458 -90 l 528 -90 q 559 -97 547 -90 q 582 -119 571 -103 l 668 -221 q 678 -237 676 -231 q 681 -251 681 -243 q 673 -269 681 -261 q 651 -276 665 -276 q 627 -270 636 -276 q 604 -253 618 -264 l 483 -153 l 526 -157 z "},"Ņ":{"ha":1014,"x_min":122,"x_max":893,"o":"m 842 972 q 879 958 865 972 q 893 921 893 943 l 893 58 q 876 16 893 32 q 836 0 860 0 q 811 5 824 0 q 792 18 799 10 l 197 804 l 225 821 l 225 51 q 210 15 225 29 q 172 0 196 0 q 136 15 150 0 q 122 51 122 29 l 122 917 q 138 957 122 942 q 176 972 154 972 q 202 967 189 972 q 222 953 215 963 l 808 178 l 790 156 l 790 921 q 805 958 790 943 q 842 972 819 972 m 603 -147 q 586 -202 603 -176 q 543 -244 569 -228 q 483 -261 517 -261 q 442 -251 456 -261 q 429 -228 429 -240 q 437 -206 429 -212 q 453 -200 444 -200 q 469 -203 460 -200 q 494 -204 479 -206 q 515 -192 507 -203 q 524 -162 524 -182 q 510 -144 524 -144 q 496 -151 500 -144 q 476 -157 492 -157 q 446 -144 457 -157 q 435 -112 435 -131 q 457 -71 435 -86 q 515 -56 479 -56 q 578 -79 553 -56 q 603 -147 603 -103 z "},"Ṅ":{"ha":1014,"x_min":122,"x_max":893,"o":"m 842 972 q 879 958 865 972 q 893 921 893 943 l 893 58 q 876 16 893 32 q 836 0 860 0 q 811 5 824 0 q 792 18 799 10 l 197 804 l 225 821 l 225 51 q 210 15 225 29 q 172 0 196 0 q 136 15 150 0 q 122 51 122 29 l 122 917 q 138 957 122 942 q 176 972 154 972 q 202 967 189 972 q 222 953 215 963 l 808 178 l 790 156 l 790 921 q 805 958 790 943 q 842 972 819 972 m 507 1056 q 457 1070 474 1056 q 440 1115 440 1085 l 440 1135 q 458 1180 440 1165 q 508 1194 476 1194 q 560 1180 543 1194 q 576 1135 576 1165 l 576 1115 q 559 1070 576 1085 q 507 1056 542 1056 z "},"Ṇ":{"ha":1014,"x_min":122,"x_max":893,"o":"m 842 972 q 879 958 865 972 q 893 921 893 943 l 893 58 q 876 16 893 32 q 836 0 860 0 q 811 5 824 0 q 792 18 799 10 l 197 804 l 225 821 l 225 51 q 210 15 225 29 q 172 0 196 0 q 136 15 150 0 q 122 51 122 29 l 122 917 q 138 957 122 942 q 176 972 154 972 q 202 967 189 972 q 222 953 215 963 l 808 178 l 790 156 l 790 921 q 805 958 790 943 q 842 972 819 972 m 507 -197 q 457 -183 474 -197 q 440 -137 440 -168 l 440 -118 q 458 -73 440 -87 q 508 -58 476 -58 q 560 -73 543 -58 q 576 -118 576 -87 l 576 -137 q 559 -183 576 -168 q 507 -197 542 -197 z "},"Ɲ":{"ha":1014,"x_min":-29,"x_max":893,"o":"m 24 -274 q -15 -258 0 -274 q -29 -222 -29 -243 q -17 -180 -29 -193 q 18 -161 -4 -167 q 73 -136 50 -154 q 109 -90 96 -118 q 122 -22 122 -61 l 122 917 q 138 957 122 942 q 176 972 154 972 q 202 967 189 972 q 222 953 215 963 l 808 178 l 788 156 l 788 921 q 803 958 788 943 q 840 972 818 972 q 878 958 864 972 q 893 921 893 943 l 893 58 q 876 16 893 32 q 836 0 860 0 q 811 5 824 0 q 792 18 799 10 l 197 804 l 228 821 l 228 -47 q 212 -142 228 -103 q 172 -207 196 -182 q 119 -246 147 -232 q 65 -266 90 -260 q 24 -274 40 -272 z "},"ǋ":{"ha":1392,"x_min":122,"x_max":1258,"o":"m 842 972 q 879 958 865 972 q 893 921 893 943 l 893 58 q 876 16 893 32 q 836 0 860 0 q 811 5 824 0 q 792 18 799 10 l 197 804 l 225 821 l 225 51 q 210 15 225 29 q 172 0 196 0 q 136 15 150 0 q 122 51 122 29 l 122 917 q 138 957 122 942 q 176 972 154 972 q 202 967 189 972 q 222 953 215 963 l 808 178 l 790 156 l 790 921 q 805 958 790 943 q 842 972 819 972 m 1247 -47 q 1216 -168 1247 -118 q 1138 -246 1185 -218 q 1039 -274 1090 -274 q 1001 -258 1015 -274 q 986 -222 986 -243 l 986 -212 q 1000 -179 986 -192 q 1035 -161 1014 -167 q 1089 -135 1067 -153 q 1124 -90 1111 -118 q 1136 -22 1136 -61 l 1136 663 q 1152 703 1136 686 q 1192 719 1168 719 q 1232 703 1217 719 q 1247 663 1247 686 l 1247 -47 m 1192 822 q 1140 836 1157 822 q 1124 879 1124 850 l 1124 899 q 1142 942 1124 928 q 1193 956 1160 956 q 1243 942 1226 956 q 1260 899 1260 928 l 1260 879 q 1242 836 1260 850 q 1192 822 1225 822 z "},"Ṉ":{"ha":1014,"x_min":122,"x_max":893,"o":"m 842 972 q 879 958 865 972 q 893 921 893 943 l 893 58 q 876 16 893 32 q 836 0 860 0 q 811 5 824 0 q 792 18 799 10 l 197 804 l 225 821 l 225 51 q 210 15 225 29 q 172 0 196 0 q 136 15 150 0 q 122 51 122 29 l 122 917 q 138 957 122 942 q 176 972 154 972 q 202 967 189 972 q 222 953 215 963 l 808 178 l 790 156 l 790 921 q 805 958 790 943 q 842 972 819 972 m 365 -186 q 317 -143 317 -186 q 365 -99 317 -99 l 672 -99 q 721 -143 721 -99 q 672 -186 721 -186 l 365 -186 z "},"Ñ":{"ha":1014,"x_min":122,"x_max":893,"o":"m 842 972 q 879 958 865 972 q 893 921 893 943 l 893 58 q 876 16 893 32 q 836 0 860 0 q 811 5 824 0 q 792 18 799 10 l 197 804 l 225 821 l 225 51 q 210 15 225 29 q 172 0 196 0 q 136 15 150 0 q 122 51 122 29 l 122 917 q 138 957 122 942 q 176 972 154 972 q 202 967 189 972 q 222 953 215 963 l 808 178 l 790 156 l 790 921 q 805 958 790 943 q 842 972 819 972 m 326 1054 q 291 1074 304 1054 q 281 1128 278 1094 q 322 1203 286 1174 q 413 1232 358 1232 q 487 1211 450 1232 q 557 1169 524 1190 q 614 1149 590 1149 q 643 1161 632 1149 q 654 1194 654 1174 q 661 1229 650 1217 q 690 1242 672 1242 q 728 1222 715 1242 q 739 1169 740 1201 q 720 1117 735 1142 q 680 1077 706 1092 q 619 1063 654 1063 q 541 1083 581 1063 q 467 1123 501 1103 q 408 1143 433 1143 q 379 1132 392 1143 q 364 1099 367 1121 q 355 1066 367 1078 q 326 1054 343 1054 z "},"Ŋ":{"ha":1042,"x_min":122,"x_max":921,"o":"m 676 -278 q 633 -264 650 -278 q 617 -228 617 -250 q 632 -189 617 -204 q 671 -174 647 -174 q 756 -157 726 -172 q 798 -112 786 -142 q 810 -43 810 -83 l 810 64 l 818 22 l 221 779 l 233 781 l 233 57 q 217 17 233 33 q 176 0 200 0 q 138 17 153 0 q 122 57 122 33 l 122 917 q 139 957 122 942 q 179 972 156 972 q 205 966 193 972 q 225 949 217 960 l 826 185 l 810 174 l 810 914 q 826 953 810 938 q 865 969 842 969 q 906 953 890 969 q 921 914 921 938 l 921 64 l 921 -40 q 892 -170 921 -117 q 810 -251 864 -224 q 676 -278 756 -278 z "},"O":{"ha":1061,"x_min":63,"x_max":999,"o":"m 999 486 q 964 288 999 379 q 867 129 929 197 q 718 24 804 61 q 531 -14 632 -14 q 342 24 428 -14 q 194 129 257 61 q 97 288 132 197 q 63 486 63 379 q 97 685 63 594 q 194 844 132 776 q 342 949 257 911 q 531 986 428 986 q 718 949 632 986 q 867 844 804 911 q 964 685 929 776 q 999 486 999 594 m 879 486 q 834 688 879 600 q 711 825 789 775 q 531 875 633 875 q 349 825 428 875 q 226 688 271 775 q 182 486 182 600 q 226 285 182 374 q 349 147 271 197 q 531 97 428 97 q 711 147 633 97 q 834 285 789 197 q 879 486 879 374 z "},"Ó":{"ha":1061,"x_min":63,"x_max":999,"o":"m 999 486 q 964 288 999 379 q 867 129 929 197 q 718 24 804 61 q 531 -14 632 -14 q 342 24 428 -14 q 194 129 257 61 q 97 288 132 197 q 63 486 63 379 q 97 685 63 594 q 194 844 132 776 q 342 949 257 911 q 531 986 428 986 q 718 949 632 986 q 867 844 804 911 q 964 685 929 776 q 999 486 999 594 m 879 486 q 834 688 879 600 q 711 825 789 775 q 531 875 633 875 q 349 825 428 875 q 226 688 271 775 q 182 486 182 600 q 226 285 182 374 q 349 147 271 197 q 531 97 428 97 q 711 147 633 97 q 834 285 789 197 q 879 486 879 374 m 535 1032 q 507 1042 517 1032 q 497 1065 497 1051 q 501 1081 497 1074 q 513 1094 506 1088 l 635 1194 q 658 1209 646 1203 q 685 1215 671 1215 q 721 1201 704 1215 q 738 1164 738 1186 q 728 1133 738 1147 q 701 1111 719 1119 l 565 1042 q 550 1035 558 1038 q 535 1032 542 1032 z "},"Ŏ":{"ha":1061,"x_min":63,"x_max":999,"o":"m 999 486 q 964 288 999 379 q 867 129 929 197 q 718 24 804 61 q 531 -14 632 -14 q 342 24 428 -14 q 194 129 257 61 q 97 288 132 197 q 63 486 63 379 q 97 685 63 594 q 194 844 132 776 q 342 949 257 911 q 531 986 428 986 q 718 949 632 986 q 867 844 804 911 q 964 685 929 776 q 999 486 999 594 m 879 486 q 834 688 879 600 q 711 825 789 775 q 531 875 633 875 q 349 825 428 875 q 226 688 271 775 q 182 486 182 600 q 226 285 182 374 q 349 147 271 197 q 531 97 428 97 q 711 147 633 97 q 834 285 789 197 q 879 486 879 374 m 531 1069 q 405 1105 457 1069 q 331 1206 353 1140 q 332 1244 322 1229 q 361 1258 342 1258 q 394 1249 383 1258 q 417 1222 404 1240 q 463 1172 435 1189 q 531 1156 490 1156 q 644 1222 611 1156 q 667 1249 656 1239 q 700 1258 679 1258 q 731 1244 721 1258 q 732 1207 740 1231 q 658 1105 710 1140 q 531 1069 606 1069 z "},"Ǒ":{"ha":1061,"x_min":63,"x_max":999,"o":"m 999 486 q 964 288 999 379 q 867 129 929 197 q 718 24 804 61 q 531 -14 632 -14 q 342 24 428 -14 q 194 129 257 61 q 97 288 132 197 q 63 486 63 379 q 97 685 63 594 q 194 844 132 776 q 342 949 257 911 q 531 986 428 986 q 718 949 632 986 q 867 844 804 911 q 964 685 929 776 q 999 486 999 594 m 879 486 q 834 688 879 600 q 711 825 789 775 q 531 875 633 875 q 349 825 428 875 q 226 688 271 775 q 182 486 182 600 q 226 285 182 374 q 349 147 271 197 q 531 97 428 97 q 711 147 633 97 q 834 285 789 197 q 879 486 879 374 m 515 1124 l 636 1214 q 663 1230 651 1225 q 685 1235 675 1235 q 706 1226 697 1235 q 714 1208 714 1218 q 711 1195 714 1201 q 700 1179 708 1189 l 600 1069 q 574 1049 588 1056 q 540 1042 560 1042 l 522 1042 q 490 1049 503 1042 q 464 1069 476 1056 l 364 1179 q 352 1195 356 1189 q 349 1208 349 1201 q 358 1226 349 1218 q 379 1233 367 1233 q 428 1213 397 1233 l 549 1126 l 515 1124 z "},"Ô":{"ha":1061,"x_min":63,"x_max":999,"o":"m 999 486 q 964 288 999 379 q 867 129 929 197 q 718 24 804 61 q 531 -14 632 -14 q 342 24 428 -14 q 194 129 257 61 q 97 288 132 197 q 63 486 63 379 q 97 685 63 594 q 194 844 132 776 q 342 949 257 911 q 531 986 428 986 q 718 949 632 986 q 867 844 804 911 q 964 685 929 776 q 999 486 999 594 m 879 486 q 834 688 879 600 q 711 825 789 775 q 531 875 633 875 q 349 825 428 875 q 226 688 271 775 q 182 486 182 600 q 226 285 182 374 q 349 147 271 197 q 531 97 428 97 q 711 147 633 97 q 834 285 789 197 q 879 486 879 374 m 546 1157 l 425 1069 q 399 1053 410 1060 q 376 1047 388 1047 q 356 1056 364 1047 q 347 1074 347 1064 q 350 1087 347 1081 q 361 1103 353 1093 l 461 1213 q 488 1233 475 1226 q 521 1240 501 1240 l 539 1240 q 572 1233 558 1240 q 597 1213 585 1226 l 697 1103 q 709 1088 706 1094 q 713 1074 713 1082 q 704 1057 713 1065 q 682 1049 696 1049 q 660 1055 672 1049 q 633 1071 649 1061 l 513 1154 l 546 1157 z "},"Ố":{"ha":1061,"x_min":63,"x_max":999,"o":"m 999 486 q 964 288 999 379 q 867 129 929 197 q 718 24 804 61 q 531 -14 632 -14 q 342 24 428 -14 q 194 129 257 61 q 97 288 132 197 q 63 486 63 379 q 97 685 63 594 q 194 844 132 776 q 342 949 257 911 q 531 986 428 986 q 718 949 632 986 q 867 844 804 911 q 964 685 929 776 q 999 486 999 594 m 879 486 q 834 688 879 600 q 711 825 789 775 q 531 875 633 875 q 349 825 428 875 q 226 688 271 775 q 182 486 182 600 q 226 285 182 374 q 349 147 271 197 q 531 97 428 97 q 711 147 633 97 q 834 285 789 197 q 879 486 879 374 m 546 1157 l 425 1069 q 399 1053 410 1060 q 376 1047 388 1047 q 356 1056 364 1047 q 347 1074 347 1064 q 350 1087 347 1081 q 361 1103 353 1093 l 461 1213 q 488 1233 475 1226 q 521 1240 501 1240 l 539 1240 q 572 1233 558 1240 q 597 1213 585 1226 l 697 1103 q 709 1088 706 1094 q 713 1074 713 1082 q 704 1057 713 1065 q 682 1049 696 1049 q 660 1055 672 1049 q 633 1071 649 1061 l 513 1154 l 546 1157 m 736 1144 q 708 1154 718 1144 q 699 1178 699 1164 q 703 1193 699 1186 q 714 1207 707 1200 l 836 1307 q 860 1322 847 1315 q 886 1328 872 1328 q 922 1313 906 1328 q 939 1276 939 1299 q 930 1246 939 1260 q 903 1224 921 1232 l 767 1154 q 751 1147 760 1150 q 736 1144 743 1144 z "},"Ộ":{"ha":1061,"x_min":63,"x_max":999,"o":"m 999 486 q 964 288 999 379 q 867 129 929 197 q 718 24 804 61 q 531 -14 632 -14 q 342 24 428 -14 q 194 129 257 61 q 97 288 132 197 q 63 486 63 379 q 97 685 63 594 q 194 844 132 776 q 342 949 257 911 q 531 986 428 986 q 718 949 632 986 q 867 844 804 911 q 964 685 929 776 q 999 486 999 594 m 879 486 q 834 688 879 600 q 711 825 789 775 q 531 875 633 875 q 349 825 428 875 q 226 688 271 775 q 182 486 182 600 q 226 285 182 374 q 349 147 271 197 q 531 97 428 97 q 711 147 633 97 q 834 285 789 197 q 879 486 879 374 m 529 -197 q 479 -183 496 -197 q 463 -137 463 -168 l 463 -118 q 481 -73 463 -87 q 531 -58 499 -58 q 582 -73 565 -58 q 599 -118 599 -87 l 599 -137 q 581 -183 599 -168 q 529 -197 564 -197 m 546 1157 l 425 1069 q 399 1053 410 1060 q 376 1047 388 1047 q 356 1056 364 1047 q 347 1074 347 1064 q 350 1087 347 1081 q 361 1103 353 1093 l 461 1213 q 488 1233 475 1226 q 521 1240 501 1240 l 539 1240 q 572 1233 558 1240 q 597 1213 585 1226 l 697 1103 q 709 1088 706 1094 q 713 1074 713 1082 q 704 1057 713 1065 q 682 1049 696 1049 q 660 1055 672 1049 q 633 1071 649 1061 l 513 1154 l 546 1157 z "},"Ồ":{"ha":1061,"x_min":63,"x_max":999,"o":"m 999 486 q 964 288 999 379 q 867 129 929 197 q 718 24 804 61 q 531 -14 632 -14 q 342 24 428 -14 q 194 129 257 61 q 97 288 132 197 q 63 486 63 379 q 97 685 63 594 q 194 844 132 776 q 342 949 257 911 q 531 986 428 986 q 718 949 632 986 q 867 844 804 911 q 964 685 929 776 q 999 486 999 594 m 879 486 q 834 688 879 600 q 711 825 789 775 q 531 875 633 875 q 349 825 428 875 q 226 688 271 775 q 182 486 182 600 q 226 285 182 374 q 349 147 271 197 q 531 97 428 97 q 711 147 633 97 q 834 285 789 197 q 879 486 879 374 m 546 1157 l 425 1069 q 399 1053 410 1060 q 376 1047 388 1047 q 356 1056 364 1047 q 347 1074 347 1064 q 350 1087 347 1081 q 361 1103 353 1093 l 461 1213 q 488 1233 475 1226 q 521 1240 501 1240 l 539 1240 q 572 1233 558 1240 q 597 1213 585 1226 l 697 1103 q 709 1088 706 1094 q 713 1074 713 1082 q 704 1057 713 1065 q 682 1049 696 1049 q 660 1055 672 1049 q 633 1071 649 1061 l 513 1154 l 546 1157 m 726 1217 q 710 1219 718 1217 q 696 1226 703 1222 l 558 1296 q 524 1349 524 1315 q 540 1385 524 1371 q 576 1400 556 1400 q 603 1394 590 1400 q 625 1379 615 1388 l 747 1279 q 760 1265 756 1272 q 764 1250 764 1258 q 754 1226 764 1236 q 726 1217 744 1217 z "},"Ổ":{"ha":1061,"x_min":63,"x_max":999,"o":"m 999 486 q 964 288 999 379 q 867 129 929 197 q 718 24 804 61 q 531 -14 632 -14 q 342 24 428 -14 q 194 129 257 61 q 97 288 132 197 q 63 486 63 379 q 97 685 63 594 q 194 844 132 776 q 342 949 257 911 q 531 986 428 986 q 718 949 632 986 q 867 844 804 911 q 964 685 929 776 q 999 486 999 594 m 879 486 q 834 688 879 600 q 711 825 789 775 q 531 875 633 875 q 349 825 428 875 q 226 688 271 775 q 182 486 182 600 q 226 285 182 374 q 349 147 271 197 q 531 97 428 97 q 711 147 633 97 q 834 285 789 197 q 879 486 879 374 m 547 1185 l 431 1088 q 409 1070 418 1076 q 383 1064 400 1064 q 363 1072 371 1064 q 354 1089 354 1079 q 357 1103 354 1097 q 367 1119 360 1110 l 457 1222 q 517 1250 479 1250 l 549 1250 q 580 1244 568 1250 q 603 1222 592 1239 l 689 1119 q 699 1104 697 1111 q 701 1090 701 1097 q 694 1072 701 1081 q 672 1064 686 1064 q 648 1071 657 1064 q 625 1088 639 1078 l 504 1189 l 547 1185 m 617 1368 q 663 1399 638 1388 q 722 1411 689 1411 q 798 1393 771 1411 q 835 1350 825 1375 q 846 1303 846 1325 q 835 1260 846 1279 q 806 1221 825 1242 q 790 1200 796 1210 q 783 1179 783 1190 q 772 1158 782 1165 q 747 1150 763 1150 q 723 1158 733 1150 q 713 1181 713 1167 q 717 1207 713 1193 q 733 1235 722 1221 q 760 1267 749 1253 q 771 1296 771 1282 q 756 1326 771 1315 q 722 1338 742 1338 q 688 1329 703 1338 q 660 1313 672 1321 q 637 1303 650 1304 q 610 1315 624 1301 q 602 1344 599 1329 q 617 1368 606 1358 z "},"Ỗ":{"ha":1061,"x_min":63,"x_max":999,"o":"m 999 486 q 964 288 999 379 q 867 129 929 197 q 718 24 804 61 q 531 -14 632 -14 q 342 24 428 -14 q 194 129 257 61 q 97 288 132 197 q 63 486 63 379 q 97 685 63 594 q 194 844 132 776 q 342 949 257 911 q 531 986 428 986 q 718 949 632 986 q 867 844 804 911 q 964 685 929 776 q 999 486 999 594 m 879 486 q 834 688 879 600 q 711 825 789 775 q 531 875 633 875 q 349 825 428 875 q 226 688 271 775 q 182 486 182 600 q 226 285 182 374 q 349 147 271 197 q 531 97 428 97 q 711 147 633 97 q 834 285 789 197 q 879 486 879 374 m 546 1157 l 425 1069 q 399 1053 410 1060 q 376 1047 388 1047 q 356 1056 364 1047 q 347 1074 347 1064 q 350 1087 347 1081 q 361 1103 353 1093 l 461 1213 q 488 1233 475 1226 q 521 1240 501 1240 l 539 1240 q 572 1233 558 1240 q 597 1213 585 1226 l 697 1103 q 709 1088 706 1094 q 713 1074 713 1082 q 704 1057 713 1065 q 682 1049 696 1049 q 660 1055 672 1049 q 633 1071 649 1061 l 513 1154 l 546 1157 m 356 1244 q 320 1265 333 1244 q 310 1318 307 1285 q 351 1393 315 1364 q 442 1422 388 1422 q 516 1401 479 1422 q 586 1360 553 1381 q 643 1339 619 1339 q 672 1351 661 1339 q 683 1385 683 1364 q 690 1419 679 1407 q 719 1432 701 1432 q 757 1412 744 1432 q 768 1360 769 1392 q 749 1307 764 1332 q 709 1267 735 1282 q 649 1253 683 1253 q 570 1273 610 1253 q 497 1313 531 1293 q 438 1333 463 1333 q 408 1322 421 1333 q 393 1289 396 1311 q 384 1256 396 1268 q 356 1244 372 1244 z "},"Ȍ":{"ha":1061,"x_min":63,"x_max":999,"o":"m 999 486 q 964 288 999 379 q 867 129 929 197 q 718 24 804 61 q 531 -14 632 -14 q 342 24 428 -14 q 194 129 257 61 q 97 288 132 197 q 63 486 63 379 q 97 685 63 594 q 194 844 132 776 q 342 949 257 911 q 531 986 428 986 q 718 949 632 986 q 867 844 804 911 q 964 685 929 776 q 999 486 999 594 m 879 486 q 834 688 879 600 q 711 825 789 775 q 531 875 633 875 q 349 825 428 875 q 226 688 271 775 q 182 486 182 600 q 226 285 182 374 q 349 147 271 197 q 531 97 428 97 q 711 147 633 97 q 834 285 789 197 q 879 486 879 374 m 440 1047 q 424 1050 432 1047 q 410 1057 417 1053 l 272 1126 q 238 1179 238 1146 q 253 1216 238 1201 q 290 1231 269 1231 q 317 1224 304 1231 q 339 1210 329 1218 l 461 1110 q 474 1096 469 1103 q 478 1081 478 1089 q 468 1057 478 1067 q 440 1047 458 1047 m 690 1051 q 676 1054 683 1051 q 660 1061 668 1057 l 524 1131 q 488 1183 488 1150 q 504 1220 488 1206 q 540 1235 521 1235 q 568 1228 556 1235 q 590 1214 581 1222 l 713 1114 q 724 1100 721 1107 q 728 1085 728 1093 q 718 1061 728 1071 q 690 1051 708 1051 z "},"Ö":{"ha":1061,"x_min":63,"x_max":999,"o":"m 999 486 q 964 288 999 379 q 867 129 929 197 q 718 24 804 61 q 531 -14 632 -14 q 342 24 428 -14 q 194 129 257 61 q 97 288 132 197 q 63 486 63 379 q 97 685 63 594 q 194 844 132 776 q 342 949 257 911 q 531 986 428 986 q 718 949 632 986 q 867 844 804 911 q 964 685 929 776 q 999 486 999 594 m 879 486 q 834 688 879 600 q 711 825 789 775 q 531 875 633 875 q 349 825 428 875 q 226 688 271 775 q 182 486 182 600 q 226 285 182 374 q 349 147 271 197 q 531 97 428 97 q 711 147 633 97 q 834 285 789 197 q 879 486 879 374 m 657 1069 q 607 1084 624 1069 q 590 1129 590 1099 l 590 1147 q 608 1193 590 1179 q 657 1207 625 1207 q 707 1192 690 1207 q 724 1147 724 1178 l 724 1129 q 707 1084 724 1099 q 657 1069 690 1069 m 406 1069 q 356 1084 372 1069 q 339 1129 339 1099 l 339 1147 q 357 1193 339 1179 q 407 1207 375 1207 q 456 1192 439 1207 q 472 1147 472 1178 l 472 1129 q 456 1084 472 1099 q 406 1069 439 1069 z "},"Ȫ":{"ha":1061,"x_min":63,"x_max":999,"o":"m 999 486 q 964 288 999 379 q 867 129 929 197 q 718 24 804 61 q 531 -14 632 -14 q 342 24 428 -14 q 194 129 257 61 q 97 288 132 197 q 63 486 63 379 q 97 685 63 594 q 194 844 132 776 q 342 949 257 911 q 531 986 428 986 q 718 949 632 986 q 867 844 804 911 q 964 685 929 776 q 999 486 999 594 m 879 486 q 834 688 879 600 q 711 825 789 775 q 531 875 633 875 q 349 825 428 875 q 226 688 271 775 q 182 486 182 600 q 226 285 182 374 q 349 147 271 197 q 531 97 428 97 q 711 147 633 97 q 834 285 789 197 q 879 486 879 374 m 657 1069 q 607 1084 624 1069 q 590 1129 590 1099 l 590 1147 q 608 1193 590 1179 q 657 1207 625 1207 q 707 1192 690 1207 q 724 1147 724 1178 l 724 1129 q 707 1084 724 1099 q 657 1069 690 1069 m 406 1069 q 356 1084 372 1069 q 339 1129 339 1099 l 339 1147 q 357 1193 339 1179 q 407 1207 375 1207 q 456 1192 439 1207 q 472 1147 472 1178 l 472 1129 q 456 1084 472 1099 q 406 1069 439 1069 m 360 1326 q 310 1369 310 1326 q 360 1414 310 1414 l 708 1414 q 758 1369 758 1414 q 708 1326 758 1326 l 360 1326 z "},"Ȱ":{"ha":1061,"x_min":63,"x_max":999,"o":"m 999 486 q 964 288 999 379 q 867 129 929 197 q 718 24 804 61 q 531 -14 632 -14 q 342 24 428 -14 q 194 129 257 61 q 97 288 132 197 q 63 486 63 379 q 97 685 63 594 q 194 844 132 776 q 342 949 257 911 q 531 986 428 986 q 718 949 632 986 q 867 844 804 911 q 964 685 929 776 q 999 486 999 594 m 879 486 q 834 688 879 600 q 711 825 789 775 q 531 875 633 875 q 349 825 428 875 q 226 688 271 775 q 182 486 182 600 q 226 285 182 374 q 349 147 271 197 q 531 97 428 97 q 711 147 633 97 q 834 285 789 197 q 879 486 879 374 m 529 1056 q 479 1070 496 1056 q 463 1115 463 1085 l 463 1135 q 481 1180 463 1165 q 531 1194 499 1194 q 582 1180 565 1194 q 599 1135 599 1165 l 599 1115 q 581 1070 599 1085 q 529 1056 564 1056 m 360 1326 q 310 1369 310 1326 q 360 1414 310 1414 l 708 1414 q 758 1369 758 1414 q 708 1326 758 1326 l 360 1326 z "},"Ọ":{"ha":1061,"x_min":63,"x_max":999,"o":"m 999 486 q 964 288 999 379 q 867 129 929 197 q 718 24 804 61 q 531 -14 632 -14 q 342 24 428 -14 q 194 129 257 61 q 97 288 132 197 q 63 486 63 379 q 97 685 63 594 q 194 844 132 776 q 342 949 257 911 q 531 986 428 986 q 718 949 632 986 q 867 844 804 911 q 964 685 929 776 q 999 486 999 594 m 879 486 q 834 688 879 600 q 711 825 789 775 q 531 875 633 875 q 349 825 428 875 q 226 688 271 775 q 182 486 182 600 q 226 285 182 374 q 349 147 271 197 q 531 97 428 97 q 711 147 633 97 q 834 285 789 197 q 879 486 879 374 m 529 -197 q 479 -183 496 -197 q 463 -137 463 -168 l 463 -118 q 481 -73 463 -87 q 531 -58 499 -58 q 582 -73 565 -58 q 599 -118 599 -87 l 599 -137 q 581 -183 599 -168 q 529 -197 564 -197 z "},"Ò":{"ha":1061,"x_min":63,"x_max":999,"o":"m 999 486 q 964 288 999 379 q 867 129 929 197 q 718 24 804 61 q 531 -14 632 -14 q 342 24 428 -14 q 194 129 257 61 q 97 288 132 197 q 63 486 63 379 q 97 685 63 594 q 194 844 132 776 q 342 949 257 911 q 531 986 428 986 q 718 949 632 986 q 867 844 804 911 q 964 685 929 776 q 999 486 999 594 m 879 486 q 834 688 879 600 q 711 825 789 775 q 531 875 633 875 q 349 825 428 875 q 226 688 271 775 q 182 486 182 600 q 226 285 182 374 q 349 147 271 197 q 531 97 428 97 q 711 147 633 97 q 834 285 789 197 q 879 486 879 374 m 531 1035 q 515 1038 522 1035 q 500 1044 507 1040 l 363 1114 q 328 1167 328 1133 q 344 1203 328 1189 q 381 1218 360 1218 q 407 1212 394 1218 q 429 1197 419 1206 l 551 1097 q 564 1083 560 1090 q 568 1068 568 1076 q 558 1044 568 1054 q 531 1035 549 1035 z "},"Ỏ":{"ha":1061,"x_min":63,"x_max":999,"o":"m 999 486 q 964 288 999 379 q 867 129 929 197 q 718 24 804 61 q 531 -14 632 -14 q 342 24 428 -14 q 194 129 257 61 q 97 288 132 197 q 63 486 63 379 q 97 685 63 594 q 194 844 132 776 q 342 949 257 911 q 531 986 428 986 q 718 949 632 986 q 867 844 804 911 q 964 685 929 776 q 999 486 999 594 m 879 486 q 834 688 879 600 q 711 825 789 775 q 531 875 633 875 q 349 825 428 875 q 226 688 271 775 q 182 486 182 600 q 226 285 182 374 q 349 147 271 197 q 531 97 428 97 q 711 147 633 97 q 834 285 789 197 q 879 486 879 374 m 415 1265 q 462 1297 436 1285 q 521 1308 488 1308 q 596 1290 569 1308 q 633 1247 622 1272 q 643 1200 643 1222 q 633 1158 643 1176 q 604 1118 622 1139 q 588 1097 594 1107 q 581 1076 582 1088 q 569 1056 581 1063 q 542 1050 558 1050 q 520 1057 529 1050 q 511 1078 511 1064 q 515 1104 511 1090 q 532 1132 519 1118 q 558 1165 547 1150 q 569 1193 569 1179 q 555 1224 569 1213 q 519 1235 540 1235 q 486 1226 501 1235 q 458 1210 471 1218 q 434 1200 447 1201 q 408 1213 421 1199 q 399 1241 396 1226 q 415 1265 403 1256 z "},"Ơ":{"ha":1061,"x_min":63,"x_max":999,"o":"m 999 486 q 964 288 999 379 q 867 129 929 197 q 718 24 804 61 q 531 -14 632 -14 q 342 24 428 -14 q 194 129 257 61 q 97 288 132 197 q 63 486 63 379 q 97 685 63 594 q 194 844 132 776 q 342 949 257 911 q 531 986 428 986 q 718 949 632 986 q 867 844 804 911 q 964 685 929 776 q 999 486 999 594 m 879 486 q 834 688 879 600 q 711 825 789 775 q 531 875 633 875 q 349 825 428 875 q 226 688 271 775 q 182 486 182 600 q 226 285 182 374 q 349 147 271 197 q 531 97 428 97 q 711 147 633 97 q 834 285 789 197 q 879 486 879 374 m 638 875 l 638 971 q 732 994 700 971 q 764 1071 764 1018 q 776 1110 764 1092 q 813 1129 788 1129 q 849 1109 840 1129 q 858 1071 858 1089 q 833 971 858 1015 q 760 901 808 926 q 638 875 711 875 z "},"Ớ":{"ha":1061,"x_min":63,"x_max":999,"o":"m 999 486 q 964 288 999 379 q 867 129 929 197 q 718 24 804 61 q 531 -14 632 -14 q 342 24 428 -14 q 194 129 257 61 q 97 288 132 197 q 63 486 63 379 q 97 685 63 594 q 194 844 132 776 q 342 949 257 911 q 531 986 428 986 q 718 949 632 986 q 867 844 804 911 q 964 685 929 776 q 999 486 999 594 m 879 486 q 834 688 879 600 q 711 825 789 775 q 531 875 633 875 q 349 825 428 875 q 226 688 271 775 q 182 486 182 600 q 226 285 182 374 q 349 147 271 197 q 531 97 428 97 q 711 147 633 97 q 834 285 789 197 q 879 486 879 374 m 638 875 l 638 971 q 732 994 700 971 q 764 1071 764 1018 q 776 1110 764 1092 q 813 1129 788 1129 q 849 1109 840 1129 q 858 1071 858 1089 q 833 971 858 1015 q 760 901 808 926 q 638 875 711 875 m 535 1032 q 507 1042 517 1032 q 497 1065 497 1051 q 501 1081 497 1074 q 513 1094 506 1088 l 635 1194 q 658 1209 646 1203 q 685 1215 671 1215 q 721 1201 704 1215 q 738 1164 738 1186 q 728 1133 738 1147 q 701 1111 719 1119 l 565 1042 q 550 1035 558 1038 q 535 1032 542 1032 z "},"Ợ":{"ha":1061,"x_min":63,"x_max":999,"o":"m 999 486 q 964 288 999 379 q 867 129 929 197 q 718 24 804 61 q 531 -14 632 -14 q 342 24 428 -14 q 194 129 257 61 q 97 288 132 197 q 63 486 63 379 q 97 685 63 594 q 194 844 132 776 q 342 949 257 911 q 531 986 428 986 q 718 949 632 986 q 867 844 804 911 q 964 685 929 776 q 999 486 999 594 m 879 486 q 834 688 879 600 q 711 825 789 775 q 531 875 633 875 q 349 825 428 875 q 226 688 271 775 q 182 486 182 600 q 226 285 182 374 q 349 147 271 197 q 531 97 428 97 q 711 147 633 97 q 834 285 789 197 q 879 486 879 374 m 638 875 l 638 971 q 732 994 700 971 q 764 1071 764 1018 q 776 1110 764 1092 q 813 1129 788 1129 q 849 1109 840 1129 q 858 1071 858 1089 q 833 971 858 1015 q 760 901 808 926 q 638 875 711 875 m 529 -197 q 479 -183 496 -197 q 463 -137 463 -168 l 463 -118 q 481 -73 463 -87 q 531 -58 499 -58 q 582 -73 565 -58 q 599 -118 599 -87 l 599 -137 q 581 -183 599 -168 q 529 -197 564 -197 z "},"Ờ":{"ha":1061,"x_min":63,"x_max":999,"o":"m 999 486 q 964 288 999 379 q 867 129 929 197 q 718 24 804 61 q 531 -14 632 -14 q 342 24 428 -14 q 194 129 257 61 q 97 288 132 197 q 63 486 63 379 q 97 685 63 594 q 194 844 132 776 q 342 949 257 911 q 531 986 428 986 q 718 949 632 986 q 867 844 804 911 q 964 685 929 776 q 999 486 999 594 m 879 486 q 834 688 879 600 q 711 825 789 775 q 531 875 633 875 q 349 825 428 875 q 226 688 271 775 q 182 486 182 600 q 226 285 182 374 q 349 147 271 197 q 531 97 428 97 q 711 147 633 97 q 834 285 789 197 q 879 486 879 374 m 638 875 l 638 971 q 732 994 700 971 q 764 1071 764 1018 q 776 1110 764 1092 q 813 1129 788 1129 q 849 1109 840 1129 q 858 1071 858 1089 q 833 971 858 1015 q 760 901 808 926 q 638 875 711 875 m 531 1035 q 515 1038 522 1035 q 500 1044 507 1040 l 363 1114 q 328 1167 328 1133 q 344 1203 328 1189 q 381 1218 360 1218 q 407 1212 394 1218 q 429 1197 419 1206 l 551 1097 q 564 1083 560 1090 q 568 1068 568 1076 q 558 1044 568 1054 q 531 1035 549 1035 z "},"Ở":{"ha":1061,"x_min":63,"x_max":999,"o":"m 999 486 q 964 288 999 379 q 867 129 929 197 q 718 24 804 61 q 531 -14 632 -14 q 342 24 428 -14 q 194 129 257 61 q 97 288 132 197 q 63 486 63 379 q 97 685 63 594 q 194 844 132 776 q 342 949 257 911 q 531 986 428 986 q 718 949 632 986 q 867 844 804 911 q 964 685 929 776 q 999 486 999 594 m 879 486 q 834 688 879 600 q 711 825 789 775 q 531 875 633 875 q 349 825 428 875 q 226 688 271 775 q 182 486 182 600 q 226 285 182 374 q 349 147 271 197 q 531 97 428 97 q 711 147 633 97 q 834 285 789 197 q 879 486 879 374 m 638 875 l 638 971 q 732 994 700 971 q 764 1071 764 1018 q 776 1110 764 1092 q 813 1129 788 1129 q 849 1109 840 1129 q 858 1071 858 1089 q 833 971 858 1015 q 760 901 808 926 q 638 875 711 875 m 415 1265 q 462 1297 436 1285 q 521 1308 488 1308 q 596 1290 569 1308 q 633 1247 622 1272 q 643 1200 643 1222 q 633 1158 643 1176 q 604 1118 622 1139 q 588 1097 594 1107 q 581 1076 582 1088 q 569 1056 581 1063 q 542 1050 558 1050 q 520 1057 529 1050 q 511 1078 511 1064 q 515 1104 511 1090 q 532 1132 519 1118 q 558 1165 547 1150 q 569 1193 569 1179 q 555 1224 569 1213 q 519 1235 540 1235 q 486 1226 501 1235 q 458 1210 471 1218 q 434 1200 447 1201 q 408 1213 421 1199 q 399 1241 396 1226 q 415 1265 403 1256 z "},"Ỡ":{"ha":1061,"x_min":63,"x_max":999,"o":"m 999 486 q 964 288 999 379 q 867 129 929 197 q 718 24 804 61 q 531 -14 632 -14 q 342 24 428 -14 q 194 129 257 61 q 97 288 132 197 q 63 486 63 379 q 97 685 63 594 q 194 844 132 776 q 342 949 257 911 q 531 986 428 986 q 718 949 632 986 q 867 844 804 911 q 964 685 929 776 q 999 486 999 594 m 879 486 q 834 688 879 600 q 711 825 789 775 q 531 875 633 875 q 349 825 428 875 q 226 688 271 775 q 182 486 182 600 q 226 285 182 374 q 349 147 271 197 q 531 97 428 97 q 711 147 633 97 q 834 285 789 197 q 879 486 879 374 m 638 875 l 638 971 q 732 994 700 971 q 764 1071 764 1018 q 776 1110 764 1092 q 813 1129 788 1129 q 849 1109 840 1129 q 858 1071 858 1089 q 833 971 858 1015 q 760 901 808 926 q 638 875 711 875 m 336 1065 q 301 1085 314 1065 q 290 1139 288 1106 q 332 1214 296 1185 q 422 1243 368 1243 q 497 1222 460 1243 q 567 1181 533 1201 q 624 1160 600 1160 q 653 1172 642 1160 q 664 1206 664 1185 q 671 1240 660 1228 q 700 1253 682 1253 q 738 1233 725 1253 q 749 1181 750 1213 q 730 1128 744 1153 q 690 1088 715 1103 q 629 1074 664 1074 q 551 1094 590 1074 q 477 1134 511 1114 q 418 1154 443 1154 q 389 1143 401 1154 q 374 1110 376 1132 q 365 1077 376 1089 q 336 1065 353 1065 z "},"Ő":{"ha":1061,"x_min":63,"x_max":999,"o":"m 999 486 q 964 288 999 379 q 867 129 929 197 q 718 24 804 61 q 531 -14 632 -14 q 342 24 428 -14 q 194 129 257 61 q 97 288 132 197 q 63 486 63 379 q 97 685 63 594 q 194 844 132 776 q 342 949 257 911 q 531 986 428 986 q 718 949 632 986 q 867 844 804 911 q 964 685 929 776 q 999 486 999 594 m 879 486 q 834 688 879 600 q 711 825 789 775 q 531 875 633 875 q 349 825 428 875 q 226 688 271 775 q 182 486 182 600 q 226 285 182 374 q 349 147 271 197 q 531 97 428 97 q 711 147 633 97 q 834 285 789 197 q 879 486 879 374 m 396 1051 q 369 1076 369 1051 q 381 1110 369 1092 l 453 1219 q 472 1242 460 1232 q 504 1251 485 1251 q 544 1238 526 1251 q 561 1200 561 1224 q 556 1182 561 1190 q 543 1165 551 1174 l 457 1079 q 430 1059 444 1067 q 396 1051 415 1051 m 625 1051 q 599 1076 599 1051 q 611 1110 599 1090 l 683 1219 q 703 1240 690 1232 q 733 1249 715 1249 q 772 1238 753 1249 q 790 1203 790 1228 q 786 1183 790 1192 q 774 1165 782 1174 l 686 1079 q 659 1059 674 1067 q 625 1051 644 1051 z "},"Ȏ":{"ha":1061,"x_min":63,"x_max":999,"o":"m 999 486 q 964 288 999 379 q 867 129 929 197 q 718 24 804 61 q 531 -14 632 -14 q 342 24 428 -14 q 194 129 257 61 q 97 288 132 197 q 63 486 63 379 q 97 685 63 594 q 194 844 132 776 q 342 949 257 911 q 531 986 428 986 q 718 949 632 986 q 867 844 804 911 q 964 685 929 776 q 999 486 999 594 m 879 486 q 834 688 879 600 q 711 825 789 775 q 531 875 633 875 q 349 825 428 875 q 226 688 271 775 q 182 486 182 600 q 226 285 182 374 q 349 147 271 197 q 531 97 428 97 q 711 147 633 97 q 834 285 789 197 q 879 486 879 374 m 529 1231 q 619 1214 579 1231 q 688 1167 660 1197 q 724 1097 715 1136 q 720 1060 731 1075 q 690 1046 710 1046 q 656 1056 668 1046 q 633 1085 644 1067 q 595 1130 622 1114 q 529 1146 568 1146 q 464 1130 492 1146 q 425 1085 436 1114 q 403 1056 415 1067 q 369 1046 390 1046 q 339 1060 350 1046 q 335 1096 328 1074 q 372 1165 344 1135 q 440 1213 399 1196 q 529 1231 481 1231 z "},"Ō":{"ha":1061,"x_min":63,"x_max":999,"o":"m 999 486 q 964 288 999 379 q 867 129 929 197 q 718 24 804 61 q 531 -14 632 -14 q 342 24 428 -14 q 194 129 257 61 q 97 288 132 197 q 63 486 63 379 q 97 685 63 594 q 194 844 132 776 q 342 949 257 911 q 531 986 428 986 q 718 949 632 986 q 867 844 804 911 q 964 685 929 776 q 999 486 999 594 m 879 486 q 834 688 879 600 q 711 825 789 775 q 531 875 633 875 q 349 825 428 875 q 226 688 271 775 q 182 486 182 600 q 226 285 182 374 q 349 147 271 197 q 531 97 428 97 q 711 147 633 97 q 834 285 789 197 q 879 486 879 374 m 360 1078 q 310 1121 310 1078 q 360 1165 310 1165 l 708 1165 q 758 1121 758 1165 q 708 1078 758 1078 l 360 1078 z "},"Ṓ":{"ha":1061,"x_min":63,"x_max":999,"o":"m 999 486 q 964 288 999 379 q 867 129 929 197 q 718 24 804 61 q 531 -14 632 -14 q 342 24 428 -14 q 194 129 257 61 q 97 288 132 197 q 63 486 63 379 q 97 685 63 594 q 194 844 132 776 q 342 949 257 911 q 531 986 428 986 q 718 949 632 986 q 867 844 804 911 q 964 685 929 776 q 999 486 999 594 m 879 486 q 834 688 879 600 q 711 825 789 775 q 531 875 633 875 q 349 825 428 875 q 226 688 271 775 q 182 486 182 600 q 226 285 182 374 q 349 147 271 197 q 531 97 428 97 q 711 147 633 97 q 834 285 789 197 q 879 486 879 374 m 360 1078 q 310 1121 310 1078 q 360 1165 310 1165 l 708 1165 q 758 1121 758 1165 q 708 1078 758 1078 l 360 1078 m 535 1253 q 507 1263 517 1253 q 497 1286 497 1272 q 501 1301 497 1294 q 513 1315 506 1308 l 635 1415 q 658 1430 646 1424 q 685 1436 671 1436 q 721 1422 704 1436 q 738 1385 738 1407 q 728 1354 738 1368 q 701 1332 719 1340 l 565 1263 q 550 1256 558 1258 q 535 1253 542 1253 z "},"Ṑ":{"ha":1061,"x_min":63,"x_max":999,"o":"m 999 486 q 964 288 999 379 q 867 129 929 197 q 718 24 804 61 q 531 -14 632 -14 q 342 24 428 -14 q 194 129 257 61 q 97 288 132 197 q 63 486 63 379 q 97 685 63 594 q 194 844 132 776 q 342 949 257 911 q 531 986 428 986 q 718 949 632 986 q 867 844 804 911 q 964 685 929 776 q 999 486 999 594 m 879 486 q 834 688 879 600 q 711 825 789 775 q 531 875 633 875 q 349 825 428 875 q 226 688 271 775 q 182 486 182 600 q 226 285 182 374 q 349 147 271 197 q 531 97 428 97 q 711 147 633 97 q 834 285 789 197 q 879 486 879 374 m 360 1078 q 310 1121 310 1078 q 360 1165 310 1165 l 708 1165 q 758 1121 758 1165 q 708 1078 758 1078 l 360 1078 m 531 1256 q 515 1258 522 1256 q 500 1265 507 1261 l 363 1335 q 328 1388 328 1354 q 344 1424 328 1410 q 381 1439 360 1439 q 407 1433 394 1439 q 429 1418 419 1426 l 551 1318 q 564 1304 560 1311 q 568 1289 568 1297 q 558 1265 568 1275 q 531 1256 549 1256 z "},"Ǫ":{"ha":1061,"x_min":63,"x_max":999,"o":"m 582 -272 q 481 -237 525 -272 q 438 -133 438 -201 q 454 -56 438 -89 q 499 1 471 -22 q 559 40 526 24 q 624 64 592 56 l 669 8 q 597 -17 628 1 q 549 -60 565 -36 q 532 -112 532 -85 q 551 -164 532 -146 q 592 -182 569 -182 q 611 -179 603 -182 q 625 -168 619 -176 q 649 -149 636 -154 q 672 -143 661 -143 q 701 -155 689 -143 q 713 -186 713 -167 q 694 -226 713 -206 q 647 -259 676 -246 q 582 -272 617 -272 m 999 486 q 964 288 999 379 q 867 129 929 197 q 718 24 804 61 q 531 -14 632 -14 q 342 24 428 -14 q 194 129 257 61 q 97 288 132 197 q 63 486 63 379 q 97 685 63 594 q 194 844 132 776 q 342 949 257 911 q 531 986 428 986 q 718 949 632 986 q 867 844 804 911 q 964 685 929 776 q 999 486 999 594 m 879 486 q 834 688 879 600 q 711 825 789 775 q 531 875 633 875 q 349 825 428 875 q 226 688 271 775 q 182 486 182 600 q 226 285 182 374 q 349 147 271 197 q 531 97 428 97 q 711 147 633 97 q 834 285 789 197 q 879 486 879 374 z "},"Ø":{"ha":1014,"x_min":63,"x_max":999,"o":"m 135 -35 q 102 -22 117 -35 q 88 11 88 -8 q 100 43 88 28 l 885 999 q 905 1015 894 1011 q 926 1019 915 1019 q 959 1007 944 1019 q 974 974 974 994 q 961 940 974 956 l 179 -10 q 161 -28 172 -21 q 135 -35 150 -35 m 999 486 q 964 288 999 379 q 867 129 929 197 q 718 24 804 61 q 531 -14 632 -14 q 342 24 428 -14 q 194 129 257 61 q 97 288 132 197 q 63 486 63 379 q 97 685 63 594 q 194 844 132 776 q 342 949 257 911 q 531 986 428 986 q 718 949 632 986 q 867 844 804 911 q 964 685 929 776 q 999 486 999 594 m 879 486 q 834 688 879 600 q 711 825 789 775 q 531 875 633 875 q 349 825 428 875 q 226 688 271 775 q 182 486 182 600 q 226 285 182 374 q 349 147 271 197 q 531 97 428 97 q 711 147 633 97 q 834 285 789 197 q 879 486 879 374 z "},"Ǿ":{"ha":1014,"x_min":63,"x_max":999,"o":"m 135 -35 q 102 -22 117 -35 q 88 11 88 -8 q 100 43 88 28 l 885 999 q 905 1015 894 1011 q 926 1019 915 1019 q 959 1007 944 1019 q 974 974 974 994 q 961 940 974 956 l 179 -10 q 161 -28 172 -21 q 135 -35 150 -35 m 999 486 q 964 288 999 379 q 867 129 929 197 q 718 24 804 61 q 531 -14 632 -14 q 342 24 428 -14 q 194 129 257 61 q 97 288 132 197 q 63 486 63 379 q 97 685 63 594 q 194 844 132 776 q 342 949 257 911 q 531 986 428 986 q 718 949 632 986 q 867 844 804 911 q 964 685 929 776 q 999 486 999 594 m 879 486 q 834 688 879 600 q 711 825 789 775 q 531 875 633 875 q 349 825 428 875 q 226 688 271 775 q 182 486 182 600 q 226 285 182 374 q 349 147 271 197 q 531 97 428 97 q 711 147 633 97 q 834 285 789 197 q 879 486 879 374 m 513 1032 q 485 1042 494 1032 q 475 1065 475 1051 q 479 1081 475 1074 q 490 1094 483 1088 l 613 1194 q 636 1209 624 1203 q 663 1215 649 1215 q 699 1201 682 1215 q 715 1164 715 1186 q 706 1133 715 1147 q 679 1111 697 1119 l 543 1042 q 528 1035 536 1038 q 513 1032 519 1032 z "},"Õ":{"ha":1061,"x_min":63,"x_max":999,"o":"m 999 486 q 964 288 999 379 q 867 129 929 197 q 718 24 804 61 q 531 -14 632 -14 q 342 24 428 -14 q 194 129 257 61 q 97 288 132 197 q 63 486 63 379 q 97 685 63 594 q 194 844 132 776 q 342 949 257 911 q 531 986 428 986 q 718 949 632 986 q 867 844 804 911 q 964 685 929 776 q 999 486 999 594 m 879 486 q 834 688 879 600 q 711 825 789 775 q 531 875 633 875 q 349 825 428 875 q 226 688 271 775 q 182 486 182 600 q 226 285 182 374 q 349 147 271 197 q 531 97 428 97 q 711 147 633 97 q 834 285 789 197 q 879 486 879 374 m 349 1054 q 313 1074 326 1054 q 303 1128 300 1094 q 344 1203 308 1174 q 435 1232 381 1232 q 509 1211 472 1232 q 579 1169 546 1190 q 636 1149 613 1149 q 665 1161 654 1149 q 676 1194 676 1174 q 683 1229 672 1217 q 713 1242 694 1242 q 750 1222 738 1242 q 761 1169 763 1201 q 742 1117 757 1142 q 702 1077 728 1092 q 642 1063 676 1063 q 563 1083 603 1063 q 490 1123 524 1103 q 431 1143 456 1143 q 401 1132 414 1143 q 386 1099 389 1121 q 377 1066 389 1078 q 349 1054 365 1054 z "},"Ṍ":{"ha":1061,"x_min":63,"x_max":999,"o":"m 999 486 q 964 288 999 379 q 867 129 929 197 q 718 24 804 61 q 531 -14 632 -14 q 342 24 428 -14 q 194 129 257 61 q 97 288 132 197 q 63 486 63 379 q 97 685 63 594 q 194 844 132 776 q 342 949 257 911 q 531 986 428 986 q 718 949 632 986 q 867 844 804 911 q 964 685 929 776 q 999 486 999 594 m 879 486 q 834 688 879 600 q 711 825 789 775 q 531 875 633 875 q 349 825 428 875 q 226 688 271 775 q 182 486 182 600 q 226 285 182 374 q 349 147 271 197 q 531 97 428 97 q 711 147 633 97 q 834 285 789 197 q 879 486 879 374 m 349 1054 q 313 1074 326 1054 q 303 1128 300 1094 q 344 1203 308 1174 q 435 1232 381 1232 q 509 1211 472 1232 q 579 1169 546 1190 q 636 1149 613 1149 q 665 1161 654 1149 q 676 1194 676 1174 q 683 1229 672 1217 q 713 1242 694 1242 q 750 1222 738 1242 q 761 1169 763 1201 q 742 1117 757 1142 q 702 1077 728 1092 q 642 1063 676 1063 q 563 1083 603 1063 q 490 1123 524 1103 q 431 1143 456 1143 q 401 1132 414 1143 q 386 1099 389 1121 q 377 1066 389 1078 q 349 1054 365 1054 m 535 1311 q 507 1321 517 1311 q 497 1344 497 1331 q 501 1360 497 1353 q 513 1374 506 1367 l 635 1474 q 658 1488 646 1482 q 685 1494 671 1494 q 721 1480 704 1494 q 738 1443 738 1465 q 728 1413 738 1426 q 701 1390 719 1399 l 565 1321 q 550 1314 558 1317 q 535 1311 542 1311 z "},"Ṏ":{"ha":1061,"x_min":63,"x_max":999,"o":"m 999 486 q 964 288 999 379 q 867 129 929 197 q 718 24 804 61 q 531 -14 632 -14 q 342 24 428 -14 q 194 129 257 61 q 97 288 132 197 q 63 486 63 379 q 97 685 63 594 q 194 844 132 776 q 342 949 257 911 q 531 986 428 986 q 718 949 632 986 q 867 844 804 911 q 964 685 929 776 q 999 486 999 594 m 879 486 q 834 688 879 600 q 711 825 789 775 q 531 875 633 875 q 349 825 428 875 q 226 688 271 775 q 182 486 182 600 q 226 285 182 374 q 349 147 271 197 q 531 97 428 97 q 711 147 633 97 q 834 285 789 197 q 879 486 879 374 m 349 1054 q 313 1074 326 1054 q 303 1128 300 1094 q 344 1203 308 1174 q 435 1232 381 1232 q 509 1211 472 1232 q 579 1169 546 1190 q 636 1149 613 1149 q 665 1161 654 1149 q 676 1194 676 1174 q 683 1229 672 1217 q 713 1242 694 1242 q 750 1222 738 1242 q 761 1169 763 1201 q 742 1117 757 1142 q 702 1077 728 1092 q 642 1063 676 1063 q 563 1083 603 1063 q 490 1123 524 1103 q 431 1143 456 1143 q 401 1132 414 1143 q 386 1099 389 1121 q 377 1066 389 1078 q 349 1054 365 1054 m 657 1349 q 607 1363 624 1349 q 590 1408 590 1378 l 590 1426 q 608 1472 590 1458 q 657 1486 625 1486 q 707 1472 690 1486 q 724 1426 724 1457 l 724 1408 q 707 1363 724 1378 q 657 1349 690 1349 m 406 1349 q 356 1363 372 1349 q 339 1408 339 1378 l 339 1426 q 357 1472 339 1458 q 407 1486 375 1486 q 456 1472 439 1486 q 472 1426 472 1457 l 472 1408 q 456 1363 472 1378 q 406 1349 439 1349 z "},"Ȭ":{"ha":1061,"x_min":63,"x_max":999,"o":"m 999 486 q 964 288 999 379 q 867 129 929 197 q 718 24 804 61 q 531 -14 632 -14 q 342 24 428 -14 q 194 129 257 61 q 97 288 132 197 q 63 486 63 379 q 97 685 63 594 q 194 844 132 776 q 342 949 257 911 q 531 986 428 986 q 718 949 632 986 q 867 844 804 911 q 964 685 929 776 q 999 486 999 594 m 879 486 q 834 688 879 600 q 711 825 789 775 q 531 875 633 875 q 349 825 428 875 q 226 688 271 775 q 182 486 182 600 q 226 285 182 374 q 349 147 271 197 q 531 97 428 97 q 711 147 633 97 q 834 285 789 197 q 879 486 879 374 m 349 1054 q 313 1074 326 1054 q 303 1128 300 1094 q 344 1203 308 1174 q 435 1232 381 1232 q 509 1211 472 1232 q 579 1169 546 1190 q 636 1149 613 1149 q 665 1161 654 1149 q 676 1194 676 1174 q 683 1229 672 1217 q 713 1242 694 1242 q 750 1222 738 1242 q 761 1169 763 1201 q 742 1117 757 1142 q 702 1077 728 1092 q 642 1063 676 1063 q 563 1083 603 1063 q 490 1123 524 1103 q 431 1143 456 1143 q 401 1132 414 1143 q 386 1099 389 1121 q 377 1066 389 1078 q 349 1054 365 1054 m 360 1356 q 310 1399 310 1356 q 360 1443 310 1443 l 708 1443 q 758 1399 758 1443 q 708 1356 758 1356 l 360 1356 z "},"Œ":{"ha":1365,"x_min":63,"x_max":1303,"o":"m 1246 111 q 1286 95 1269 111 q 1303 56 1303 79 q 1286 16 1303 32 q 1246 0 1269 0 l 472 0 q 245 66 336 0 q 108 242 154 132 q 63 486 63 353 q 88 672 63 583 q 165 828 114 760 q 294 934 217 896 q 472 972 371 972 l 1246 972 q 1286 956 1269 972 q 1303 917 1303 940 q 1286 877 1303 893 q 1246 861 1269 861 l 810 861 l 821 879 l 821 531 l 808 549 l 1183 549 q 1224 533 1207 549 q 1240 493 1240 517 q 1224 453 1240 469 q 1183 438 1207 438 l 808 438 l 821 456 l 821 100 l 813 111 l 1246 111 m 724 111 l 708 93 l 708 878 l 721 861 l 479 861 q 341 831 399 861 q 247 749 283 801 q 192 629 210 697 q 174 486 174 561 q 206 298 174 383 q 305 162 238 213 q 479 111 372 111 l 724 111 z "},"P":{"ha":832,"x_min":122,"x_max":772,"o":"m 503 972 q 640 935 579 972 q 737 832 701 897 q 772 683 772 767 q 737 535 772 601 q 640 429 701 468 q 503 390 579 390 l 221 390 l 231 407 l 231 57 q 215 17 231 33 q 176 0 200 0 q 137 17 151 0 q 122 57 122 33 l 122 917 q 138 956 122 940 q 178 972 154 972 l 503 972 m 503 497 q 583 522 549 497 q 639 590 618 547 q 660 683 660 633 q 639 776 660 736 q 583 841 618 817 q 503 865 549 865 l 221 865 l 231 881 l 231 483 l 221 497 l 503 497 z "},"Þ":{"ha":824,"x_min":122,"x_max":765,"o":"m 233 57 q 217 17 233 33 q 176 0 200 0 q 138 17 153 0 q 122 57 122 33 l 122 972 q 138 1012 122 996 q 178 1028 154 1028 q 218 1012 203 1028 q 233 972 233 996 l 233 57 m 217 360 l 496 360 q 576 384 540 360 q 632 450 611 408 q 653 543 653 492 q 632 635 653 594 q 576 698 611 675 q 496 721 540 721 l 217 721 l 171 832 l 496 832 q 632 794 571 832 q 729 692 693 757 q 765 543 765 626 q 729 394 765 461 q 632 288 693 328 q 496 249 571 249 l 175 249 l 217 360 z "},"Q":{"ha":1068,"x_min":63,"x_max":1096,"o":"m 1044 -64 q 1080 -79 1064 -64 q 1096 -117 1096 -94 q 1070 -167 1096 -143 q 1003 -211 1044 -192 q 917 -242 963 -231 q 833 -253 872 -253 q 695 -235 749 -253 q 602 -196 642 -218 q 524 -156 563 -174 q 433 -139 486 -139 q 389 -147 407 -139 q 354 -164 371 -156 q 315 -172 338 -172 q 276 -155 292 -172 q 260 -117 260 -137 q 292 -68 260 -81 l 547 24 l 674 11 l 438 -72 l 476 -43 q 574 -60 531 -43 q 656 -97 617 -76 q 738 -135 694 -118 q 838 -151 782 -151 q 919 -137 886 -151 q 972 -108 951 -122 q 1009 -78 993 -93 q 1044 -64 1025 -64 m 999 486 q 964 288 999 379 q 867 129 929 197 q 718 24 804 61 q 531 -14 632 -14 q 342 24 428 -14 q 194 129 257 61 q 97 288 132 197 q 63 486 63 379 q 97 685 63 594 q 194 844 132 776 q 342 949 257 911 q 531 986 428 986 q 718 949 632 986 q 867 844 804 911 q 964 685 929 776 q 999 486 999 594 m 879 486 q 834 688 879 600 q 711 825 789 775 q 531 875 633 875 q 349 825 428 875 q 226 688 271 775 q 182 486 182 600 q 226 285 182 374 q 349 147 271 197 q 531 97 428 97 q 711 147 633 97 q 834 285 789 197 q 879 486 879 374 z "},"R":{"ha":939,"x_min":122,"x_max":881,"o":"m 186 0 q 141 17 160 0 q 122 57 122 33 l 122 917 q 138 956 122 940 q 178 972 154 972 l 561 972 q 701 937 639 972 q 801 840 764 901 q 838 697 838 778 q 815 588 838 639 q 754 501 793 538 q 665 444 715 464 l 635 467 q 719 427 682 456 q 781 355 757 399 q 806 253 804 311 q 813 171 808 201 q 825 123 817 140 q 849 96 833 106 q 874 63 868 83 q 867 22 881 42 q 843 5 858 10 q 813 1 828 0 q 786 10 797 3 q 743 47 764 22 q 708 117 722 71 q 694 242 694 163 q 681 315 694 286 q 643 363 667 344 q 590 388 619 381 q 531 394 561 394 l 221 394 l 238 419 l 238 57 q 224 17 238 33 q 186 0 210 0 m 221 494 l 561 494 q 637 522 601 497 q 695 592 672 547 q 718 694 718 638 q 672 817 718 768 q 554 865 625 865 l 226 865 l 238 892 l 238 469 l 221 494 z "},"Ŕ":{"ha":939,"x_min":122,"x_max":881,"o":"m 186 0 q 141 17 160 0 q 122 57 122 33 l 122 917 q 138 956 122 940 q 178 972 154 972 l 561 972 q 701 937 639 972 q 801 840 764 901 q 838 697 838 778 q 815 588 838 639 q 754 501 793 538 q 665 444 715 464 l 635 467 q 719 427 682 456 q 781 355 757 399 q 806 253 804 311 q 813 171 808 201 q 825 123 817 140 q 849 96 833 106 q 874 63 868 83 q 867 22 881 42 q 843 5 858 10 q 813 1 828 0 q 786 10 797 3 q 743 47 764 22 q 708 117 722 71 q 694 242 694 163 q 681 315 694 286 q 643 363 667 344 q 590 388 619 381 q 531 394 561 394 l 221 394 l 238 419 l 238 57 q 224 17 238 33 q 186 0 210 0 m 221 494 l 561 494 q 637 522 601 497 q 695 592 672 547 q 718 694 718 638 q 672 817 718 768 q 554 865 625 865 l 226 865 l 238 892 l 238 469 l 221 494 m 471 1032 q 443 1042 453 1032 q 433 1065 433 1051 q 438 1081 433 1074 q 449 1094 442 1088 l 571 1194 q 594 1209 582 1203 q 621 1215 607 1215 q 657 1201 640 1215 q 674 1164 674 1186 q 665 1133 674 1147 q 638 1111 656 1119 l 501 1042 q 486 1035 494 1038 q 471 1032 478 1032 z "},"Ř":{"ha":939,"x_min":122,"x_max":881,"o":"m 186 0 q 141 17 160 0 q 122 57 122 33 l 122 917 q 138 956 122 940 q 178 972 154 972 l 561 972 q 701 937 639 972 q 801 840 764 901 q 838 697 838 778 q 815 588 838 639 q 754 501 793 538 q 665 444 715 464 l 635 467 q 719 427 682 456 q 781 355 757 399 q 806 253 804 311 q 813 171 808 201 q 825 123 817 140 q 849 96 833 106 q 874 63 868 83 q 867 22 881 42 q 843 5 858 10 q 813 1 828 0 q 786 10 797 3 q 743 47 764 22 q 708 117 722 71 q 694 242 694 163 q 681 315 694 286 q 643 363 667 344 q 590 388 619 381 q 531 394 561 394 l 221 394 l 238 419 l 238 57 q 224 17 238 33 q 186 0 210 0 m 221 494 l 561 494 q 637 522 601 497 q 695 592 672 547 q 718 694 718 638 q 672 817 718 768 q 554 865 625 865 l 226 865 l 238 892 l 238 469 l 221 494 m 450 1124 l 571 1214 q 598 1230 586 1225 q 619 1235 610 1235 q 640 1226 632 1235 q 649 1208 649 1218 q 646 1195 649 1201 q 635 1179 643 1189 l 535 1069 q 508 1049 522 1056 q 475 1042 494 1042 l 457 1042 q 424 1049 438 1042 q 399 1069 411 1056 l 299 1179 q 287 1195 290 1189 q 283 1208 283 1201 q 292 1226 283 1218 q 314 1233 301 1233 q 363 1213 332 1233 l 483 1126 l 450 1124 z "},"Ŗ":{"ha":939,"x_min":122,"x_max":881,"o":"m 186 0 q 141 17 160 0 q 122 57 122 33 l 122 917 q 138 956 122 940 q 178 972 154 972 l 561 972 q 701 937 639 972 q 801 840 764 901 q 838 697 838 778 q 815 588 838 639 q 754 501 793 538 q 665 444 715 464 l 635 467 q 719 427 682 456 q 781 355 757 399 q 806 253 804 311 q 813 171 808 201 q 825 123 817 140 q 849 96 833 106 q 874 63 868 83 q 867 22 881 42 q 843 5 858 10 q 813 1 828 0 q 786 10 797 3 q 743 47 764 22 q 708 117 722 71 q 694 242 694 163 q 681 315 694 286 q 643 363 667 344 q 590 388 619 381 q 531 394 561 394 l 221 394 l 238 419 l 238 57 q 224 17 238 33 q 186 0 210 0 m 221 494 l 561 494 q 637 522 601 497 q 695 592 672 547 q 718 694 718 638 q 672 817 718 768 q 554 865 625 865 l 226 865 l 238 892 l 238 469 l 221 494 m 561 -147 q 544 -202 561 -176 q 501 -244 528 -228 q 442 -261 475 -261 q 401 -251 414 -261 q 388 -228 388 -240 q 395 -206 388 -212 q 411 -200 403 -200 q 428 -203 418 -200 q 453 -204 438 -206 q 474 -192 465 -203 q 482 -162 482 -182 q 468 -144 482 -144 q 454 -151 458 -144 q 435 -157 450 -157 q 404 -144 415 -157 q 393 -112 393 -131 q 415 -71 393 -86 q 474 -56 438 -56 q 536 -79 511 -56 q 561 -147 561 -103 z "},"Ȑ":{"ha":939,"x_min":122,"x_max":881,"o":"m 186 0 q 141 17 160 0 q 122 57 122 33 l 122 917 q 138 956 122 940 q 178 972 154 972 l 561 972 q 701 937 639 972 q 801 840 764 901 q 838 697 838 778 q 815 588 838 639 q 754 501 793 538 q 665 444 715 464 l 635 467 q 719 427 682 456 q 781 355 757 399 q 806 253 804 311 q 813 171 808 201 q 825 123 817 140 q 849 96 833 106 q 874 63 868 83 q 867 22 881 42 q 843 5 858 10 q 813 1 828 0 q 786 10 797 3 q 743 47 764 22 q 708 117 722 71 q 694 242 694 163 q 681 315 694 286 q 643 363 667 344 q 590 388 619 381 q 531 394 561 394 l 221 394 l 238 419 l 238 57 q 224 17 238 33 q 186 0 210 0 m 221 494 l 561 494 q 637 522 601 497 q 695 592 672 547 q 718 694 718 638 q 672 817 718 768 q 554 865 625 865 l 226 865 l 238 892 l 238 469 l 221 494 m 375 1047 q 359 1050 367 1047 q 344 1057 351 1053 l 207 1126 q 172 1179 172 1146 q 188 1216 172 1201 q 225 1231 204 1231 q 251 1224 239 1231 q 274 1210 264 1218 l 396 1110 q 408 1096 404 1103 q 413 1081 413 1089 q 403 1057 413 1067 q 375 1047 393 1047 m 625 1051 q 610 1054 618 1051 q 594 1061 603 1057 l 458 1131 q 422 1183 422 1150 q 439 1220 422 1206 q 475 1235 456 1235 q 503 1228 490 1235 q 525 1214 515 1222 l 647 1114 q 659 1100 656 1107 q 663 1085 663 1093 q 653 1061 663 1071 q 625 1051 643 1051 z "},"Ṛ":{"ha":939,"x_min":122,"x_max":881,"o":"m 186 0 q 141 17 160 0 q 122 57 122 33 l 122 917 q 138 956 122 940 q 178 972 154 972 l 561 972 q 701 937 639 972 q 801 840 764 901 q 838 697 838 778 q 815 588 838 639 q 754 501 793 538 q 665 444 715 464 l 635 467 q 719 427 682 456 q 781 355 757 399 q 806 253 804 311 q 813 171 808 201 q 825 123 817 140 q 849 96 833 106 q 874 63 868 83 q 867 22 881 42 q 843 5 858 10 q 813 1 828 0 q 786 10 797 3 q 743 47 764 22 q 708 117 722 71 q 694 242 694 163 q 681 315 694 286 q 643 363 667 344 q 590 388 619 381 q 531 394 561 394 l 221 394 l 238 419 l 238 57 q 224 17 238 33 q 186 0 210 0 m 221 494 l 561 494 q 637 522 601 497 q 695 592 672 547 q 718 694 718 638 q 672 817 718 768 q 554 865 625 865 l 226 865 l 238 892 l 238 469 l 221 494 m 465 -197 q 415 -183 432 -197 q 399 -137 399 -168 l 399 -118 q 417 -73 399 -87 q 467 -58 435 -58 q 518 -73 501 -58 q 535 -118 535 -87 l 535 -137 q 517 -183 535 -168 q 465 -197 500 -197 z "},"Ȓ":{"ha":939,"x_min":122,"x_max":881,"o":"m 186 0 q 141 17 160 0 q 122 57 122 33 l 122 917 q 138 956 122 940 q 178 972 154 972 l 561 972 q 701 937 639 972 q 801 840 764 901 q 838 697 838 778 q 815 588 838 639 q 754 501 793 538 q 665 444 715 464 l 635 467 q 719 427 682 456 q 781 355 757 399 q 806 253 804 311 q 813 171 808 201 q 825 123 817 140 q 849 96 833 106 q 874 63 868 83 q 867 22 881 42 q 843 5 858 10 q 813 1 828 0 q 786 10 797 3 q 743 47 764 22 q 708 117 722 71 q 694 242 694 163 q 681 315 694 286 q 643 363 667 344 q 590 388 619 381 q 531 394 561 394 l 221 394 l 238 419 l 238 57 q 224 17 238 33 q 186 0 210 0 m 221 494 l 561 494 q 637 522 601 497 q 695 592 672 547 q 718 694 718 638 q 672 817 718 768 q 554 865 625 865 l 226 865 l 238 892 l 238 469 l 221 494 m 465 1231 q 556 1214 515 1231 q 624 1167 596 1197 q 660 1097 651 1136 q 656 1060 667 1075 q 626 1046 646 1046 q 592 1056 604 1046 q 569 1085 581 1067 q 531 1130 558 1114 q 465 1146 504 1146 q 400 1130 428 1146 q 361 1085 372 1114 q 339 1056 351 1067 q 306 1046 326 1046 q 275 1060 286 1046 q 271 1096 264 1074 q 308 1165 281 1135 q 376 1213 335 1196 q 465 1231 417 1231 z "},"Ṟ":{"ha":939,"x_min":122,"x_max":881,"o":"m 186 0 q 141 17 160 0 q 122 57 122 33 l 122 917 q 138 956 122 940 q 178 972 154 972 l 561 972 q 701 937 639 972 q 801 840 764 901 q 838 697 838 778 q 815 588 838 639 q 754 501 793 538 q 665 444 715 464 l 635 467 q 719 427 682 456 q 781 355 757 399 q 806 253 804 311 q 813 171 808 201 q 825 123 817 140 q 849 96 833 106 q 874 63 868 83 q 867 22 881 42 q 843 5 858 10 q 813 1 828 0 q 786 10 797 3 q 743 47 764 22 q 708 117 722 71 q 694 242 694 163 q 681 315 694 286 q 643 363 667 344 q 590 388 619 381 q 531 394 561 394 l 221 394 l 238 419 l 238 57 q 224 17 238 33 q 186 0 210 0 m 221 494 l 561 494 q 637 522 601 497 q 695 592 672 547 q 718 694 718 638 q 672 817 718 768 q 554 865 625 865 l 226 865 l 238 892 l 238 469 l 221 494 m 324 -186 q 275 -143 275 -186 q 324 -99 275 -99 l 631 -99 q 679 -143 679 -99 q 631 -186 679 -186 l 324 -186 z "},"S":{"ha":797,"x_min":53,"x_max":733,"o":"m 406 -14 q 225 17 303 -14 q 75 114 147 47 q 59 135 65 124 q 53 161 53 147 q 69 201 53 183 q 108 218 85 218 q 143 203 128 218 q 260 122 197 150 q 403 94 324 94 q 513 114 464 94 q 592 168 563 133 q 621 249 621 203 q 588 340 619 304 q 502 401 557 376 q 375 442 447 425 q 258 479 311 457 q 165 534 204 501 q 105 613 126 567 q 83 722 83 660 q 125 861 83 801 q 240 953 167 921 q 410 986 314 986 q 570 958 494 986 q 692 882 646 931 q 719 831 719 856 q 702 792 719 810 q 663 775 685 775 q 635 786 647 775 q 575 833 611 813 q 496 867 539 854 q 410 879 453 879 q 297 860 346 879 q 222 808 249 842 q 194 726 194 774 q 225 640 194 674 q 307 584 256 606 q 421 546 358 563 q 547 508 489 529 q 646 454 604 486 q 710 373 688 422 q 733 251 733 324 q 690 115 733 175 q 573 22 647 56 q 406 -14 499 -12 z "},"Ś":{"ha":797,"x_min":53,"x_max":733,"o":"m 406 -14 q 225 17 303 -14 q 75 114 147 47 q 59 135 65 124 q 53 161 53 147 q 69 201 53 183 q 108 218 85 218 q 143 203 128 218 q 260 122 197 150 q 403 94 324 94 q 513 114 464 94 q 592 168 563 133 q 621 249 621 203 q 588 340 619 304 q 502 401 557 376 q 375 442 447 425 q 258 479 311 457 q 165 534 204 501 q 105 613 126 567 q 83 722 83 660 q 125 861 83 801 q 240 953 167 921 q 410 986 314 986 q 570 958 494 986 q 692 882 646 931 q 719 831 719 856 q 702 792 719 810 q 663 775 685 775 q 635 786 647 775 q 575 833 611 813 q 496 867 539 854 q 410 879 453 879 q 297 860 346 879 q 222 808 249 842 q 194 726 194 774 q 225 640 194 674 q 307 584 256 606 q 421 546 358 563 q 547 508 489 529 q 646 454 604 486 q 710 373 688 422 q 733 251 733 324 q 690 115 733 175 q 573 22 647 56 q 406 -14 499 -12 m 403 1032 q 375 1042 385 1032 q 365 1065 365 1051 q 369 1081 365 1074 q 381 1094 374 1088 l 503 1194 q 526 1209 514 1203 q 553 1215 539 1215 q 589 1201 572 1215 q 606 1164 606 1186 q 597 1133 606 1147 q 569 1111 588 1119 l 433 1042 q 418 1035 426 1038 q 403 1032 410 1032 z "},"Ṥ":{"ha":797,"x_min":53,"x_max":733,"o":"m 406 -14 q 225 17 303 -14 q 75 114 147 47 q 59 135 65 124 q 53 161 53 147 q 69 201 53 183 q 108 218 85 218 q 143 203 128 218 q 260 122 197 150 q 403 94 324 94 q 513 114 464 94 q 592 168 563 133 q 621 249 621 203 q 588 340 619 304 q 502 401 557 376 q 375 442 447 425 q 258 479 311 457 q 165 534 204 501 q 105 613 126 567 q 83 722 83 660 q 125 861 83 801 q 240 953 167 921 q 410 986 314 986 q 570 958 494 986 q 692 882 646 931 q 719 831 719 856 q 702 792 719 810 q 663 775 685 775 q 635 786 647 775 q 575 833 611 813 q 496 867 539 854 q 410 879 453 879 q 297 860 346 879 q 222 808 249 842 q 194 726 194 774 q 225 640 194 674 q 307 584 256 606 q 421 546 358 563 q 547 508 489 529 q 646 454 604 486 q 710 373 688 422 q 733 251 733 324 q 690 115 733 175 q 573 22 647 56 q 406 -14 499 -12 m 403 1032 q 375 1042 385 1032 q 365 1065 365 1051 q 369 1081 365 1074 q 381 1094 374 1088 l 503 1194 q 526 1209 514 1203 q 553 1215 539 1215 q 589 1201 572 1215 q 606 1164 606 1186 q 597 1133 606 1147 q 569 1111 588 1119 l 433 1042 q 418 1035 426 1038 q 403 1032 410 1032 m 463 1290 q 413 1305 429 1290 q 396 1350 396 1319 l 396 1369 q 414 1415 396 1400 q 464 1429 432 1429 q 515 1415 499 1429 q 532 1369 532 1400 l 532 1350 q 515 1305 532 1319 q 463 1290 497 1290 z "},"Š":{"ha":797,"x_min":53,"x_max":733,"o":"m 406 -14 q 225 17 303 -14 q 75 114 147 47 q 59 135 65 124 q 53 161 53 147 q 69 201 53 183 q 108 218 85 218 q 143 203 128 218 q 260 122 197 150 q 403 94 324 94 q 513 114 464 94 q 592 168 563 133 q 621 249 621 203 q 588 340 619 304 q 502 401 557 376 q 375 442 447 425 q 258 479 311 457 q 165 534 204 501 q 105 613 126 567 q 83 722 83 660 q 125 861 83 801 q 240 953 167 921 q 410 986 314 986 q 570 958 494 986 q 692 882 646 931 q 719 831 719 856 q 702 792 719 810 q 663 775 685 775 q 635 786 647 775 q 575 833 611 813 q 496 867 539 854 q 410 879 453 879 q 297 860 346 879 q 222 808 249 842 q 194 726 194 774 q 225 640 194 674 q 307 584 256 606 q 421 546 358 563 q 547 508 489 529 q 646 454 604 486 q 710 373 688 422 q 733 251 733 324 q 690 115 733 175 q 573 22 647 56 q 406 -14 499 -12 m 383 1124 l 504 1214 q 531 1230 519 1225 q 553 1235 543 1235 q 574 1226 565 1235 q 582 1208 582 1218 q 579 1195 582 1201 q 568 1179 576 1189 l 468 1069 q 442 1049 456 1056 q 408 1042 428 1042 l 390 1042 q 358 1049 371 1042 q 332 1069 344 1056 l 232 1179 q 220 1195 224 1189 q 217 1208 217 1201 q 226 1226 217 1218 q 247 1233 235 1233 q 296 1213 265 1233 l 417 1126 l 383 1124 z "},"Ṧ":{"ha":797,"x_min":53,"x_max":733,"o":"m 406 -14 q 225 17 303 -14 q 75 114 147 47 q 59 135 65 124 q 53 161 53 147 q 69 201 53 183 q 108 218 85 218 q 143 203 128 218 q 260 122 197 150 q 403 94 324 94 q 513 114 464 94 q 592 168 563 133 q 621 249 621 203 q 588 340 619 304 q 502 401 557 376 q 375 442 447 425 q 258 479 311 457 q 165 534 204 501 q 105 613 126 567 q 83 722 83 660 q 125 861 83 801 q 240 953 167 921 q 410 986 314 986 q 570 958 494 986 q 692 882 646 931 q 719 831 719 856 q 702 792 719 810 q 663 775 685 775 q 635 786 647 775 q 575 833 611 813 q 496 867 539 854 q 410 879 453 879 q 297 860 346 879 q 222 808 249 842 q 194 726 194 774 q 225 640 194 674 q 307 584 256 606 q 421 546 358 563 q 547 508 489 529 q 646 454 604 486 q 710 373 688 422 q 733 251 733 324 q 690 115 733 175 q 573 22 647 56 q 406 -14 499 -12 m 383 1124 l 504 1214 q 531 1230 519 1225 q 553 1235 543 1235 q 574 1226 565 1235 q 582 1208 582 1218 q 579 1195 582 1201 q 568 1179 576 1189 l 468 1069 q 442 1049 456 1056 q 408 1042 428 1042 l 390 1042 q 358 1049 371 1042 q 332 1069 344 1056 l 232 1179 q 220 1195 224 1189 q 217 1208 217 1201 q 226 1226 217 1218 q 247 1233 235 1233 q 296 1213 265 1233 l 417 1126 l 383 1124 m 397 1324 q 347 1338 364 1324 q 331 1383 331 1353 l 331 1403 q 349 1448 331 1433 q 399 1463 367 1463 q 450 1448 433 1463 q 467 1403 467 1433 l 467 1383 q 449 1338 467 1353 q 397 1324 432 1324 z "},"Ş":{"ha":797,"x_min":53,"x_max":733,"o":"m 406 -14 q 225 17 303 -14 q 75 114 147 47 q 59 135 65 124 q 53 161 53 147 q 69 201 53 183 q 108 218 85 218 q 143 203 128 218 q 260 122 197 150 q 403 94 324 94 q 513 114 464 94 q 592 168 563 133 q 621 249 621 203 q 588 340 619 304 q 502 401 557 376 q 375 442 447 425 q 258 479 311 457 q 165 534 204 501 q 105 613 126 567 q 83 722 83 660 q 125 861 83 801 q 240 953 167 921 q 410 986 314 986 q 570 958 494 986 q 692 882 646 931 q 719 831 719 856 q 702 792 719 810 q 663 775 685 775 q 635 786 647 775 q 575 833 611 813 q 496 867 539 854 q 410 879 453 879 q 297 860 346 879 q 222 808 249 842 q 194 726 194 774 q 225 640 194 674 q 307 584 256 606 q 421 546 358 563 q 547 508 489 529 q 646 454 604 486 q 710 373 688 422 q 733 251 733 324 q 690 115 733 175 q 573 22 647 56 q 406 -14 499 -12 m 313 -203 q 285 -197 301 -203 q 256 -178 268 -190 q 243 -151 243 -167 q 254 -121 243 -135 l 371 28 l 440 28 l 356 -169 q 313 -203 342 -203 z "},"Ŝ":{"ha":797,"x_min":53,"x_max":733,"o":"m 406 -14 q 225 17 303 -14 q 75 114 147 47 q 59 135 65 124 q 53 161 53 147 q 69 201 53 183 q 108 218 85 218 q 143 203 128 218 q 260 122 197 150 q 403 94 324 94 q 513 114 464 94 q 592 168 563 133 q 621 249 621 203 q 588 340 619 304 q 502 401 557 376 q 375 442 447 425 q 258 479 311 457 q 165 534 204 501 q 105 613 126 567 q 83 722 83 660 q 125 861 83 801 q 240 953 167 921 q 410 986 314 986 q 570 958 494 986 q 692 882 646 931 q 719 831 719 856 q 702 792 719 810 q 663 775 685 775 q 635 786 647 775 q 575 833 611 813 q 496 867 539 854 q 410 879 453 879 q 297 860 346 879 q 222 808 249 842 q 194 726 194 774 q 225 640 194 674 q 307 584 256 606 q 421 546 358 563 q 547 508 489 529 q 646 454 604 486 q 710 373 688 422 q 733 251 733 324 q 690 115 733 175 q 573 22 647 56 q 406 -14 499 -12 m 414 1157 l 293 1069 q 267 1053 278 1060 q 244 1047 256 1047 q 224 1056 232 1047 q 215 1074 215 1064 q 218 1087 215 1081 q 229 1103 221 1093 l 329 1213 q 356 1233 343 1226 q 389 1240 369 1240 l 407 1240 q 440 1233 426 1240 q 465 1213 453 1226 l 565 1103 q 577 1088 574 1094 q 581 1074 581 1082 q 572 1057 581 1065 q 550 1049 564 1049 q 528 1055 540 1049 q 501 1071 517 1061 l 381 1154 l 414 1157 z "},"Ș":{"ha":797,"x_min":53,"x_max":733,"o":"m 406 -14 q 225 17 303 -14 q 75 114 147 47 q 59 135 65 124 q 53 161 53 147 q 69 201 53 183 q 108 218 85 218 q 143 203 128 218 q 260 122 197 150 q 403 94 324 94 q 513 114 464 94 q 592 168 563 133 q 621 249 621 203 q 588 340 619 304 q 502 401 557 376 q 375 442 447 425 q 258 479 311 457 q 165 534 204 501 q 105 613 126 567 q 83 722 83 660 q 125 861 83 801 q 240 953 167 921 q 410 986 314 986 q 570 958 494 986 q 692 882 646 931 q 719 831 719 856 q 702 792 719 810 q 663 775 685 775 q 635 786 647 775 q 575 833 611 813 q 496 867 539 854 q 410 879 453 879 q 297 860 346 879 q 222 808 249 842 q 194 726 194 774 q 225 640 194 674 q 307 584 256 606 q 421 546 358 563 q 547 508 489 529 q 646 454 604 486 q 710 373 688 422 q 733 251 733 324 q 690 115 733 175 q 573 22 647 56 q 406 -14 499 -12 m 493 -147 q 476 -202 493 -176 q 433 -244 460 -228 q 374 -261 407 -261 q 333 -251 346 -261 q 319 -228 319 -240 q 327 -206 319 -212 q 343 -200 335 -200 q 360 -203 350 -200 q 385 -204 369 -206 q 406 -192 397 -203 q 414 -162 414 -182 q 400 -144 414 -144 q 386 -151 390 -144 q 367 -157 382 -157 q 336 -144 347 -157 q 325 -112 325 -131 q 347 -71 325 -86 q 406 -56 369 -56 q 468 -79 443 -56 q 493 -147 493 -103 z "},"Ṡ":{"ha":797,"x_min":53,"x_max":733,"o":"m 406 -14 q 225 17 303 -14 q 75 114 147 47 q 59 135 65 124 q 53 161 53 147 q 69 201 53 183 q 108 218 85 218 q 143 203 128 218 q 260 122 197 150 q 403 94 324 94 q 513 114 464 94 q 592 168 563 133 q 621 249 621 203 q 588 340 619 304 q 502 401 557 376 q 375 442 447 425 q 258 479 311 457 q 165 534 204 501 q 105 613 126 567 q 83 722 83 660 q 125 861 83 801 q 240 953 167 921 q 410 986 314 986 q 570 958 494 986 q 692 882 646 931 q 719 831 719 856 q 702 792 719 810 q 663 775 685 775 q 635 786 647 775 q 575 833 611 813 q 496 867 539 854 q 410 879 453 879 q 297 860 346 879 q 222 808 249 842 q 194 726 194 774 q 225 640 194 674 q 307 584 256 606 q 421 546 358 563 q 547 508 489 529 q 646 454 604 486 q 710 373 688 422 q 733 251 733 324 q 690 115 733 175 q 573 22 647 56 q 406 -14 499 -12 m 397 1056 q 347 1070 364 1056 q 331 1115 331 1085 l 331 1135 q 349 1180 331 1165 q 399 1194 367 1194 q 450 1180 433 1194 q 467 1135 467 1165 l 467 1115 q 449 1070 467 1085 q 397 1056 432 1056 z "},"Ṣ":{"ha":797,"x_min":53,"x_max":733,"o":"m 406 -14 q 225 17 303 -14 q 75 114 147 47 q 59 135 65 124 q 53 161 53 147 q 69 201 53 183 q 108 218 85 218 q 143 203 128 218 q 260 122 197 150 q 403 94 324 94 q 513 114 464 94 q 592 168 563 133 q 621 249 621 203 q 588 340 619 304 q 502 401 557 376 q 375 442 447 425 q 258 479 311 457 q 165 534 204 501 q 105 613 126 567 q 83 722 83 660 q 125 861 83 801 q 240 953 167 921 q 410 986 314 986 q 570 958 494 986 q 692 882 646 931 q 719 831 719 856 q 702 792 719 810 q 663 775 685 775 q 635 786 647 775 q 575 833 611 813 q 496 867 539 854 q 410 879 453 879 q 297 860 346 879 q 222 808 249 842 q 194 726 194 774 q 225 640 194 674 q 307 584 256 606 q 421 546 358 563 q 547 508 489 529 q 646 454 604 486 q 710 373 688 422 q 733 251 733 324 q 690 115 733 175 q 573 22 647 56 q 406 -14 499 -12 m 397 -197 q 347 -183 364 -197 q 331 -137 331 -168 l 331 -118 q 349 -73 331 -87 q 399 -58 367 -58 q 450 -73 433 -58 q 467 -118 467 -87 l 467 -137 q 449 -183 467 -168 q 397 -197 432 -197 z "},"Ṩ":{"ha":797,"x_min":53,"x_max":733,"o":"m 406 -14 q 225 17 303 -14 q 75 114 147 47 q 59 135 65 124 q 53 161 53 147 q 69 201 53 183 q 108 218 85 218 q 143 203 128 218 q 260 122 197 150 q 403 94 324 94 q 513 114 464 94 q 592 168 563 133 q 621 249 621 203 q 588 340 619 304 q 502 401 557 376 q 375 442 447 425 q 258 479 311 457 q 165 534 204 501 q 105 613 126 567 q 83 722 83 660 q 125 861 83 801 q 240 953 167 921 q 410 986 314 986 q 570 958 494 986 q 692 882 646 931 q 719 831 719 856 q 702 792 719 810 q 663 775 685 775 q 635 786 647 775 q 575 833 611 813 q 496 867 539 854 q 410 879 453 879 q 297 860 346 879 q 222 808 249 842 q 194 726 194 774 q 225 640 194 674 q 307 584 256 606 q 421 546 358 563 q 547 508 489 529 q 646 454 604 486 q 710 373 688 422 q 733 251 733 324 q 690 115 733 175 q 573 22 647 56 q 406 -14 499 -12 m 397 -197 q 347 -183 364 -197 q 331 -137 331 -168 l 331 -118 q 349 -73 331 -87 q 399 -58 367 -58 q 450 -73 433 -58 q 467 -118 467 -87 l 467 -137 q 449 -183 467 -168 q 397 -197 432 -197 m 397 1056 q 347 1070 364 1056 q 331 1115 331 1085 l 331 1135 q 349 1180 331 1165 q 399 1194 367 1194 q 450 1180 433 1194 q 467 1135 467 1165 l 467 1115 q 449 1070 467 1085 q 397 1056 432 1056 z "},"ẞ":{"ha":999,"x_min":122,"x_max":936,"o":"m 650 -14 q 551 -1 600 -14 q 462 39 503 13 q 390 104 421 65 q 381 122 389 107 q 374 153 374 136 q 389 194 374 175 q 428 213 404 213 q 448 208 436 213 q 468 194 460 204 q 549 125 501 153 q 644 97 597 97 q 733 114 694 97 q 794 162 772 131 q 815 235 815 193 q 788 318 814 286 q 722 373 761 350 q 638 417 682 396 q 550 469 592 440 q 482 542 508 499 q 456 654 456 586 q 478 756 456 713 q 540 830 500 800 q 632 877 579 860 q 743 899 685 894 l 792 842 q 725 881 760 865 q 649 904 690 896 q 551 911 607 913 q 417 891 475 913 q 320 831 358 869 q 263 738 282 792 q 243 619 243 685 l 240 60 q 224 19 240 35 q 181 3 207 3 q 138 19 154 3 q 122 60 122 35 l 125 597 q 149 751 125 678 q 224 883 174 825 q 354 975 275 942 q 542 1008 433 1008 q 696 991 626 1008 q 811 946 765 974 q 867 876 867 919 q 856 849 867 858 q 826 836 844 840 q 786 826 808 832 q 674 798 721 817 q 603 751 628 779 q 578 679 578 722 q 597 611 578 639 q 649 563 617 583 q 718 525 682 543 q 794 487 756 507 q 865 436 832 467 q 917 360 897 406 q 936 247 936 314 q 898 117 936 176 q 795 23 860 58 q 650 -14 731 -12 z "},"Ə":{"ha":1063,"x_min":63,"x_max":1000,"o":"m 531 -14 q 359 19 442 -14 q 212 114 276 53 q 108 259 147 175 q 63 443 68 343 l 63 472 q 83 520 63 504 q 129 536 104 536 l 944 536 l 953 425 l 181 425 q 221 297 190 356 q 299 192 251 238 q 406 122 346 147 q 531 97 465 97 q 666 125 603 97 q 778 204 729 153 q 854 327 826 256 q 882 486 882 399 q 853 651 882 579 q 776 772 825 722 q 665 849 728 822 q 529 875 601 875 q 363 845 436 875 q 226 749 289 815 q 189 733 210 733 q 151 746 168 732 q 130 785 132 761 q 147 828 128 810 q 315 948 224 910 q 529 986 407 986 q 711 947 626 986 q 861 840 796 908 q 963 681 926 771 q 1000 486 1000 590 q 963 292 1000 382 q 862 133 926 201 q 713 25 797 64 q 531 -14 628 -14 z "},"T":{"ha":849,"x_min":46,"x_max":804,"o":"m 424 0 q 382 17 399 0 q 365 57 365 33 l 365 915 l 483 915 l 483 57 q 467 17 483 33 q 424 0 450 0 m 101 867 q 62 881 78 867 q 46 919 46 896 q 62 958 46 943 q 101 972 78 972 l 747 972 q 788 958 771 972 q 804 919 804 943 q 788 881 804 894 q 747 867 771 867 l 101 867 z "},"Ŧ":{"ha":849,"x_min":46,"x_max":804,"o":"m 317 418 q 276 432 292 418 q 260 469 260 446 q 276 506 260 492 q 317 521 292 521 l 549 521 q 589 506 574 521 q 604 469 604 492 q 589 432 604 446 q 549 418 574 418 l 317 418 m 424 0 q 382 17 399 0 q 365 57 365 33 l 365 915 l 483 915 l 483 57 q 467 17 483 33 q 424 0 450 0 m 101 867 q 62 881 78 867 q 46 919 46 896 q 62 958 46 943 q 101 972 78 972 l 747 972 q 788 958 771 972 q 804 919 804 943 q 788 881 804 894 q 747 867 771 867 l 101 867 z "},"Ť":{"ha":849,"x_min":46,"x_max":804,"o":"m 424 0 q 382 17 399 0 q 365 57 365 33 l 365 915 l 483 915 l 483 57 q 467 17 483 33 q 424 0 450 0 m 101 867 q 62 881 78 867 q 46 919 46 896 q 62 958 46 943 q 101 972 78 972 l 747 972 q 788 958 771 972 q 804 919 804 943 q 788 881 804 894 q 747 867 771 867 l 101 867 m 408 1124 l 529 1214 q 556 1230 544 1225 q 578 1235 568 1235 q 599 1226 590 1235 q 607 1208 607 1218 q 604 1195 607 1201 q 593 1179 601 1189 l 493 1069 q 467 1049 481 1056 q 433 1042 453 1042 l 415 1042 q 383 1049 396 1042 q 357 1069 369 1056 l 257 1179 q 245 1195 249 1189 q 242 1208 242 1201 q 251 1226 242 1218 q 272 1233 260 1233 q 321 1213 290 1233 l 442 1126 l 408 1124 z "},"Ţ":{"ha":849,"x_min":46,"x_max":804,"o":"m 424 0 q 382 17 399 0 q 365 57 365 33 l 365 915 l 483 915 l 483 57 q 467 17 483 33 q 424 0 450 0 m 101 867 q 62 881 78 867 q 46 919 46 896 q 62 958 46 943 q 101 972 78 972 l 747 972 q 788 958 771 972 q 804 919 804 943 q 788 881 804 894 q 747 867 771 867 l 101 867 m 339 -203 q 311 -197 328 -203 q 282 -178 294 -190 q 269 -151 269 -167 q 281 -121 269 -135 l 397 28 l 467 28 l 382 -169 q 339 -203 368 -203 z "},"Ṱ":{"ha":849,"x_min":46,"x_max":804,"o":"m 424 0 q 382 17 399 0 q 365 57 365 33 l 365 915 l 483 915 l 483 57 q 467 17 483 33 q 424 0 450 0 m 101 867 q 62 881 78 867 q 46 919 46 896 q 62 958 46 943 q 101 972 78 972 l 747 972 q 788 958 771 972 q 804 919 804 943 q 788 881 804 894 q 747 867 771 867 l 101 867 m 443 -157 l 326 -254 q 305 -271 314 -264 q 279 -278 296 -278 q 258 -269 267 -278 q 250 -251 250 -261 q 253 -237 250 -244 q 263 -222 256 -231 l 353 -119 q 413 -90 375 -90 l 444 -90 q 476 -97 464 -90 q 499 -119 488 -103 l 585 -221 q 595 -237 593 -231 q 597 -251 597 -243 q 590 -269 597 -261 q 568 -276 582 -276 q 544 -270 553 -276 q 521 -253 535 -264 l 400 -153 l 443 -157 z "},"Ț":{"ha":849,"x_min":46,"x_max":804,"o":"m 424 0 q 382 17 399 0 q 365 57 365 33 l 365 915 l 483 915 l 483 57 q 467 17 483 33 q 424 0 450 0 m 101 867 q 62 881 78 867 q 46 919 46 896 q 62 958 46 943 q 101 972 78 972 l 747 972 q 788 958 771 972 q 804 919 804 943 q 788 881 804 894 q 747 867 771 867 l 101 867 m 519 -147 q 503 -202 519 -176 q 460 -244 486 -228 q 400 -261 433 -261 q 359 -251 372 -261 q 346 -228 346 -240 q 353 -206 346 -212 q 369 -200 361 -200 q 386 -203 376 -200 q 411 -204 396 -206 q 432 -192 424 -203 q 440 -162 440 -182 q 426 -144 440 -144 q 413 -151 417 -144 q 393 -157 408 -157 q 363 -144 374 -157 q 351 -112 351 -131 q 374 -71 351 -86 q 432 -56 396 -56 q 494 -79 469 -56 q 519 -147 519 -103 z "},"Ṭ":{"ha":849,"x_min":46,"x_max":804,"o":"m 424 0 q 382 17 399 0 q 365 57 365 33 l 365 915 l 483 915 l 483 57 q 467 17 483 33 q 424 0 450 0 m 101 867 q 62 881 78 867 q 46 919 46 896 q 62 958 46 943 q 101 972 78 972 l 747 972 q 788 958 771 972 q 804 919 804 943 q 788 881 804 894 q 747 867 771 867 l 101 867 m 424 -197 q 374 -183 390 -197 q 357 -137 357 -168 l 357 -118 q 375 -73 357 -87 q 425 -58 393 -58 q 476 -73 460 -58 q 493 -118 493 -87 l 493 -137 q 476 -183 493 -168 q 424 -197 458 -197 z "},"Ṯ":{"ha":849,"x_min":46,"x_max":804,"o":"m 424 0 q 382 17 399 0 q 365 57 365 33 l 365 915 l 483 915 l 483 57 q 467 17 483 33 q 424 0 450 0 m 101 867 q 62 881 78 867 q 46 919 46 896 q 62 958 46 943 q 101 972 78 972 l 747 972 q 788 958 771 972 q 804 919 804 943 q 788 881 804 894 q 747 867 771 867 l 101 867 m 282 -186 q 233 -143 233 -186 q 282 -99 233 -99 l 589 -99 q 638 -143 638 -99 q 589 -186 638 -186 l 282 -186 z "},"U":{"ha":986,"x_min":122,"x_max":865,"o":"m 811 974 q 850 957 835 974 q 865 917 865 940 l 865 365 q 816 174 865 258 q 683 40 767 89 q 494 -10 600 -10 q 303 40 388 -10 q 171 174 219 89 q 122 365 122 258 l 122 917 q 138 957 122 940 q 181 974 154 974 q 220 957 203 974 q 238 917 238 940 l 238 365 q 272 229 238 289 q 366 135 307 169 q 494 101 425 101 q 625 135 565 101 q 722 229 685 169 q 758 365 758 289 l 758 917 q 772 957 758 940 q 811 974 786 974 z "},"Ú":{"ha":986,"x_min":122,"x_max":865,"o":"m 811 974 q 850 957 835 974 q 865 917 865 940 l 865 365 q 816 174 865 258 q 683 40 767 89 q 494 -10 600 -10 q 303 40 388 -10 q 171 174 219 89 q 122 365 122 258 l 122 917 q 138 957 122 940 q 181 974 154 974 q 220 957 203 974 q 238 917 238 940 l 238 365 q 272 229 238 289 q 366 135 307 169 q 494 101 425 101 q 625 135 565 101 q 722 229 685 169 q 758 365 758 289 l 758 917 q 772 957 758 940 q 811 974 786 974 m 499 1032 q 471 1042 481 1032 q 461 1065 461 1051 q 465 1081 461 1074 q 476 1094 469 1088 l 599 1194 q 622 1209 610 1203 q 649 1215 635 1215 q 685 1201 668 1215 q 701 1164 701 1186 q 692 1133 701 1147 q 665 1111 683 1119 l 529 1042 q 514 1035 522 1038 q 499 1032 506 1032 z "},"Ŭ":{"ha":986,"x_min":122,"x_max":865,"o":"m 811 974 q 850 957 835 974 q 865 917 865 940 l 865 365 q 816 174 865 258 q 683 40 767 89 q 494 -10 600 -10 q 303 40 388 -10 q 171 174 219 89 q 122 365 122 258 l 122 917 q 138 957 122 940 q 181 974 154 974 q 220 957 203 974 q 238 917 238 940 l 238 365 q 272 229 238 289 q 366 135 307 169 q 494 101 425 101 q 625 135 565 101 q 722 229 685 169 q 758 365 758 289 l 758 917 q 772 957 758 940 q 811 974 786 974 m 494 1069 q 369 1105 421 1069 q 294 1206 317 1140 q 296 1244 286 1229 q 325 1258 306 1258 q 358 1249 347 1258 q 381 1222 368 1240 q 426 1172 399 1189 q 494 1156 454 1156 q 608 1222 575 1156 q 631 1249 619 1239 q 664 1258 643 1258 q 694 1244 685 1258 q 696 1207 704 1231 q 622 1105 674 1140 q 494 1069 569 1069 z "},"Ǔ":{"ha":986,"x_min":122,"x_max":865,"o":"m 811 974 q 850 957 835 974 q 865 917 865 940 l 865 365 q 816 174 865 258 q 683 40 767 89 q 494 -10 600 -10 q 303 40 388 -10 q 171 174 219 89 q 122 365 122 258 l 122 917 q 138 957 122 940 q 181 974 154 974 q 220 957 203 974 q 238 917 238 940 l 238 365 q 272 229 238 289 q 366 135 307 169 q 494 101 425 101 q 625 135 565 101 q 722 229 685 169 q 758 365 758 289 l 758 917 q 772 957 758 940 q 811 974 786 974 m 478 1124 l 599 1214 q 626 1230 614 1225 q 647 1235 638 1235 q 668 1226 660 1235 q 676 1208 676 1218 q 674 1195 676 1201 q 663 1179 671 1189 l 563 1069 q 536 1049 550 1056 q 503 1042 522 1042 l 485 1042 q 452 1049 465 1042 q 426 1069 439 1056 l 326 1179 q 315 1195 318 1189 q 311 1208 311 1201 q 320 1226 311 1218 q 342 1233 329 1233 q 390 1213 360 1233 l 511 1126 l 478 1124 z "},"Û":{"ha":986,"x_min":122,"x_max":865,"o":"m 811 974 q 850 957 835 974 q 865 917 865 940 l 865 365 q 816 174 865 258 q 683 40 767 89 q 494 -10 600 -10 q 303 40 388 -10 q 171 174 219 89 q 122 365 122 258 l 122 917 q 138 957 122 940 q 181 974 154 974 q 220 957 203 974 q 238 917 238 940 l 238 365 q 272 229 238 289 q 366 135 307 169 q 494 101 425 101 q 625 135 565 101 q 722 229 685 169 q 758 365 758 289 l 758 917 q 772 957 758 940 q 811 974 786 974 m 510 1157 l 389 1069 q 363 1053 374 1060 q 340 1047 351 1047 q 319 1056 328 1047 q 311 1074 311 1064 q 314 1087 311 1081 q 325 1103 317 1093 l 425 1213 q 452 1233 439 1226 q 485 1240 465 1240 l 503 1240 q 535 1233 522 1240 q 561 1213 549 1226 l 661 1103 q 673 1088 669 1094 q 676 1074 676 1082 q 668 1057 676 1065 q 646 1049 660 1049 q 624 1055 636 1049 q 597 1071 613 1061 l 476 1154 l 510 1157 z "},"Ȕ":{"ha":986,"x_min":122,"x_max":865,"o":"m 811 974 q 850 957 835 974 q 865 917 865 940 l 865 365 q 816 174 865 258 q 683 40 767 89 q 494 -10 600 -10 q 303 40 388 -10 q 171 174 219 89 q 122 365 122 258 l 122 917 q 138 957 122 940 q 181 974 154 974 q 220 957 203 974 q 238 917 238 940 l 238 365 q 272 229 238 289 q 366 135 307 169 q 494 101 425 101 q 625 135 565 101 q 722 229 685 169 q 758 365 758 289 l 758 917 q 772 957 758 940 q 811 974 786 974 m 403 1047 q 387 1050 394 1047 q 372 1057 379 1053 l 235 1126 q 200 1179 200 1146 q 216 1216 200 1201 q 253 1231 232 1231 q 279 1224 267 1231 q 301 1210 292 1218 l 424 1110 q 436 1096 432 1103 q 440 1081 440 1089 q 431 1057 440 1067 q 403 1047 421 1047 m 653 1051 q 638 1054 646 1051 q 622 1061 631 1057 l 486 1131 q 450 1183 450 1150 q 467 1220 450 1206 q 503 1235 483 1235 q 531 1228 518 1235 q 553 1214 543 1222 l 675 1114 q 687 1100 683 1107 q 690 1085 690 1093 q 681 1061 690 1071 q 653 1051 671 1051 z "},"Ü":{"ha":986,"x_min":122,"x_max":865,"o":"m 811 974 q 850 957 835 974 q 865 917 865 940 l 865 365 q 816 174 865 258 q 683 40 767 89 q 494 -10 600 -10 q 303 40 388 -10 q 171 174 219 89 q 122 365 122 258 l 122 917 q 138 957 122 940 q 181 974 154 974 q 220 957 203 974 q 238 917 238 940 l 238 365 q 272 229 238 289 q 366 135 307 169 q 494 101 425 101 q 625 135 565 101 q 722 229 685 169 q 758 365 758 289 l 758 917 q 772 957 758 940 q 811 974 786 974 m 619 1069 q 569 1084 586 1069 q 553 1129 553 1099 l 553 1147 q 570 1193 553 1179 q 619 1207 588 1207 q 669 1192 653 1207 q 686 1147 686 1178 l 686 1129 q 669 1084 686 1099 q 619 1069 653 1069 m 368 1069 q 318 1084 335 1069 q 301 1129 301 1099 l 301 1147 q 319 1193 301 1179 q 369 1207 338 1207 q 418 1192 401 1207 q 435 1147 435 1178 l 435 1129 q 418 1084 435 1099 q 368 1069 401 1069 z "},"Ụ":{"ha":986,"x_min":122,"x_max":865,"o":"m 811 974 q 850 957 835 974 q 865 917 865 940 l 865 365 q 816 174 865 258 q 683 40 767 89 q 494 -10 600 -10 q 303 40 388 -10 q 171 174 219 89 q 122 365 122 258 l 122 917 q 138 957 122 940 q 181 974 154 974 q 220 957 203 974 q 238 917 238 940 l 238 365 q 272 229 238 289 q 366 135 307 169 q 494 101 425 101 q 625 135 565 101 q 722 229 685 169 q 758 365 758 289 l 758 917 q 772 957 758 940 q 811 974 786 974 m 493 -197 q 443 -183 460 -197 q 426 -137 426 -168 l 426 -118 q 444 -73 426 -87 q 494 -58 463 -58 q 546 -73 529 -58 q 563 -118 563 -87 l 563 -137 q 545 -183 563 -168 q 493 -197 528 -197 z "},"Ù":{"ha":986,"x_min":122,"x_max":865,"o":"m 811 974 q 850 957 835 974 q 865 917 865 940 l 865 365 q 816 174 865 258 q 683 40 767 89 q 494 -10 600 -10 q 303 40 388 -10 q 171 174 219 89 q 122 365 122 258 l 122 917 q 138 957 122 940 q 181 974 154 974 q 220 957 203 974 q 238 917 238 940 l 238 365 q 272 229 238 289 q 366 135 307 169 q 494 101 425 101 q 625 135 565 101 q 722 229 685 169 q 758 365 758 289 l 758 917 q 772 957 758 940 q 811 974 786 974 m 493 1035 q 477 1038 485 1035 q 463 1044 469 1040 l 325 1114 q 290 1167 290 1133 q 306 1203 290 1189 q 343 1218 322 1218 q 369 1212 357 1218 q 392 1197 382 1206 l 514 1097 q 526 1083 522 1090 q 531 1068 531 1076 q 521 1044 531 1054 q 493 1035 511 1035 z "},"Ủ":{"ha":986,"x_min":122,"x_max":865,"o":"m 811 974 q 850 957 835 974 q 865 917 865 940 l 865 365 q 816 174 865 258 q 683 40 767 89 q 494 -10 600 -10 q 303 40 388 -10 q 171 174 219 89 q 122 365 122 258 l 122 917 q 138 957 122 940 q 181 974 154 974 q 220 957 203 974 q 238 917 238 940 l 238 365 q 272 229 238 289 q 366 135 307 169 q 494 101 425 101 q 625 135 565 101 q 722 229 685 169 q 758 365 758 289 l 758 917 q 772 957 758 940 q 811 974 786 974 m 379 1265 q 426 1297 400 1285 q 485 1308 451 1308 q 560 1290 533 1308 q 597 1247 586 1272 q 607 1200 607 1222 q 597 1158 607 1176 q 568 1118 586 1139 q 552 1097 558 1107 q 544 1076 546 1088 q 533 1056 544 1063 q 506 1050 522 1050 q 484 1057 493 1050 q 475 1078 475 1064 q 479 1104 475 1090 q 496 1132 483 1118 q 522 1165 511 1150 q 533 1193 533 1179 q 519 1224 533 1213 q 483 1235 504 1235 q 450 1226 465 1235 q 422 1210 435 1218 q 398 1200 411 1201 q 372 1213 385 1199 q 363 1241 360 1226 q 379 1265 367 1256 z "},"Ư":{"ha":986,"x_min":122,"x_max":1024,"o":"m 811 974 q 850 957 835 974 q 865 917 865 940 l 865 365 q 816 174 865 258 q 683 40 767 89 q 494 -10 600 -10 q 303 40 388 -10 q 171 174 219 89 q 122 365 122 258 l 122 917 q 138 957 122 940 q 181 974 154 974 q 220 957 203 974 q 238 917 238 940 l 238 365 q 272 229 238 289 q 366 135 307 169 q 494 101 425 101 q 625 135 565 101 q 722 229 685 169 q 758 365 758 289 l 758 917 q 772 957 758 940 q 811 974 786 974 m 803 876 l 803 972 q 897 996 865 972 q 929 1072 929 1019 q 941 1112 929 1093 q 978 1131 953 1131 q 1015 1110 1006 1131 q 1024 1072 1024 1090 q 999 972 1024 1017 q 925 902 974 928 q 803 876 876 876 z "},"Ứ":{"ha":986,"x_min":122,"x_max":1024,"o":"m 811 974 q 850 957 835 974 q 865 917 865 940 l 865 365 q 816 174 865 258 q 683 40 767 89 q 494 -10 600 -10 q 303 40 388 -10 q 171 174 219 89 q 122 365 122 258 l 122 917 q 138 957 122 940 q 181 974 154 974 q 220 957 203 974 q 238 917 238 940 l 238 365 q 272 229 238 289 q 366 135 307 169 q 494 101 425 101 q 625 135 565 101 q 722 229 685 169 q 758 365 758 289 l 758 917 q 772 957 758 940 q 811 974 786 974 m 803 876 l 803 972 q 897 996 865 972 q 929 1072 929 1019 q 941 1112 929 1093 q 978 1131 953 1131 q 1015 1110 1006 1131 q 1024 1072 1024 1090 q 999 972 1024 1017 q 925 902 974 928 q 803 876 876 876 m 504 1032 q 476 1042 486 1032 q 467 1065 467 1051 q 471 1081 467 1074 q 482 1094 475 1088 l 604 1194 q 628 1209 615 1203 q 654 1215 640 1215 q 690 1201 674 1215 q 707 1164 707 1186 q 698 1133 707 1147 q 671 1111 689 1119 l 535 1042 q 519 1035 528 1038 q 504 1032 511 1032 z "},"Ự":{"ha":986,"x_min":122,"x_max":1024,"o":"m 811 974 q 850 957 835 974 q 865 917 865 940 l 865 365 q 816 174 865 258 q 683 40 767 89 q 494 -10 600 -10 q 303 40 388 -10 q 171 174 219 89 q 122 365 122 258 l 122 917 q 138 957 122 940 q 181 974 154 974 q 220 957 203 974 q 238 917 238 940 l 238 365 q 272 229 238 289 q 366 135 307 169 q 494 101 425 101 q 625 135 565 101 q 722 229 685 169 q 758 365 758 289 l 758 917 q 772 957 758 940 q 811 974 786 974 m 803 876 l 803 972 q 897 996 865 972 q 929 1072 929 1019 q 941 1112 929 1093 q 978 1131 953 1131 q 1015 1110 1006 1131 q 1024 1072 1024 1090 q 999 972 1024 1017 q 925 902 974 928 q 803 876 876 876 m 497 -197 q 447 -183 464 -197 q 431 -137 431 -168 l 431 -118 q 449 -73 431 -87 q 499 -58 467 -58 q 550 -73 533 -58 q 567 -118 567 -87 l 567 -137 q 549 -183 567 -168 q 497 -197 532 -197 z "},"Ừ":{"ha":986,"x_min":122,"x_max":1024,"o":"m 811 974 q 850 957 835 974 q 865 917 865 940 l 865 365 q 816 174 865 258 q 683 40 767 89 q 494 -10 600 -10 q 303 40 388 -10 q 171 174 219 89 q 122 365 122 258 l 122 917 q 138 957 122 940 q 181 974 154 974 q 220 957 203 974 q 238 917 238 940 l 238 365 q 272 229 238 289 q 366 135 307 169 q 494 101 425 101 q 625 135 565 101 q 722 229 685 169 q 758 365 758 289 l 758 917 q 772 957 758 940 q 811 974 786 974 m 803 876 l 803 972 q 897 996 865 972 q 929 1072 929 1019 q 941 1112 929 1093 q 978 1131 953 1131 q 1015 1110 1006 1131 q 1024 1072 1024 1090 q 999 972 1024 1017 q 925 902 974 928 q 803 876 876 876 m 499 1035 q 483 1038 490 1035 q 468 1044 475 1040 l 331 1114 q 296 1167 296 1133 q 312 1203 296 1189 q 349 1218 328 1218 q 375 1212 363 1218 q 397 1197 388 1206 l 519 1097 q 532 1083 528 1090 q 536 1068 536 1076 q 526 1044 536 1054 q 499 1035 517 1035 z "},"Ử":{"ha":986,"x_min":122,"x_max":1024,"o":"m 811 974 q 850 957 835 974 q 865 917 865 940 l 865 365 q 816 174 865 258 q 683 40 767 89 q 494 -10 600 -10 q 303 40 388 -10 q 171 174 219 89 q 122 365 122 258 l 122 917 q 138 957 122 940 q 181 974 154 974 q 220 957 203 974 q 238 917 238 940 l 238 365 q 272 229 238 289 q 366 135 307 169 q 494 101 425 101 q 625 135 565 101 q 722 229 685 169 q 758 365 758 289 l 758 917 q 772 957 758 940 q 811 974 786 974 m 803 876 l 803 972 q 897 996 865 972 q 929 1072 929 1019 q 941 1112 929 1093 q 978 1131 953 1131 q 1015 1110 1006 1131 q 1024 1072 1024 1090 q 999 972 1024 1017 q 925 902 974 928 q 803 876 876 876 m 385 1265 q 431 1297 406 1285 q 490 1308 457 1308 q 565 1290 539 1308 q 602 1247 592 1272 q 613 1200 613 1222 q 602 1158 613 1176 q 574 1118 592 1139 q 558 1097 564 1107 q 550 1076 551 1088 q 539 1056 550 1063 q 511 1050 528 1050 q 490 1057 499 1050 q 481 1078 481 1064 q 485 1104 481 1090 q 501 1132 489 1118 q 528 1165 517 1150 q 539 1193 539 1179 q 524 1224 539 1213 q 489 1235 510 1235 q 456 1226 471 1235 q 428 1210 440 1218 q 403 1200 417 1201 q 378 1213 390 1199 q 369 1241 365 1226 q 385 1265 372 1256 z "},"Ữ":{"ha":986,"x_min":122,"x_max":1024,"o":"m 811 974 q 850 957 835 974 q 865 917 865 940 l 865 365 q 816 174 865 258 q 683 40 767 89 q 494 -10 600 -10 q 303 40 388 -10 q 171 174 219 89 q 122 365 122 258 l 122 917 q 138 957 122 940 q 181 974 154 974 q 220 957 203 974 q 238 917 238 940 l 238 365 q 272 229 238 289 q 366 135 307 169 q 494 101 425 101 q 625 135 565 101 q 722 229 685 169 q 758 365 758 289 l 758 917 q 772 957 758 940 q 811 974 786 974 m 803 876 l 803 972 q 897 996 865 972 q 929 1072 929 1019 q 941 1112 929 1093 q 978 1131 953 1131 q 1015 1110 1006 1131 q 1024 1072 1024 1090 q 999 972 1024 1017 q 925 902 974 928 q 803 876 876 876 m 318 1054 q 283 1074 296 1054 q 272 1128 269 1094 q 314 1203 278 1174 q 404 1232 350 1232 q 478 1211 442 1232 q 549 1169 515 1190 q 606 1149 582 1149 q 635 1161 624 1149 q 646 1194 646 1174 q 653 1229 642 1217 q 682 1242 664 1242 q 719 1222 707 1242 q 731 1169 732 1201 q 712 1117 726 1142 q 672 1077 697 1092 q 611 1063 646 1063 q 533 1083 572 1063 q 459 1123 493 1103 q 400 1143 425 1143 q 371 1132 383 1143 q 356 1099 358 1121 q 347 1066 358 1078 q 318 1054 335 1054 z "},"Ű":{"ha":986,"x_min":122,"x_max":865,"o":"m 811 974 q 850 957 835 974 q 865 917 865 940 l 865 365 q 816 174 865 258 q 683 40 767 89 q 494 -10 600 -10 q 303 40 388 -10 q 171 174 219 89 q 122 365 122 258 l 122 917 q 138 957 122 940 q 181 974 154 974 q 220 957 203 974 q 238 917 238 940 l 238 365 q 272 229 238 289 q 366 135 307 169 q 494 101 425 101 q 625 135 565 101 q 722 229 685 169 q 758 365 758 289 l 758 917 q 772 957 758 940 q 811 974 786 974 m 360 1051 q 333 1076 333 1051 q 344 1110 333 1092 l 417 1219 q 436 1242 424 1232 q 468 1251 449 1251 q 508 1238 490 1251 q 525 1200 525 1224 q 520 1182 525 1190 q 507 1165 515 1174 l 421 1079 q 394 1059 408 1067 q 360 1051 379 1051 m 589 1051 q 563 1076 563 1051 q 575 1110 563 1090 l 647 1219 q 667 1240 654 1232 q 697 1249 679 1249 q 735 1238 717 1249 q 754 1203 754 1228 q 750 1183 754 1192 q 738 1165 746 1174 l 650 1079 q 623 1059 638 1067 q 589 1051 608 1051 z "},"Ȗ":{"ha":986,"x_min":122,"x_max":865,"o":"m 811 974 q 850 957 835 974 q 865 917 865 940 l 865 365 q 816 174 865 258 q 683 40 767 89 q 494 -10 600 -10 q 303 40 388 -10 q 171 174 219 89 q 122 365 122 258 l 122 917 q 138 957 122 940 q 181 974 154 974 q 220 957 203 974 q 238 917 238 940 l 238 365 q 272 229 238 289 q 366 135 307 169 q 494 101 425 101 q 625 135 565 101 q 722 229 685 169 q 758 365 758 289 l 758 917 q 772 957 758 940 q 811 974 786 974 m 493 1231 q 583 1214 543 1231 q 651 1167 624 1197 q 688 1097 679 1136 q 684 1060 694 1075 q 654 1046 674 1046 q 620 1056 632 1046 q 597 1085 608 1067 q 559 1130 586 1114 q 493 1146 532 1146 q 428 1130 456 1146 q 389 1085 400 1114 q 367 1056 379 1067 q 333 1046 354 1046 q 303 1060 314 1046 q 299 1096 292 1074 q 335 1165 308 1135 q 403 1213 363 1196 q 493 1231 444 1231 z "},"Ū":{"ha":986,"x_min":122,"x_max":865,"o":"m 811 974 q 850 957 835 974 q 865 917 865 940 l 865 365 q 816 174 865 258 q 683 40 767 89 q 494 -10 600 -10 q 303 40 388 -10 q 171 174 219 89 q 122 365 122 258 l 122 917 q 138 957 122 940 q 181 974 154 974 q 220 957 203 974 q 238 917 238 940 l 238 365 q 272 229 238 289 q 366 135 307 169 q 494 101 425 101 q 625 135 565 101 q 722 229 685 169 q 758 365 758 289 l 758 917 q 772 957 758 940 q 811 974 786 974 m 322 1078 q 272 1121 272 1078 q 322 1165 272 1165 l 671 1165 q 721 1121 721 1165 q 671 1078 721 1078 l 322 1078 z "},"Ṻ":{"ha":986,"x_min":122,"x_max":865,"o":"m 811 974 q 850 957 835 974 q 865 917 865 940 l 865 365 q 816 174 865 258 q 683 40 767 89 q 494 -10 600 -10 q 303 40 388 -10 q 171 174 219 89 q 122 365 122 258 l 122 917 q 138 957 122 940 q 181 974 154 974 q 220 957 203 974 q 238 917 238 940 l 238 365 q 272 229 238 289 q 366 135 307 169 q 494 101 425 101 q 625 135 565 101 q 722 229 685 169 q 758 365 758 289 l 758 917 q 772 957 758 940 q 811 974 786 974 m 322 1078 q 272 1121 272 1078 q 322 1165 272 1165 l 671 1165 q 721 1121 721 1165 q 671 1078 721 1078 l 322 1078 m 619 1290 q 569 1305 586 1290 q 553 1350 553 1319 l 553 1368 q 570 1414 553 1400 q 619 1428 588 1428 q 669 1413 653 1428 q 686 1368 686 1399 l 686 1350 q 669 1305 686 1319 q 619 1290 653 1290 m 368 1290 q 318 1305 335 1290 q 301 1350 301 1319 l 301 1368 q 319 1414 301 1400 q 369 1428 338 1428 q 418 1413 401 1428 q 435 1368 435 1399 l 435 1350 q 418 1305 435 1319 q 368 1290 401 1290 z "},"Ų":{"ha":986,"x_min":122,"x_max":865,"o":"m 604 -272 q 503 -237 547 -272 q 460 -133 460 -201 q 477 -54 460 -89 q 523 7 494 -19 q 585 51 551 33 q 650 78 618 69 l 549 -7 q 522 -9 535 -8 q 494 -10 508 -10 q 303 40 388 -10 q 171 174 219 89 q 122 365 122 258 l 122 917 q 138 957 122 940 q 181 974 154 974 q 222 957 207 974 q 238 917 238 940 l 238 365 q 272 229 238 289 q 366 135 307 169 q 494 101 425 101 q 626 135 567 101 q 722 229 686 169 q 758 365 758 289 l 758 917 q 774 957 758 940 q 811 974 789 974 q 850 957 835 974 q 865 917 865 940 l 865 365 q 847 242 865 304 q 790 129 828 181 q 694 46 751 78 q 628 1 660 25 q 576 -50 596 -22 q 556 -112 556 -78 q 574 -164 556 -146 q 615 -182 592 -182 q 651 -167 640 -182 q 673 -148 661 -153 q 694 -143 685 -143 q 723 -155 711 -143 q 735 -186 735 -167 q 717 -226 735 -206 q 669 -259 699 -246 q 604 -272 640 -272 z "},"Ů":{"ha":986,"x_min":122,"x_max":865,"o":"m 811 974 q 850 957 835 974 q 865 917 865 940 l 865 365 q 816 174 865 258 q 683 40 767 89 q 494 -10 600 -10 q 303 40 388 -10 q 171 174 219 89 q 122 365 122 258 l 122 917 q 138 957 122 940 q 181 974 154 974 q 220 957 203 974 q 238 917 238 940 l 238 365 q 272 229 238 289 q 366 135 307 169 q 494 101 425 101 q 625 135 565 101 q 722 229 685 169 q 758 365 758 289 l 758 917 q 772 957 758 940 q 811 974 786 974 m 494 1035 q 422 1054 456 1035 q 368 1106 389 1074 q 347 1176 347 1138 q 368 1248 347 1215 q 422 1299 389 1281 q 494 1318 456 1318 q 567 1299 533 1318 q 622 1248 601 1281 q 642 1176 642 1215 q 622 1106 642 1138 q 567 1054 601 1074 q 494 1035 533 1035 m 494 1106 q 547 1126 526 1106 q 568 1176 568 1147 q 547 1228 568 1208 q 494 1247 525 1247 q 442 1228 464 1247 q 421 1176 421 1208 q 442 1126 421 1147 q 494 1106 464 1106 z "},"Ũ":{"ha":986,"x_min":122,"x_max":865,"o":"m 811 974 q 850 957 835 974 q 865 917 865 940 l 865 365 q 816 174 865 258 q 683 40 767 89 q 494 -10 600 -10 q 303 40 388 -10 q 171 174 219 89 q 122 365 122 258 l 122 917 q 138 957 122 940 q 181 974 154 974 q 220 957 203 974 q 238 917 238 940 l 238 365 q 272 229 238 289 q 366 135 307 169 q 494 101 425 101 q 625 135 565 101 q 722 229 685 169 q 758 365 758 289 l 758 917 q 772 957 758 940 q 811 974 786 974 m 313 1054 q 277 1074 290 1054 q 267 1128 264 1094 q 308 1203 272 1174 q 399 1232 344 1232 q 473 1211 436 1232 q 543 1169 510 1190 q 600 1149 576 1149 q 629 1161 618 1149 q 640 1194 640 1174 q 647 1229 636 1217 q 676 1242 658 1242 q 714 1222 701 1242 q 725 1169 726 1201 q 706 1117 721 1142 q 666 1077 692 1092 q 606 1063 640 1063 q 527 1083 567 1063 q 453 1123 488 1103 q 394 1143 419 1143 q 365 1132 378 1143 q 350 1099 353 1121 q 341 1066 353 1078 q 313 1054 329 1054 z "},"Ṹ":{"ha":986,"x_min":122,"x_max":865,"o":"m 811 974 q 850 957 835 974 q 865 917 865 940 l 865 365 q 816 174 865 258 q 683 40 767 89 q 494 -10 600 -10 q 303 40 388 -10 q 171 174 219 89 q 122 365 122 258 l 122 917 q 138 957 122 940 q 181 974 154 974 q 220 957 203 974 q 238 917 238 940 l 238 365 q 272 229 238 289 q 366 135 307 169 q 494 101 425 101 q 625 135 565 101 q 722 229 685 169 q 758 365 758 289 l 758 917 q 772 957 758 940 q 811 974 786 974 m 313 1054 q 277 1074 290 1054 q 267 1128 264 1094 q 308 1203 272 1174 q 399 1232 344 1232 q 473 1211 436 1232 q 543 1169 510 1190 q 600 1149 576 1149 q 629 1161 618 1149 q 640 1194 640 1174 q 647 1229 636 1217 q 676 1242 658 1242 q 714 1222 701 1242 q 725 1169 726 1201 q 706 1117 721 1142 q 666 1077 692 1092 q 606 1063 640 1063 q 527 1083 567 1063 q 453 1123 488 1103 q 394 1143 419 1143 q 365 1132 378 1143 q 350 1099 353 1121 q 341 1066 353 1078 q 313 1054 329 1054 m 499 1311 q 471 1321 481 1311 q 461 1344 461 1331 q 465 1360 461 1353 q 476 1374 469 1367 l 599 1474 q 622 1488 610 1482 q 649 1494 635 1494 q 685 1480 668 1494 q 701 1443 701 1465 q 692 1413 701 1426 q 665 1390 683 1399 l 529 1321 q 514 1314 522 1317 q 499 1311 506 1311 z "},"V":{"ha":929,"x_min":46,"x_max":885,"o":"m 828 974 q 868 959 851 974 q 885 921 885 944 q 879 896 885 910 l 517 36 q 494 9 508 18 q 463 0 479 0 q 433 10 447 1 q 413 36 419 19 l 51 894 q 47 906 49 900 q 46 919 46 913 q 65 960 46 946 q 101 975 83 975 q 156 936 139 975 l 488 144 l 456 144 l 776 939 q 828 974 793 974 z "},"W":{"ha":1332,"x_min":36,"x_max":1296,"o":"m 1236 976 q 1277 961 1258 976 q 1296 918 1296 946 q 1293 897 1296 908 l 997 36 q 977 10 992 19 q 947 0 963 1 q 915 9 931 0 q 892 36 900 18 l 660 597 l 671 593 l 440 36 q 417 9 432 18 q 385 0 401 0 q 355 10 369 1 q 335 36 340 19 l 39 897 q 36 917 36 908 q 56 960 36 944 q 97 976 76 976 q 129 967 114 976 q 150 940 144 957 l 410 174 l 390 174 l 617 733 q 638 760 624 750 q 669 769 651 769 q 701 760 686 769 q 721 733 715 750 l 940 182 l 924 175 l 1182 940 q 1203 967 1188 957 q 1236 976 1218 976 z "},"Ẃ":{"ha":1332,"x_min":36,"x_max":1296,"o":"m 1236 976 q 1277 961 1258 976 q 1296 918 1296 946 q 1293 897 1296 908 l 997 36 q 977 10 992 19 q 947 0 963 1 q 915 9 931 0 q 892 36 900 18 l 660 597 l 671 593 l 440 36 q 417 9 432 18 q 385 0 401 0 q 355 10 369 1 q 335 36 340 19 l 39 897 q 36 917 36 908 q 56 960 36 944 q 97 976 76 976 q 129 967 114 976 q 150 940 144 957 l 410 174 l 390 174 l 617 733 q 638 760 624 750 q 669 769 651 769 q 701 760 686 769 q 721 733 715 750 l 940 182 l 924 175 l 1182 940 q 1203 967 1188 957 q 1236 976 1218 976 m 671 1032 q 643 1042 653 1032 q 633 1065 633 1051 q 638 1081 633 1074 q 649 1094 642 1088 l 771 1194 q 794 1209 782 1203 q 821 1215 807 1215 q 857 1201 840 1215 q 874 1164 874 1186 q 865 1133 874 1147 q 838 1111 856 1119 l 701 1042 q 686 1035 694 1038 q 671 1032 678 1032 z "},"Ŵ":{"ha":1332,"x_min":36,"x_max":1296,"o":"m 1236 976 q 1277 961 1258 976 q 1296 918 1296 946 q 1293 897 1296 908 l 997 36 q 977 10 992 19 q 947 0 963 1 q 915 9 931 0 q 892 36 900 18 l 660 597 l 671 593 l 440 36 q 417 9 432 18 q 385 0 401 0 q 355 10 369 1 q 335 36 340 19 l 39 897 q 36 917 36 908 q 56 960 36 944 q 97 976 76 976 q 129 967 114 976 q 150 940 144 957 l 410 174 l 390 174 l 617 733 q 638 760 624 750 q 669 769 651 769 q 701 760 686 769 q 721 733 715 750 l 940 182 l 924 175 l 1182 940 q 1203 967 1188 957 q 1236 976 1218 976 m 682 1157 l 561 1069 q 535 1053 546 1060 q 513 1047 524 1047 q 492 1056 500 1047 q 483 1074 483 1064 q 486 1087 483 1081 q 497 1103 489 1093 l 597 1213 q 624 1233 611 1226 q 657 1240 638 1240 l 675 1240 q 708 1233 694 1240 q 733 1213 721 1226 l 833 1103 q 845 1088 842 1094 q 849 1074 849 1082 q 840 1057 849 1065 q 818 1049 832 1049 q 797 1055 808 1049 q 769 1071 785 1061 l 649 1154 l 682 1157 z "},"Ẅ":{"ha":1332,"x_min":36,"x_max":1296,"o":"m 1236 976 q 1277 961 1258 976 q 1296 918 1296 946 q 1293 897 1296 908 l 997 36 q 977 10 992 19 q 947 0 963 1 q 915 9 931 0 q 892 36 900 18 l 660 597 l 671 593 l 440 36 q 417 9 432 18 q 385 0 401 0 q 355 10 369 1 q 335 36 340 19 l 39 897 q 36 917 36 908 q 56 960 36 944 q 97 976 76 976 q 129 967 114 976 q 150 940 144 957 l 410 174 l 390 174 l 617 733 q 638 760 624 750 q 669 769 651 769 q 701 760 686 769 q 721 733 715 750 l 940 182 l 924 175 l 1182 940 q 1203 967 1188 957 q 1236 976 1218 976 m 792 1069 q 742 1084 758 1069 q 725 1129 725 1099 l 725 1147 q 742 1193 725 1179 q 792 1207 760 1207 q 842 1192 825 1207 q 858 1147 858 1178 l 858 1129 q 842 1084 858 1099 q 792 1069 825 1069 m 540 1069 q 490 1084 507 1069 q 474 1129 474 1099 l 474 1147 q 492 1193 474 1179 q 542 1207 510 1207 q 590 1192 574 1207 q 607 1147 607 1178 l 607 1129 q 590 1084 607 1099 q 540 1069 574 1069 z "},"Ẁ":{"ha":1332,"x_min":36,"x_max":1296,"o":"m 1236 976 q 1277 961 1258 976 q 1296 918 1296 946 q 1293 897 1296 908 l 997 36 q 977 10 992 19 q 947 0 963 1 q 915 9 931 0 q 892 36 900 18 l 660 597 l 671 593 l 440 36 q 417 9 432 18 q 385 0 401 0 q 355 10 369 1 q 335 36 340 19 l 39 897 q 36 917 36 908 q 56 960 36 944 q 97 976 76 976 q 129 967 114 976 q 150 940 144 957 l 410 174 l 390 174 l 617 733 q 638 760 624 750 q 669 769 651 769 q 701 760 686 769 q 721 733 715 750 l 940 182 l 924 175 l 1182 940 q 1203 967 1188 957 q 1236 976 1218 976 m 665 1035 q 649 1038 657 1035 q 635 1044 642 1040 l 497 1114 q 463 1167 463 1133 q 478 1203 463 1189 q 515 1218 494 1218 q 542 1212 529 1218 q 564 1197 554 1206 l 686 1097 q 699 1083 694 1090 q 703 1068 703 1076 q 693 1044 703 1054 q 665 1035 683 1035 z "},"X":{"ha":864,"x_min":53,"x_max":813,"o":"m 760 976 q 797 961 781 976 q 813 926 813 946 q 800 892 813 908 l 494 479 l 432 567 l 715 950 q 760 976 733 976 m 110 976 q 156 953 139 976 l 800 85 q 811 50 811 68 q 793 10 811 25 q 756 -6 775 -6 q 710 18 728 -6 l 65 888 q 54 921 54 901 q 72 960 54 944 q 110 976 89 976 m 104 -6 q 67 10 82 -6 q 53 43 53 26 q 67 81 53 63 l 374 499 l 433 407 l 149 19 q 104 -6 132 -6 z "},"Y":{"ha":794,"x_min":26,"x_max":769,"o":"m 714 978 q 753 960 738 978 q 769 921 769 943 q 767 903 769 913 q 760 886 765 894 l 438 438 l 456 506 l 456 57 q 440 17 456 33 q 401 0 424 0 q 360 17 376 0 q 344 57 344 33 l 344 494 l 354 458 l 42 881 q 30 902 33 892 q 26 922 26 913 q 46 962 26 946 q 85 978 65 978 q 131 951 113 978 l 418 557 l 392 561 l 668 950 q 714 978 686 978 z "},"Ý":{"ha":794,"x_min":26,"x_max":769,"o":"m 714 978 q 753 960 738 978 q 769 921 769 943 q 767 903 769 913 q 760 886 765 894 l 438 438 l 456 506 l 456 57 q 440 17 456 33 q 401 0 424 0 q 360 17 376 0 q 344 57 344 33 l 344 494 l 354 458 l 42 881 q 30 902 33 892 q 26 922 26 913 q 46 962 26 946 q 85 978 65 978 q 131 951 113 978 l 418 557 l 392 561 l 668 950 q 714 978 686 978 m 401 1032 q 374 1042 383 1032 q 364 1065 364 1051 q 368 1081 364 1074 q 379 1094 372 1088 l 501 1194 q 525 1209 513 1203 q 551 1215 538 1215 q 588 1201 571 1215 q 604 1164 604 1186 q 595 1133 604 1147 q 568 1111 586 1119 l 432 1042 q 417 1035 425 1038 q 401 1032 408 1032 z "},"Ŷ":{"ha":794,"x_min":26,"x_max":769,"o":"m 714 978 q 753 960 738 978 q 769 921 769 943 q 767 903 769 913 q 760 886 765 894 l 438 438 l 456 506 l 456 57 q 440 17 456 33 q 401 0 424 0 q 360 17 376 0 q 344 57 344 33 l 344 494 l 354 458 l 42 881 q 30 902 33 892 q 26 922 26 913 q 46 962 26 946 q 85 978 65 978 q 131 951 113 978 l 418 557 l 392 561 l 668 950 q 714 978 686 978 m 413 1157 l 292 1069 q 265 1053 276 1060 q 243 1047 254 1047 q 222 1056 231 1047 q 214 1074 214 1064 q 217 1087 214 1081 q 228 1103 219 1093 l 328 1213 q 355 1233 342 1226 q 388 1240 368 1240 l 406 1240 q 438 1233 425 1240 q 464 1213 451 1226 l 564 1103 q 576 1088 572 1094 q 579 1074 579 1082 q 571 1057 579 1065 q 549 1049 563 1049 q 527 1055 539 1049 q 500 1071 515 1061 l 379 1154 l 413 1157 z "},"Ÿ":{"ha":794,"x_min":26,"x_max":769,"o":"m 714 978 q 753 960 738 978 q 769 921 769 943 q 767 903 769 913 q 760 886 765 894 l 438 438 l 456 506 l 456 57 q 440 17 456 33 q 401 0 424 0 q 360 17 376 0 q 344 57 344 33 l 344 494 l 354 458 l 42 881 q 30 902 33 892 q 26 922 26 913 q 46 962 26 946 q 85 978 65 978 q 131 951 113 978 l 418 557 l 392 561 l 668 950 q 714 978 686 978 m 524 1069 q 474 1084 490 1069 q 457 1129 457 1099 l 457 1147 q 474 1193 457 1179 q 524 1207 492 1207 q 574 1192 557 1207 q 590 1147 590 1178 l 590 1129 q 574 1084 590 1099 q 524 1069 557 1069 m 272 1069 q 222 1084 239 1069 q 206 1129 206 1099 l 206 1147 q 224 1193 206 1179 q 274 1207 242 1207 q 322 1192 306 1207 q 339 1147 339 1178 l 339 1129 q 322 1084 339 1099 q 272 1069 306 1069 z "},"Ẏ":{"ha":794,"x_min":26,"x_max":769,"o":"m 714 978 q 753 960 738 978 q 769 921 769 943 q 767 903 769 913 q 760 886 765 894 l 438 438 l 456 506 l 456 57 q 440 17 456 33 q 401 0 424 0 q 360 17 376 0 q 344 57 344 33 l 344 494 l 354 458 l 42 881 q 30 902 33 892 q 26 922 26 913 q 46 962 26 946 q 85 978 65 978 q 131 951 113 978 l 418 557 l 392 561 l 668 950 q 714 978 686 978 m 396 1056 q 346 1070 363 1056 q 329 1115 329 1085 l 329 1135 q 347 1180 329 1165 q 397 1194 365 1194 q 449 1180 432 1194 q 465 1135 465 1165 l 465 1115 q 448 1070 465 1085 q 396 1056 431 1056 z "},"Ỵ":{"ha":794,"x_min":26,"x_max":769,"o":"m 714 978 q 753 960 738 978 q 769 921 769 943 q 767 903 769 913 q 760 886 765 894 l 438 438 l 456 506 l 456 57 q 440 17 456 33 q 401 0 424 0 q 360 17 376 0 q 344 57 344 33 l 344 494 l 354 458 l 42 881 q 30 902 33 892 q 26 922 26 913 q 46 962 26 946 q 85 978 65 978 q 131 951 113 978 l 418 557 l 392 561 l 668 950 q 714 978 686 978 m 400 -197 q 350 -183 367 -197 q 333 -137 333 -168 l 333 -118 q 351 -73 333 -87 q 401 -58 369 -58 q 453 -73 436 -58 q 469 -118 469 -87 l 469 -137 q 452 -183 469 -168 q 400 -197 435 -197 z "},"Ỳ":{"ha":794,"x_min":26,"x_max":769,"o":"m 714 978 q 753 960 738 978 q 769 921 769 943 q 767 903 769 913 q 760 886 765 894 l 438 438 l 456 506 l 456 57 q 440 17 456 33 q 401 0 424 0 q 360 17 376 0 q 344 57 344 33 l 344 494 l 354 458 l 42 881 q 30 902 33 892 q 26 922 26 913 q 46 962 26 946 q 85 978 65 978 q 131 951 113 978 l 418 557 l 392 561 l 668 950 q 714 978 686 978 m 397 1035 q 381 1038 389 1035 q 367 1044 374 1040 l 229 1114 q 194 1167 194 1133 q 210 1203 194 1189 q 247 1218 226 1218 q 274 1212 261 1218 q 296 1197 286 1206 l 418 1097 q 431 1083 426 1090 q 435 1068 435 1076 q 425 1044 435 1054 q 397 1035 415 1035 z "},"Ỷ":{"ha":794,"x_min":26,"x_max":769,"o":"m 714 978 q 753 960 738 978 q 769 921 769 943 q 767 903 769 913 q 760 886 765 894 l 438 438 l 456 506 l 456 57 q 440 17 456 33 q 401 0 424 0 q 360 17 376 0 q 344 57 344 33 l 344 494 l 354 458 l 42 881 q 30 902 33 892 q 26 922 26 913 q 46 962 26 946 q 85 978 65 978 q 131 951 113 978 l 418 557 l 392 561 l 668 950 q 714 978 686 978 m 282 1265 q 328 1297 303 1285 q 388 1308 354 1308 q 463 1290 436 1308 q 499 1247 489 1272 q 510 1200 510 1222 q 499 1158 510 1176 q 471 1118 489 1139 q 455 1097 461 1107 q 447 1076 449 1088 q 436 1056 447 1063 q 408 1050 425 1050 q 387 1057 396 1050 q 378 1078 378 1064 q 382 1104 378 1090 q 399 1132 386 1118 q 425 1165 414 1150 q 436 1193 436 1179 q 422 1224 436 1213 q 386 1235 407 1235 q 353 1226 368 1235 q 325 1210 338 1218 q 301 1200 314 1201 q 275 1213 288 1199 q 266 1241 263 1226 q 282 1265 269 1256 z "},"Ȳ":{"ha":794,"x_min":26,"x_max":769,"o":"m 714 978 q 753 960 738 978 q 769 921 769 943 q 767 903 769 913 q 760 886 765 894 l 438 438 l 456 506 l 456 57 q 440 17 456 33 q 401 0 424 0 q 360 17 376 0 q 344 57 344 33 l 344 494 l 354 458 l 42 881 q 30 902 33 892 q 26 922 26 913 q 46 962 26 946 q 85 978 65 978 q 131 951 113 978 l 418 557 l 392 561 l 668 950 q 714 978 686 978 m 226 1078 q 176 1121 176 1078 q 226 1165 176 1165 l 575 1165 q 625 1121 625 1165 q 575 1078 625 1078 l 226 1078 z "}}}
